<svg aria-hidden="true" style="position: absolute; width: 0; height: 0; overflow: hidden;" version="1.1" xmlns="http://www.w3.org/2000/svg" xmlns:xlink="http://www.w3.org/1999/xlink">
<defs>
<symbol id="icon-cart" viewBox="0 0 24 24">
<path d="M19 5h-14l1.5-2h11zM21.794 5.392l-2.994-3.992c-0.196-0.261-0.494-0.399-0.8-0.4h-12c-0.326 0-0.616 0.156-0.8 0.4l-2.994 3.992c-0.043 0.056-0.081 0.117-0.111 0.182-0.065 0.137-0.096 0.283-0.095 0.426v14c0 0.828 0.337 1.58 0.879 2.121s1.293 0.879 2.121 0.879h14c0.828 0 1.58-0.337 2.121-0.879s0.879-1.293 0.879-2.121v-14c0-0.219-0.071-0.422-0.189-0.585-0.004-0.005-0.007-0.010-0.011-0.015zM4 7h16v13c0 0.276-0.111 0.525-0.293 0.707s-0.431 0.293-0.707 0.293h-14c-0.276 0-0.525-0.111-0.707-0.293s-0.293-0.431-0.293-0.707zM15 10c0 0.829-0.335 1.577-0.879 2.121s-1.292 0.879-2.121 0.879-1.577-0.335-2.121-0.879-0.879-1.292-0.879-2.121c0-0.552-0.448-1-1-1s-1 0.448-1 1c0 1.38 0.561 2.632 1.464 3.536s2.156 1.464 3.536 1.464 2.632-0.561 3.536-1.464 1.464-2.156 1.464-3.536c0-0.552-0.448-1-1-1s-1 0.448-1 1z"></path>
</symbol>
<symbol id="icon-close" viewBox="0 0 20 20">
<path d="M10 8.586l-7.071-7.071-1.414 1.414 7.071 7.071-7.071 7.071 1.414 1.414 7.071-7.071 7.071 7.071 1.414-1.414-7.071-7.071 7.071-7.071-1.414-1.414-7.071 7.071z"></path>
</symbol>
<symbol id="icon-loading" viewBox="0 0 32 32">
<path d="M32 16c-0.040-2.089-0.493-4.172-1.331-6.077-0.834-1.906-2.046-3.633-3.533-5.060-1.486-1.428-3.248-2.557-5.156-3.302-1.906-0.748-3.956-1.105-5.981-1.061-2.025 0.040-4.042 0.48-5.885 1.292-1.845 0.809-3.517 1.983-4.898 3.424s-2.474 3.147-3.193 4.994c-0.722 1.846-1.067 3.829-1.023 5.79 0.040 1.961 0.468 3.911 1.254 5.694 0.784 1.784 1.921 3.401 3.316 4.736 1.394 1.336 3.046 2.391 4.832 3.085 1.785 0.697 3.701 1.028 5.598 0.985 1.897-0.040 3.78-0.455 5.502-1.216 1.723-0.759 3.285-1.859 4.574-3.208 1.29-1.348 2.308-2.945 2.977-4.67 0.407-1.046 0.684-2.137 0.829-3.244 0.039 0.002 0.078 0.004 0.118 0.004 1.105 0 2-0.895 2-2 0-0.056-0.003-0.112-0.007-0.167h0.007zM28.822 21.311c-0.733 1.663-1.796 3.169-3.099 4.412s-2.844 2.225-4.508 2.868c-1.663 0.646-3.447 0.952-5.215 0.909-1.769-0.041-3.519-0.429-5.119-1.14-1.602-0.708-3.053-1.734-4.25-2.991s-2.141-2.743-2.76-4.346c-0.621-1.603-0.913-3.319-0.871-5.024 0.041-1.705 0.417-3.388 1.102-4.928 0.683-1.541 1.672-2.937 2.883-4.088s2.642-2.058 4.184-2.652c1.542-0.596 3.192-0.875 4.832-0.833 1.641 0.041 3.257 0.404 4.736 1.064 1.48 0.658 2.82 1.609 3.926 2.774s1.975 2.54 2.543 4.021c0.57 1.481 0.837 3.064 0.794 4.641h0.007c-0.005 0.055-0.007 0.11-0.007 0.167 0 1.032 0.781 1.88 1.784 1.988-0.195 1.088-0.517 2.151-0.962 3.156z"></path>
</symbol>
<symbol id="icon-Casa" viewBox="0 0 32 32">
<path d="M32 18.451l-16-12.42-16 12.42v-5.064l16-12.42 16 12.42zM28 18v12h-8v-8h-8v8h-8v-12l12-9z"></path>
</symbol>
<symbol id="icon-Apartamento" viewBox="0 0 32 32">
<path d="M0 32h16v-32h-16v32zM10 4h4v4h-4v-4zM10 12h4v4h-4v-4zM10 20h4v4h-4v-4zM2 4h4v4h-4v-4zM2 12h4v4h-4v-4zM2 20h4v4h-4v-4zM18 10h14v2h-14zM18 32h4v-8h6v8h4v-18h-14z"></path>
</symbol>
<symbol id="icon-pencil" viewBox="0 0 32 32">
<path d="M27 0c2.761 0 5 2.239 5 5 0 1.126-0.372 2.164-1 3l-2 2-7-7 2-2c0.836-0.628 1.874-1 3-1zM2 23l-2 9 9-2 18.5-18.5-7-7-18.5 18.5zM22.362 11.362l-14 14-1.724-1.724 14-14 1.724 1.724z"></path>
</symbol>
<symbol id="icon-menu" viewBox="0 0 32 32">
<path d="M28 4v26h-21c-1.657 0-3-1.343-3-3s1.343-3 3-3h19v-24h-20c-2.2 0-4 1.8-4 4v24c0 2.2 1.8 4 4 4h24v-28h-2z"></path>
<path d="M7.002 26v0c-0.001 0-0.001 0-0.002 0-0.552 0-1 0.448-1 1s0.448 1 1 1c0.001 0 0.001-0 0.002-0v0h18.997v-2h-18.997z"></path>
</symbol>
<symbol id="icon-phone" viewBox="0 0 32 32">
<path d="M22 20c-2 2-2 4-4 4s-4-2-6-4-4-4-4-6 2-2 4-4-4-8-6-8-6 6-6 6c0 4 4.109 12.109 8 16s12 8 16 8c0 0 6-4 6-6s-6-8-8-6z"></path>
</symbol>
<symbol id="icon-user" viewBox="0 0 24 24">
<path d="M21 21v-2c0-1.38-0.561-2.632-1.464-3.536s-2.156-1.464-3.536-1.464h-8c-1.38 0-2.632 0.561-3.536 1.464s-1.464 2.156-1.464 3.536v2c0 0.552 0.448 1 1 1s1-0.448 1-1v-2c0-0.829 0.335-1.577 0.879-2.121s1.292-0.879 2.121-0.879h8c0.829 0 1.577 0.335 2.121 0.879s0.879 1.292 0.879 2.121v2c0 0.552 0.448 1 1 1s1-0.448 1-1zM17 7c0-1.38-0.561-2.632-1.464-3.536s-2.156-1.464-3.536-1.464-2.632 0.561-3.536 1.464-1.464 2.156-1.464 3.536 0.561 2.632 1.464 3.536 2.156 1.464 3.536 1.464 2.632-0.561 3.536-1.464 1.464-2.156 1.464-3.536zM15 7c0 0.829-0.335 1.577-0.879 2.121s-1.292 0.879-2.121 0.879-1.577-0.335-2.121-0.879-0.879-1.292-0.879-2.121 0.335-1.577 0.879-2.121 1.292-0.879 2.121-0.879 1.577 0.335 2.121 0.879 0.879 1.292 0.879 2.121z"></path>
</symbol>
<symbol id="icon-spoon-knife" viewBox="0 0 32 32">
<path d="M7 0c-3.314 0-6 3.134-6 7 0 3.31 1.969 6.083 4.616 6.812l-0.993 16.191c-0.067 1.098 0.778 1.996 1.878 1.996h1c1.1 0 1.945-0.898 1.878-1.996l-0.993-16.191c2.646-0.729 4.616-3.502 4.616-6.812 0-3.866-2.686-7-6-7zM27.167 0l-1.667 10h-1.25l-0.833-10h-0.833l-0.833 10h-1.25l-1.667-10h-0.833v13c0 0.552 0.448 1 1 1h2.604l-0.982 16.004c-0.067 1.098 0.778 1.996 1.878 1.996h1c1.1 0 1.945-0.898 1.878-1.996l-0.982-16.004h2.604c0.552 0 1-0.448 1-1v-13h-0.833z"></path>
</symbol>
<symbol id="icon-trash" viewBox="0 0 32 32">
<path d="M4 10v20c0 1.1 0.9 2 2 2h18c1.1 0 2-0.9 2-2v-20h-22zM10 28h-2v-14h2v14zM14 28h-2v-14h2v14zM18 28h-2v-14h2v14zM22 28h-2v-14h2v14z"></path>
<path d="M26.5 4h-6.5v-2.5c0-0.825-0.675-1.5-1.5-1.5h-7c-0.825 0-1.5 0.675-1.5 1.5v2.5h-6.5c-0.825 0-1.5 0.675-1.5 1.5v2.5h26v-2.5c0-0.825-0.675-1.5-1.5-1.5zM18 4h-6v-1.975h6v1.975z"></path>
</symbol>
<symbol id="icon-plus" viewBox="0 0 32 32">
<path d="M31 12h-11v-11c0-0.552-0.448-1-1-1h-6c-0.552 0-1 0.448-1 1v11h-11c-0.552 0-1 0.448-1 1v6c0 0.552 0.448 1 1 1h11v11c0 0.552 0.448 1 1 1h6c0.552 0 1-0.448 1-1v-11h11c0.552 0 1-0.448 1-1v-6c0-0.552-0.448-1-1-1z"></path>
</symbol>
<symbol id="icon-minus" viewBox="0 0 32 32">
<path d="M0 13v6c0 0.552 0.448 1 1 1h30c0.552 0 1-0.448 1-1v-6c0-0.552-0.448-1-1-1h-30c-0.552 0-1 0.448-1 1z"></path>
</symbol>
<symbol id="icon-error" viewBox="0 0 32 32">
<path d="M31.708 25.708c-0-0-0-0-0-0l-9.708-9.708 9.708-9.708c0-0 0-0 0-0 0.105-0.105 0.18-0.227 0.229-0.357 0.133-0.356 0.057-0.771-0.229-1.057l-4.586-4.586c-0.286-0.286-0.702-0.361-1.057-0.229-0.13 0.048-0.252 0.124-0.357 0.228 0 0-0 0-0 0l-9.708 9.708-9.708-9.708c-0-0-0-0-0-0-0.105-0.104-0.227-0.18-0.357-0.228-0.356-0.133-0.771-0.057-1.057 0.229l-4.586 4.586c-0.286 0.286-0.361 0.702-0.229 1.057 0.049 0.13 0.124 0.252 0.229 0.357 0 0 0 0 0 0l9.708 9.708-9.708 9.708c-0 0-0 0-0 0-0.104 0.105-0.18 0.227-0.229 0.357-0.133 0.355-0.057 0.771 0.229 1.057l4.586 4.586c0.286 0.286 0.702 0.361 1.057 0.229 0.13-0.049 0.252-0.124 0.357-0.229 0-0 0-0 0-0l9.708-9.708 9.708 9.708c0 0 0 0 0 0 0.105 0.105 0.227 0.18 0.357 0.229 0.356 0.133 0.771 0.057 1.057-0.229l4.586-4.586c0.286-0.286 0.362-0.702 0.229-1.057-0.049-0.13-0.124-0.252-0.229-0.357z"></path>
</symbol>
<symbol id="icon-success" viewBox="0 0 32 32">
<path d="M27 4l-15 15-7-7-5 5 12 12 20-20z"></path>
</symbol>
<symbol id="icon-enter" viewBox="0 0 32 32">
<path d="M12 16h-10v-4h10v-4l6 6-6 6zM32 0v26l-12 6v-6h-12v-8h2v6h10v-18l8-4h-18v8h-2v-10z"></path>
</symbol>
<symbol id="icon-exit" viewBox="0 0 32 32">
<path d="M24 20v-4h-10v-4h10v-4l6 6zM22 18v8h-10v6l-12-6v-26h22v10h-2v-8h-16l8 4v18h8v-6z"></path>
</symbol>
<symbol id="icon-arrow-right" viewBox="0 0 32 32">
<path d="M19.414 27.414l10-10c0.781-0.781 0.781-2.047 0-2.828l-10-10c-0.781-0.781-2.047-0.781-2.828 0s-0.781 2.047 0 2.828l6.586 6.586h-19.172c-1.105 0-2 0.895-2 2s0.895 2 2 2h19.172l-6.586 6.586c-0.39 0.39-0.586 0.902-0.586 1.414s0.195 1.024 0.586 1.414c0.781 0.781 2.047 0.781 2.828 0z"></path>
</symbol>
<symbol id="icon-whatsapp" viewBox="0 0 32 32">
<path d="M27.281 4.65c-2.994-3-6.975-4.65-11.219-4.65-8.738 0-15.85 7.112-15.85 15.856 0 2.794 0.731 5.525 2.119 7.925l-2.25 8.219 8.406-2.206c2.319 1.262 4.925 1.931 7.575 1.931h0.006c0 0 0 0 0 0 8.738 0 15.856-7.113 15.856-15.856 0-4.238-1.65-8.219-4.644-11.219zM16.069 29.050v0c-2.369 0-4.688-0.637-6.713-1.837l-0.481-0.288-4.987 1.306 1.331-4.863-0.313-0.5c-1.325-2.094-2.019-4.519-2.019-7.012 0-7.269 5.912-13.181 13.188-13.181 3.519 0 6.831 1.375 9.319 3.862 2.488 2.494 3.856 5.8 3.856 9.325-0.006 7.275-5.919 13.188-13.181 13.188zM23.294 19.175c-0.394-0.2-2.344-1.156-2.706-1.288s-0.625-0.2-0.894 0.2c-0.262 0.394-1.025 1.288-1.256 1.556-0.231 0.262-0.462 0.3-0.856 0.1s-1.675-0.619-3.188-1.969c-1.175-1.050-1.975-2.35-2.206-2.744s-0.025-0.613 0.175-0.806c0.181-0.175 0.394-0.463 0.594-0.694s0.262-0.394 0.394-0.662c0.131-0.262 0.069-0.494-0.031-0.694s-0.894-2.15-1.219-2.944c-0.319-0.775-0.65-0.669-0.894-0.681-0.231-0.012-0.494-0.012-0.756-0.012s-0.694 0.1-1.056 0.494c-0.363 0.394-1.387 1.356-1.387 3.306s1.419 3.831 1.619 4.1c0.2 0.262 2.794 4.269 6.769 5.981 0.944 0.406 1.681 0.65 2.256 0.837 0.95 0.3 1.813 0.256 2.494 0.156 0.762-0.113 2.344-0.956 2.675-1.881s0.331-1.719 0.231-1.881c-0.094-0.175-0.356-0.275-0.756-0.475z"></path>
</symbol>
<symbol id="icon-shopping-cart" viewBox="0 0 32 32">
<path d="M4 2h16l-3 9h-13c-0.552 0-1 0.448-1 1s0.448 1 1 1v0h13v2h-13c-1.657 0-3-1.343-3-3s1.343-3 3-3v0h0.33l-1.33-4-1-3h-2v-2h3c0.552 0 1 0.448 1 1v0 1zM5 20c-1.105 0-2-0.895-2-2s0.895-2 2-2v0c1.105 0 2 0.895 2 2s-0.895 2-2 2v0zM15 20c-1.105 0-2-0.895-2-2s0.895-2 2-2v0c1.105 0 2 0.895 2 2s-0.895 2-2 2v0z"></path>
</symbol>
<symbol id="icon-email" viewBox="0 0 38 32">
<path d="M20.060 0.413c-0.58-0.533-1.539-0.533-2.119 0l-17.688 10.671c-0.15 0.091-0.242 0.253-0.242 0.428v18.922c0 0.863 0.706 1.566 1.574 1.566h34.83c0.868 0 1.574-0.703 1.574-1.566v-18.922c0-0.175-0.092-0.337-0.242-0.428l-17.687-10.671zM18.504 1.24c0.035-0.021 0.066-0.046 0.095-0.074 0.108-0.107 0.25-0.166 0.401-0.166s0.293 0.059 0.4 0.166c0.029 0.028 0.061 0.053 0.095 0.074l17.227 10.394-12.478 7.436c-0.237 0.142-0.315 0.448-0.174 0.686 0.094 0.157 0.26 0.244 0.43 0.244 0.087 0 0.175-0.022 0.255-0.070l12.245-7.29v17.757l-16.935-11.266c-0.538-0.429-1.594-0.429-2.096-0.025l-16.969 11.286v-17.752l12.244 7.29c0.080 0.048 0.169 0.070 0.256 0.070 0.17 0 0.336-0.087 0.43-0.244 0.141-0.237 0.063-0.544-0.174-0.686l-12.479-7.436 17.227-10.394zM36.090 31h-34.188l16.656-11.086c0.173-0.138 0.712-0.137 0.919 0.025l16.613 11.061zM6.5 13h25c0.276 0 0.5-0.224 0.5-0.5s-0.224-0.5-0.5-0.5h-25c-0.276 0-0.5 0.224-0.5 0.5s0.224 0.5 0.5 0.5z"></path>
</symbol>
<symbol id="icon-all" viewBox="0 0 32 32">
<path d="M26.631 4h4.869c0.276 0 0.5-0.224 0.5-0.5s-0.224-0.5-0.5-0.5h-6c-0.276 0-0.5 0.224-0.5 0.5v6c0 0.276 0.224 0.5 0.5 0.5s0.5-0.224 0.5-0.5v-4.717l0.611 0.611c2.833 2.833 4.394 6.6 4.394 10.606s-1.561 7.773-4.394 10.606c-4.205 4.206-10.504 5.532-16.051 3.375-0.257-0.102-0.547 0.027-0.647 0.284-0.1 0.258 0.027 0.548 0.285 0.647 1.884 0.732 3.848 1.088 5.797 1.088 4.17 0 8.266-1.63 11.323-4.688 3.022-3.021 4.687-7.040 4.687-11.313s-1.665-8.291-4.687-11.312l-0.687-0.687zM6.5 22c-0.276 0-0.5 0.224-0.5 0.5v4.84l-0.713-0.713c-2.833-2.833-4.394-6.6-4.394-10.606s1.561-7.774 4.394-10.607c4.135-4.136 10.351-5.495 15.836-3.456 0.256 0.096 0.546-0.035 0.643-0.295 0.096-0.259-0.036-0.547-0.295-0.643-5.849-2.172-12.48-0.725-16.891 3.687-3.022 3.021-4.687 7.040-4.687 11.313s1.665 8.292 4.687 11.313l0.666 0.667h-4.746c-0.276 0-0.5 0.224-0.5 0.5s0.224 0.5 0.5 0.5h5.856c0.040 0.010 0.376-0.025 0.474-0.123 0.004-0.004 0.005-0.009 0.009-0.013 0.098-0.092 0.161-0.219 0.161-0.364v-6c0-0.276-0.224-0.5-0.5-0.5z"></path>
</symbol>
<symbol id="icon-time" viewBox="0 0 32 32">
<path d="M16 3.5c-7.181 0-13 5.82-13 13s5.819 13 13 13c7.179 0 13-5.82 13-13s-5.82-13-13-13zM15.895 27.027c-5.799 0-10.5-4.701-10.5-10.5s4.701-10.5 10.5-10.5c5.798 0 10.5 4.701 10.5 10.5s-4.702 10.5-10.5 10.5zM18.93 17.131h-2.98v-5.032c0-0.546-0.443-0.99-0.989-0.99s-0.99 0.443-0.99 0.99v6.021c0 0.547 0.443 0.989 0.99 0.989h3.969c0.547 0 0.99-0.442 0.99-0.989 0-0.546-0.443-0.989-0.99-0.989z"></path>
</symbol>
<symbol id="icon-cog" viewBox="0 0 32 32">
<path d="M30.391 12.68l-3.064-0.614c-0.154-0.443-0.336-0.873-0.537-1.289l1.736-2.604c0.529-0.793 0.424-1.85-0.25-2.523l-1.924-1.924c-0.387-0.387-0.898-0.586-1.416-0.586-0.383 0-0.77 0.11-1.107 0.336l-2.604 1.735c-0.418-0.202-0.848-0.382-1.291-0.536l-0.614-3.065c-0.186-0.936-1.008-1.608-1.961-1.608h-2.72c-0.953 0-1.774 0.673-1.961 1.608l-0.614 3.065c-0.443 0.154-0.873 0.335-1.289 0.536l-2.603-1.735c-0.339-0.226-0.725-0.336-1.109-0.336-0.517 0-1.028 0.199-1.415 0.586l-1.923 1.924c-0.674 0.674-0.779 1.73-0.25 2.523l1.735 2.604c-0.202 0.417-0.382 0.847-0.536 1.29l-3.066 0.613c-0.935 0.187-1.608 1.008-1.608 1.961v2.72c0 0.953 0.673 1.775 1.608 1.961l3.065 0.615c0.154 0.443 0.335 0.873 0.536 1.289l-1.734 2.604c-0.529 0.793-0.424 1.85 0.25 2.523l1.924 1.924c0.387 0.387 0.898 0.586 1.415 0.586 0.384 0 0.771-0.111 1.108-0.336l2.604-1.736c0.417 0.203 0.847 0.383 1.29 0.537l0.613 3.064c0.187 0.936 1.008 1.609 1.961 1.609h2.72c0.953 0 1.775-0.674 1.961-1.609l0.615-3.064c0.443-0.154 0.873-0.336 1.289-0.537l2.604 1.736c0.338 0.225 0.725 0.336 1.107 0.336 0.518 0 1.029-0.199 1.416-0.586l1.924-1.924c0.674-0.674 0.779-1.73 0.25-2.523l-1.736-2.604c0.203-0.418 0.383-0.848 0.537-1.291l3.064-0.613c0.935-0.185 1.609-1.008 1.609-1.961v-2.72c0-0.953-0.674-1.774-1.609-1.961zM26.934 17.975c-0.695 0.139-1.264 0.635-1.496 1.305-0.129 0.369-0.279 0.727-0.447 1.074-0.311 0.639-0.258 1.393 0.135 1.982l1.736 2.604-1.924 1.924-2.604-1.736c-0.334-0.223-0.721-0.336-1.109-0.336-0.297 0-0.596 0.066-0.871 0.199-0.348 0.168-0.705 0.32-1.076 0.449-0.668 0.232-1.164 0.801-1.303 1.496l-0.615 3.066h-2.72l-0.613-3.066c-0.139-0.695-0.635-1.264-1.304-1.496-0.369-0.129-0.728-0.279-1.075-0.447-0.276-0.135-0.574-0.201-0.872-0.201-0.389 0-0.775 0.113-1.109 0.336l-2.604 1.736-1.924-1.924 1.735-2.604c0.393-0.59 0.444-1.344 0.137-1.98-0.168-0.348-0.319-0.705-0.448-1.076-0.232-0.668-0.802-1.164-1.496-1.303l-3.065-0.615-0.002-2.721 3.066-0.613c0.694-0.139 1.264-0.635 1.496-1.304 0.129-0.369 0.278-0.728 0.447-1.075 0.31-0.638 0.258-1.392-0.136-1.981l-1.734-2.604 1.923-1.924 2.604 1.735c0.334 0.223 0.721 0.336 1.109 0.336 0.297 0 0.595-0.066 0.871-0.199 0.347-0.168 0.705-0.319 1.075-0.448 0.669-0.232 1.165-0.802 1.304-1.496l0.614-3.065 2.72-0.001 0.613 3.066c0.139 0.694 0.635 1.264 1.305 1.496 0.369 0.129 0.727 0.278 1.074 0.447 0.277 0.134 0.574 0.2 0.873 0.2 0.389 0 0.775-0.113 1.109-0.336l2.604-1.735 1.924 1.924-1.736 2.604c-0.393 0.59-0.443 1.343-0.137 1.98 0.168 0.347 0.32 0.705 0.449 1.075 0.232 0.669 0.801 1.165 1.496 1.304l3.064 0.614 0.003 2.72-3.066 0.614zM16 9.001c-3.865 0-7 3.135-7 7 0 3.866 3.135 7 7 7s7-3.135 7-7c0-3.865-3.135-7-7-7zM16 22.127c-3.382 0-6.125-2.744-6.125-6.125s2.743-6.125 6.125-6.125c3.381 0 6.125 2.743 6.125 6.125 0 3.381-2.744 6.125-6.125 6.125zM16 12.001c-2.21 0-4 1.79-4 4s1.79 4 4 4c2.209 0 4-1.791 4-4s-1.791-4-4-4zM16 19.002c-1.656 0-3-1.344-3-3s1.344-3 3-3 3 1.344 3 3c0 1.656-1.344 3-3 3z"></path>
</symbol>
<symbol id="icon-location" viewBox="0 0 32 32">
<path d="M16.002 17.746c3.309 0 6-2.692 6-6s-2.691-6-6-6c-3.309 0-6 2.691-6 6s2.691 6 6 6zM16.002 6.746c2.758 0 5 2.242 5 5s-2.242 5-5 5c-2.758 0-5-2.242-5-5s2.242-5 5-5zM16 0c-6.618 0-12 5.316-12 12.001 0 7 6.001 14.161 10.376 19.194 0.016 0.020 0.718 0.805 1.586 0.805 0.002 0 0.073 0 0.077 0 0.867 0 1.57-0.785 1.586-0.805 4.377-5.033 10.377-12.193 10.377-19.194 0-6.685-5.383-12.001-12.002-12.001zM16.117 29.883c-0.021 0.020-0.082 0.064-0.135 0.098-0.010-0.027-0.084-0.086-0.129-0.133-3.665-4.217-9.853-11.334-9.853-17.847 0-5.514 4.487-10.001 10-10.001 5.516 0 10.002 4.487 10.002 10.002 0 6.512-6.188 13.629-9.885 17.881z"></path>
</symbol>
<symbol id="icon-register" viewBox="0 0 24 24">
<path d="M8 16.5v0.5c1.691-2.578 3.6-3.953 6-4 0 1.045 0 2.838 0 3 0 0.551 0.511 1 1.143 1 0.364 0 0.675-0.158 0.883-0.391 1.933-2.029 5.974-6.109 5.974-6.109s-4.041-4.082-5.975-6.137c-0.208-0.205-0.518-0.363-0.882-0.363-0.632 0-1.143 0.447-1.143 1 0 0.168 0 1.877 0 3-4.66 0-6 4.871-6 8.5z"></path>
<path d="M5 21h14c0.553 0 1-0.448 1-1v-6.046c-0.664 0.676-1.364 1.393-2 2.047v2.999h-12v-12h7v-2h-8c-0.553 0-1 0.448-1 1v14c0 0.552 0.447 1 1 1z"></path>
</symbol>
<symbol id="icon-food" viewBox="0 0 32 32">
<path d="M29.5 21h-2.691c-0.045-0.239-0.1-0.473-0.16-0.706l4.799-2.399c0.494-0.247 0.693-0.848 0.447-1.342-0.248-0.494-0.846-0.692-1.342-0.447l-4.578 2.288c-1.746-3.768-5.555-6.394-9.975-6.394-5.382 0-9.865 3.888-10.809 9h-2.691c-1.378 0-2.5 1.121-2.5 2.5 0 0.49 0.18 0.963 0.505 1.329l3.495 3.932v0.739c0 1.379 1.122 2.5 2.5 2.5h19c1.379 0 2.5-1.121 2.5-2.5v-0.739l3.494-3.932c0.326-0.366 0.506-0.839 0.506-1.329 0-1.379-1.121-2.5-2.5-2.5zM25.799 21h-0.562l0.498-0.25c0.019 0.084 0.046 0.165 0.064 0.25zM16 13c4.029 0 7.5 2.4 9.082 5.841l-0.891 0.445c-1.416-3.115-4.546-5.286-8.191-5.286-4.282 0-7.859 2.993-8.77 7h-1.028c0.929-4.559 4.969-8 9.798-8zM20.576 21c-0.773-1.763-2.531-3-4.576-3s-3.802 1.237-4.576 3h-1.074c0.826-2.326 3.043-4 5.65-4 2.465 0 4.588 1.496 5.508 3.627l-0.932 0.373zM16 20c-0.883 0-1.67 0.391-2.22 1h-1.224c0.694-1.189 1.97-2 3.444-2 1.473 0 2.75 0.811 3.443 2h-1.225c-0.548-0.609-1.335-1-2.218-1zM16 16c-3.165 0-5.842 2.112-6.705 5h-1.032c0.892-3.444 4.017-6 7.737-6 3.246 0 6.043 1.948 7.295 4.734l-0.893 0.446c-1.088-2.457-3.547-4.18-6.402-4.18zM26 28v1.5c0 0.276-0.225 0.5-0.5 0.5h-19c-0.276 0-0.5-0.224-0.5-0.5v-1.5l-4-4.5c0-0.276 0.224-0.5 0.5-0.5h27c0.275 0 0.5 0.224 0.5 0.5l-4 4.5zM7.977 11.712c-0.007-0.014-0.012-0.027-0.018-0.042-0.519-1.253-0.003-2.482 0.463-3.591 0.441-1.052 0.832-1.984 0.428-2.893-0.002-0.004-0.003-0.008-0.005-0.012-0.001-0.003-0.002-0.006-0.003-0.009-0.001-0.002-0.001-0.004-0.001-0.006-0.020-0.053-0.032-0.109-0.032-0.169 0-0.27 0.219-0.49 0.49-0.49 0.208 0 0.385 0.13 0.456 0.313 0.558 1.271 0.051 2.521-0.422 3.647-0.438 1.042-0.794 2.010-0.419 2.892 0.002 0.007 0.002 0.013 0 0.020 0.011 0.040 0.018 0.082 0.018 0.125 0 0.277-0.225 0.503-0.502 0.503-0.194 0-0.36-0.11-0.443-0.27-0.001 0-0.002 0-0.002 0-0.003-0.006-0.005-0.012-0.008-0.018zM20.154 11.566c-0.006-0.013-0.011-0.027-0.016-0.040-0.519-1.253-0.004-2.483 0.461-3.592 0.442-1.052 0.832-1.984 0.428-2.893 0-0.004-0.002-0.008-0.004-0.012s-0.002-0.006-0.004-0.009c0-0.002 0-0.004 0-0.006-0.019-0.053-0.033-0.109-0.033-0.169 0-0.27 0.22-0.49 0.49-0.49 0.209 0 0.385 0.129 0.457 0.313 0.558 1.271 0.051 2.521-0.422 3.647-0.438 1.042-0.793 2.010-0.42 2.892 0.004 0.007 0.004 0.013 0.002 0.020 0.010 0.040 0.018 0.082 0.018 0.125 0 0.277-0.227 0.503-0.504 0.503-0.193 0-0.359-0.111-0.443-0.271h-0.002c-0.002-0.006-0.004-0.012-0.008-0.018zM15.019 7.212c-0.007-0.014-0.012-0.027-0.019-0.041-0.52-1.253-0.004-2.483 0.462-3.592 0.441-1.052 0.832-1.984 0.428-2.893-0.001-0.004-0.003-0.008-0.004-0.012-0.001-0.003-0.002-0.006-0.003-0.009-0.001-0.002-0.001-0.004-0.001-0.006-0.020-0.053-0.032-0.109-0.032-0.169 0-0.27 0.22-0.49 0.49-0.49 0.209 0 0.385 0.13 0.457 0.314 0.558 1.271 0.051 2.521-0.422 3.647-0.438 1.042-0.794 2.010-0.419 2.892 0.002 0.007 0.002 0.013 0 0.020 0.011 0.040 0.018 0.082 0.018 0.125 0 0.277-0.225 0.503-0.502 0.503-0.193 0-0.359-0.111-0.443-0.271-0.001 0-0.002 0-0.002 0-0.003-0.006-0.005-0.012-0.008-0.018z"></path>
</symbol>
<symbol id="icon-Massas" viewBox="0 0 32 32">
<path d="M19.214 20.286c0.296 0 0.536-0.239 0.536-0.536 0-2.067-1.682-3.75-3.75-3.75-0.296 0-0.536 0.239-0.536 0.536s0.24 0.536 0.536 0.536c1.477 0 2.678 1.202 2.678 2.678 0 0.296 0.239 0.536 0.536 0.536z"></path>
<path d="M20.821 20.286c0.296 0 0.536-0.239 0.536-0.536 0-2.954-2.403-5.357-5.357-5.357-1.182 0-2.143 0.961-2.143 2.143 0 0.296 0.24 0.536 0.536 0.536s0.536-0.239 0.536-0.536c0-0.591 0.48-1.071 1.071-1.071 2.363 0 4.285 1.923 4.285 4.285 0 0.296 0.239 0.536 0.536 0.536z"></path>
<path d="M16 17.607c-0.296 0-0.536 0.239-0.536 0.536s0.24 0.536 0.536 0.536c0.591 0 1.071 0.48 1.071 1.071 0 0.296 0.24 0.536 0.536 0.536s0.536-0.239 0.536-0.536c0-1.182-0.962-2.143-2.143-2.143z"></path>
<path d="M22.428 20.286c0.296 0 0.536-0.239 0.536-0.536 0-3.84-3.124-6.964-6.964-6.964h-1.071c-1.477 0-2.678 1.202-2.678 2.678 0 0.296 0.24 0.536 0.536 0.536s0.536-0.239 0.536-0.536c0-0.886 0.721-1.607 1.607-1.607h1.071c3.249 0 5.893 2.644 5.893 5.892 0 0.296 0.239 0.536 0.536 0.536z"></path>
<path d="M8.501 7.965c0.296 0 0.536-0.239 0.536-0.536h2.678c0.872 0 1.64-0.425 2.129-1.071h15.013c0.886 0 1.607-0.721 1.607-1.607s-0.721-1.607-1.607-1.607h-15.013c-0.49-0.647-1.258-1.071-2.129-1.071h-2.678c0-0.296-0.24-0.536-0.536-0.536s-0.536 0.239-0.536 0.536v5.357c0 0.296 0.239 0.536 0.536 0.536zM28.857 4.215c0.295 0 0.536 0.24 0.536 0.536s-0.241 0.536-0.536 0.536h-14.518c0.035-0.173 0.054-0.352 0.054-0.536s-0.019-0.363-0.054-0.536h14.518zM11.715 3.144c0.538 0 1.012 0.268 1.304 0.675l0.077 0.131c0.072 0.123 0.125 0.249 0.162 0.377 0.003 0.009 0.006 0.018 0.009 0.028 0.036 0.13 0.055 0.262 0.055 0.396s-0.019 0.266-0.055 0.396c-0.003 0.010-0.006 0.018-0.009 0.028-0.037 0.128-0.091 0.254-0.162 0.377l-0.077 0.131c-0.292 0.407-0.766 0.675-1.304 0.675h-2.678v-1.070c0.389 0.001 1.043 0.001 2.143 0.001 0.296 0 0.536-0.239 0.536-0.536s-0.24-0.536-0.536-0.536c-1.101 0-1.755-0.001-2.143-0.001v-1.072h2.678z"></path>
<path d="M6.894 7.965c0.296 0 0.536-0.239 0.536-0.536v-5.357c0-0.296-0.24-0.536-0.536-0.536s-0.536 0.239-0.536 0.536v5.357c0 0.296 0.239 0.536 0.536 0.536z"></path>
<path d="M6.894 14.929c0.296 0 0.536-0.239 0.536-0.536v-5.357c0-0.296-0.24-0.536-0.536-0.536s-0.536 0.239-0.536 0.536v5.357c0 0.296 0.239 0.536 0.536 0.536z"></path>
<path d="M5.287 9.036c-0.296 0-0.536 0.239-0.536 0.536v5.357c0 0.296 0.24 0.536 0.536 0.536s0.536-0.239 0.536-0.536v-5.357c0-0.296-0.24-0.536-0.536-0.536z"></path>
<path d="M2.608 5.822c-0.296 0-0.536 0.239-0.536 0.536s0.24 0.536 0.536 0.536h2.143v1.226c0 0.296 0.24 0.536 0.536 0.536s0.536-0.239 0.536-0.536v-6.047c0-0.296-0.24-0.536-0.536-0.536s-0.536 0.239-0.536 0.536v0.536h-2.143c-0.296 0-0.536 0.239-0.536 0.536s0.24 0.536 0.536 0.536h2.143v0.536h-2.143c-0.296 0-0.536 0.239-0.536 0.536s0.24 0.536 0.536 0.536h2.143v0.536h-2.143z"></path>
<path d="M27.222 26.178c-0.272-2.999-2.797-5.357-5.865-5.357h-3.75c-0.296 0-0.536 0.239-0.536 0.536s0.24 0.536 0.536 0.536h3.75c2.477 0 4.522 1.879 4.79 4.285h-0.541c-0.265-2.111-2.067-3.75-4.248-3.75h-3.214c-0.296 0-0.536 0.239-0.536 0.536s0.24 0.536 0.536 0.536h3.214c1.589 0 2.909 1.161 3.166 2.678h-0.542c-0.249-1.221-1.331-2.143-2.624-2.143h-2.678c-0.296 0-0.536 0.239-0.536 0.536s0.24 0.536 0.536 0.536h2.678c0.697 0 1.287 0.449 1.508 1.071h-0.973c0-0.296-0.24-0.536-0.536-0.536h-2.678c-0.296 0-0.536 0.239-0.536 0.536h-0.545c-0.188-7.884-4.509-10.714-8.562-10.714h-0.536c-2.954 0-5.357 2.403-5.357 5.357v2.678c0 0.296 0.24 0.536 0.536 0.536s0.536-0.239 0.536-0.536v-2.678c0-2.363 1.923-4.285 4.285-4.285h0.536c5.33 0 7.352 4.883 7.492 9.642h-0.535c-0.15-5.715-2.727-9.107-6.957-9.107-2.068 0-3.75 1.683-3.75 3.75v0.536c0 0.296 0.24 0.536 0.536 0.536s0.536-0.239 0.536-0.536v-0.536c0-1.477 1.202-2.678 2.678-2.678 4.978 0 5.799 5.25 5.884 8.035h-0.535c-0.154-6.18-2.973-7.5-5.349-7.5-0.886 0-1.607 0.721-1.607 1.607 0 0.296 0.24 0.536 0.536 0.536s0.536-0.239 0.536-0.536c0-0.296 0.241-0.536 0.536-0.536 2.77 0 4.169 2.108 4.275 6.428h-0.525c0-0.296-0.24-0.536-0.536-0.536h-2.678c-0.296 0-0.536 0.239-0.536 0.536h-0.973c0.222-0.622 0.811-1.071 1.508-1.071h2.678c0.296 0 0.536-0.239 0.536-0.536s-0.24-0.536-0.536-0.536h-2.678c-1.293 0-2.375 0.922-2.624 2.143h-0.542c0.256-1.518 1.576-2.678 3.166-2.678h2.143c0.296 0 0.536-0.239 0.536-0.536s-0.24-0.536-0.536-0.536h-2.143c-2.181 0-3.983 1.639-4.248 3.75h-0.541c0.268-2.407 2.313-4.285 4.79-4.285h1.071c0.296 0 0.536-0.239 0.536-0.536s-0.24-0.536-0.536-0.536h-1.071c-3.068 0-5.594 2.358-5.865 5.357h-3.706l1.631 2.446c0.768 1.151 2.052 1.839 3.436 1.839h21.865c1.384 0 2.668-0.687 3.436-1.839l1.631-2.446h-4.778zM29.477 28.031c-0.568 0.853-1.52 1.362-2.544 1.362h-21.866c-1.025 0-1.976-0.509-2.545-1.362l-0.521-0.781h27.996l-0.521 0.781z"></path>
</symbol>
<symbol id="icon-Bebidas" viewBox="0 0 32 32">
<path d="M23.055 8.906c0.557 0 1.008 0.451 1.008 1.008l-1.827 20.093c0 0.557-0.451 1.008-1.008 1.008h-10.457c-0.557 0-1.008-0.451-1.008-1.008l-1.825-20.093c0-0.557 0.451-1.008 1.008-1.008h9.010l1.066-5.436 4.839-2.485-0.348 1.298-3.592 1.801-0.938 4.822h4.072zM17.514 15.961h4.029l-1.134 13.038h-8.818l-1.134-13.038h6.029l1.259-6.047h-8.8l1.826 20.093h10.456l1.827-20.093h-4.282l-1.258 6.047z"></path>
</symbol>
<symbol id="icon-Combos" viewBox="0 0 24 24">
<path d="M13.828 7.781q2.953 0.609 4.969 2.883t2.203 5.32h-18q0.188-3.047 2.203-5.32t4.969-2.883q-0.188-0.375-0.188-0.797 0-0.844 0.586-1.406t1.43-0.563 1.43 0.563 0.586 1.406q0 0.422-0.188 0.797zM2.016 17.016h19.969v1.969h-19.969v-1.969z"></path>
</symbol>
<symbol id="icon-Marmitas" viewBox="0 0 32 32">
<path d="M26.697 20.095l-0.605-0.157c-0.524 2.021-1.901 3.718-3.777 4.656l0.279 0.559c2.038-1.018 3.533-2.862 4.103-5.058z"></path>
<path d="M2.486 27.412h25.769v0.625h-25.769v-0.625z"></path>
<path d="M3.834 16.845c0.038-0.197 0.075-0.382 0.111-0.557l1.727 0.635 0.216-0.587-1.811-0.666c0.24-1.080 0.427-1.657 0.583-2.079 0.172-0.467 0.515-0.839 0.967-1.048s0.958-0.229 1.425-0.057c0.467 0.172 0.839 0.515 1.048 0.967s0.229 0.958 0.057 1.425c-0.022 0.060-0.055 0.14-0.096 0.236l-1.518-0.559-0.216 0.587 1.473 0.542c-0.23 0.484-0.546 1.116-0.905 1.797h-4.143v0.642c0 0.174 0.005 0.351 0.015 0.524 0.205 3.491 2.442 6.412 5.52 7.642h-5.801v0.625h25.769v-0.625h-5.802c3.241-1.296 5.536-4.468 5.536-8.166v-0.050c0.399-0.064 0.778-0.22 1.111-0.46 0.568-0.409 0.942-1.015 1.054-1.705s-0.051-1.384-0.46-1.951c-0.29-0.403-0.686-0.706-1.131-0.889 0.157-0.225 0.257-0.489 0.282-0.765 0.014-0.152 0.006-0.307-0.025-0.46-0.174-0.857-1.013-1.413-1.87-1.239-0.148 0.030-0.29 0.081-0.421 0.149-0.002-0.015-0.004-0.030-0.007-0.045-0.143-0.838-0.604-1.57-1.298-2.061-1.432-1.014-3.422-0.674-4.436 0.758-0.163 0.23-0.292 0.478-0.386 0.737-1.414-0.344-2.864 0.489-3.269 1.899-0.176 0.613-0.132 1.272 0.125 1.855l0.572-0.252c-0.198-0.449-0.232-0.957-0.096-1.43 0.155-0.541 0.512-0.989 1.004-1.261 0.463-0.257 0.995-0.329 1.507-0.206-0.11 0.697 0.011 1.426 0.368 2.061l0.545-0.307c-0.483-0.858-0.428-1.931 0.141-2.734 0.395-0.557 0.983-0.928 1.656-1.043s1.351 0.039 1.908 0.434c0.557 0.395 0.928 0.983 1.043 1.656s-0.039 1.351-0.434 1.908l0.51 0.361c0.334-0.471 0.529-1.012 0.575-1.573 0.137-0.149 0.316-0.252 0.517-0.293 0.52-0.105 1.028 0.231 1.133 0.75 0.019 0.093 0.024 0.187 0.015 0.279-0.023 0.249-0.146 0.483-0.335 0.645-0.262-0.033-0.53-0.028-0.796 0.021l0.113 0.615c0.756-0.139 1.534 0.174 1.982 0.796 0.643 0.892 0.44 2.141-0.453 2.784-0.333 0.24-0.726 0.37-1.136 0.375h-3.434c0.938-1.369 1.728-1.441 1.737-1.442l-0.006 0-0.018-0.625c-0.127 0.004-1.254 0.094-2.456 2.066h-0.156c0.011-0.101 0.018-0.203 0.020-0.306 0.014-0.89-0.323-1.73-0.947-2.364s-1.459-0.984-2.349-0.984c-0.556 0-1.107 0.141-1.593 0.409-0.143 0.079-0.294 0.154-0.449 0.222-0.794 0.35-1.633 0.491-2.426 0.407-0.066-0.007-0.133-0.010-0.2-0.011-0.729-0.609-1.555-1.133-2.195-1.503-0.013-0.699 0.049-1.403 0.185-2.094l0.073-0.373h-0.38c-0.175 0-0.623 0.040-0.995 0.412-0.036 0.036-0.069 0.073-0.1 0.111-0.031-0.039-0.064-0.076-0.1-0.111-0.372-0.372-0.82-0.412-0.995-0.412h-0.38l0.073 0.373c0.136 0.691 0.198 1.395 0.185 2.094-0.532 0.307-1.191 0.719-1.816 1.199 0.060-0.46-0.010-0.929-0.209-1.36-0.141-0.306-0.339-0.575-0.581-0.795 0.138-0.090 0.271-0.195 0.388-0.293 0.449-0.379 0.97-0.937 1.467-1.572s0.914-1.274 1.174-1.8c0.216-0.436 0.461-1.048 0.103-1.329-0.292-0.229-0.774-0.038-1.439 0.567 0.009-0.085 0.016-0.167 0.021-0.247 0.052-0.934-0.244-1.243-0.503-1.338-0.457-0.168-0.967 0.26-1.42 0.937-0.112-0.927-0.358-1.404-0.736-1.419-0.452-0.018-0.665 0.607-0.783 1.079-0.143 0.57-0.24 1.327-0.273 2.132s0.002 1.568 0.098 2.148c0.026 0.155 0.060 0.326 0.109 0.488-0.317 0.015-0.632 0.091-0.929 0.228-0.604 0.279-1.062 0.776-1.291 1.399-0.213 0.578-0.481 1.429-0.853 3.351l0.614 0.119zM8.478 15.709c0.233-0.223 0.489-0.438 0.754-0.641-0.408 0.672-0.689 1.455-0.689 2.286 0 0.043 0.002 0.085 0.002 0.128h-0.945c0.366-0.703 0.67-1.322 0.878-1.772zM13.103 16.496h-1.144v0.625h1.054c-0 0.122 0.009 0.242 0.027 0.361h-2.106c-0-0.043-0.001-0.085-0.001-0.128 0-1.445 0.397-2.65 0.719-3.322v0.090h0.001l-0-0.091c0.099-0.207 0.191-0.363 0.262-0.46 0.191 0.251 0.542 0.933 0.772 1.981l0.61-0.134c-0.121-0.551-0.294-1.083-0.493-1.526 0.496 0.286 1.108 0.668 1.688 1.105-0.466 0.174-0.87 0.5-1.141 0.938-0.109 0.175-0.193 0.365-0.25 0.562zM9.171 17.482c-0.001-0.043-0.002-0.085-0.002-0.128 0-1.237 0.739-2.249 1.179-2.743 0.215-0.24 0.427-0.438 0.624-0.598-0.040 0.094-0.077 0.188-0.111 0.28-0.206 0.546-0.551 1.671-0.551 3.061 0 0.043 0.001 0.085 0.001 0.128h-1.139zM27.364 18.124c0 4.503-3.663 8.166-8.166 8.166h-7.655c-4.318 0-7.899-3.373-8.152-7.679-0.010-0.161-0.014-0.325-0.014-0.487v-0.017l23.987 0.017zM18.461 17.124c0-0.847 0.69-1.537 1.537-1.537s1.537 0.689 1.537 1.537c0 0.122-0.016 0.241-0.044 0.358h-2.987c-0.028-0.116-0.044-0.236-0.044-0.358zM18.2 15.032c0.172-0.076 0.34-0.159 0.499-0.247 0.393-0.217 0.839-0.331 1.29-0.331 0.721 0 1.397 0.283 1.903 0.797s0.779 1.194 0.767 1.916c-0.002 0.106-0.010 0.212-0.024 0.316h-0.505c0.020-0.118 0.030-0.237 0.030-0.358 0-1.192-0.97-2.162-2.162-2.162s-2.162 0.97-2.162 2.162c0 0.121 0.010 0.24 0.030 0.358h-4.189c-0.029-0.132-0.043-0.268-0.038-0.406 0.008-0.286 0.093-0.567 0.245-0.811 0.287-0.464 0.78-0.757 1.317-0.782 0.087-0.004 0.173-0.002 0.256 0.007 0.901 0.095 1.85-0.063 2.744-0.457zM12.451 11.741c0.053-0.053 0.109-0.093 0.164-0.125-0.069 0.462-0.107 0.927-0.114 1.391-0.111-0.059-0.205-0.107-0.279-0.145v-0.568c0-0.209 0.081-0.406 0.229-0.553zM11.204 11.616c0.056 0.031 0.111 0.072 0.164 0.125 0.148 0.148 0.229 0.344 0.229 0.553v0.568c-0.074 0.037-0.168 0.086-0.279 0.145-0.007-0.464-0.045-0.929-0.114-1.391zM10.74 8.014c-0.117 0.368-0.512 1.138-1.29 2.132-0.191 0.244-0.375 0.462-0.548 0.656 0.152-0.303 0.29-0.626 0.409-0.949 0.095-0.258 0.177-0.515 0.246-0.766 0.547-0.607 0.954-0.934 1.184-1.073zM9.081 6.972c0.132 0.126 0.219 1.1-0.357 2.665s-1.273 2.251-1.456 2.261c-0.132-0.126-0.219-1.1 0.357-2.665s1.273-2.251 1.456-2.261zM6.71 9.138c0.051-1.261 0.25-2.104 0.399-2.46 0.087 0.263 0.188 0.796 0.208 1.654l0.003-0c-0.102 0.223-0.197 0.454-0.282 0.685-0.133 0.363-0.247 0.74-0.332 1.107-0.011-0.294-0.011-0.623 0.004-0.986z"></path>
<path d="M5.765 14.936l-0.826-0.304 0.216-0.587 0.826 0.304-0.216 0.587z"></path>
<path d="M28.149 16.397c-0.225 0.162-0.5 0.227-0.774 0.182l-0.1 0.617c0.090 0.015 0.181 0.022 0.271 0.022 0.346 0 0.683-0.108 0.969-0.314 0.361-0.26 0.599-0.645 0.67-1.083s-0.032-0.879-0.292-1.24l-0.507 0.365c0.162 0.225 0.227 0.5 0.182 0.774s-0.193 0.514-0.418 0.676z"></path>
<path d="M22.764 10.387l0.173-0.601c-0.716-0.206-1.467 0.209-1.673 0.926s0.209 1.467 0.926 1.673l0.173-0.601c-0.385-0.111-0.608-0.514-0.498-0.9s0.514-0.609 0.9-0.498z"></path>
<path d="M11.864 6.235h0.625v-0.774h0.774v-0.625h-0.774v-0.774h-0.625v0.774h-0.774v0.625h0.774z"></path>
<path d="M19.179 9.030h0.625v-0.774h0.774v-0.625h-0.774v-0.774h-0.625v0.774h-0.774v0.625h0.774z"></path>
<path d="M2.586 11.679h0.625v-0.774h0.774v-0.625h-0.774v-0.774h-0.625v0.774h-0.774v0.625h0.774z"></path>
</symbol>
<symbol id="icon-Carnes" viewBox="0 0 32 32">
<path d="M30.468 22.57h-0.65c0.092-0.504 0.14-1.017 0.14-1.532 0-4.711-3.833-8.544-8.545-8.544h-4.707c-4.541 0-8.265 3.56-8.529 8.036l-1.337 0.004-1.019-1.014c-0.418-0.418-0.974-0.648-1.565-0.648s-1.147 0.23-1.565 0.648c-0.418 0.418-0.648 0.974-0.648 1.565 0 0.554 0.202 1.078 0.572 1.485h-1.083c-0.845 0-1.532 0.687-1.532 1.532s0.687 1.532 1.532 1.532h0.653l0.372 1.117c0.427 1.282 1.821 2.287 3.173 2.287h20.539c1.352 0 2.745-1.005 3.173-2.287l0.372-1.117h0.653c0.845 0 1.532-0.687 1.532-1.532s-0.687-1.532-1.532-1.532zM28.936 21.038c0 0.516-0.054 1.030-0.159 1.532h-1.046c0.121-0.499 0.184-1.012 0.184-1.532 0-3.585-2.917-6.502-6.502-6.502-1.349 0-2.645 0.412-3.746 1.19-0.23 0.163-0.285 0.481-0.122 0.712s0.481 0.285 0.712 0.122c0.928-0.656 2.019-1.003 3.156-1.003 3.022 0 5.481 2.459 5.481 5.481 0 0.523-0.074 1.036-0.219 1.532h-10.524c-0.145-0.496-0.219-1.009-0.219-1.532 0-1.137 0.347-2.228 1.003-3.156 0.163-0.23 0.108-0.549-0.122-0.712s-0.549-0.108-0.712 0.122c-0.778 1.101-1.19 2.396-1.19 3.746 0 0.52 0.063 1.033 0.184 1.532h-1.046c-0.105-0.502-0.159-1.016-0.159-1.532 0-4.148 3.375-7.523 7.523-7.523s7.523 3.375 7.523 7.523zM9.182 21.039c0-4.149 3.375-7.524 7.523-7.524h0.659c-2.675 1.445-4.497 4.275-4.497 7.523 0 0.515 0.048 1.028 0.14 1.532h-3.825v-1.531zM3.413 20.242c0.225-0.225 0.524-0.349 0.842-0.349s0.617 0.124 0.844 0.35l1.17 1.164c0.096 0.096 0.226 0.151 0.362 0.149l1.53-0.005v1.019h-4.105l-0.643-0.643c-0.225-0.225-0.349-0.524-0.349-0.843s0.124-0.617 0.349-0.843zM30.468 24.613h-1.011c-0.002 0-22.819 0-22.819 0-0.282 0-0.511 0.229-0.511 0.511s0.229 0.511 0.511 0.511h22.1l-0.265 0.794c-0.287 0.861-1.296 1.589-2.204 1.589h-20.539c-0.908 0-1.917-0.727-2.204-1.589l-0.265-0.794h1.334c0.282 0 0.511-0.229 0.511-0.511s-0.229-0.511-0.511-0.511h-2.051c-0.002 0-1.012 0-1.012 0-0.282 0-0.511-0.229-0.511-0.511s0.229-0.511 0.511-0.511h28.936c0.282 0 0.511 0.229 0.511 0.511s-0.229 0.511-0.511 0.511z"></path>
<path d="M21.413 18.485c-1.408 0-2.553 1.145-2.553 2.553 0 0.282 0.229 0.511 0.511 0.511s0.511-0.229 0.511-0.511c0-0.845 0.687-1.532 1.532-1.532s1.532 0.687 1.532 1.532c0 0.282 0.229 0.511 0.511 0.511s0.511-0.229 0.511-0.511c0-1.408-1.145-2.553-2.553-2.553z"></path>
<path d="M14.298 9.089c0-0.806 0.208-1.187 0.448-1.628 0.268-0.492 0.573-1.050 0.573-2.117 0-1.064-0.303-1.622-0.572-2.114-0.086-0.16-0.255-0.269-0.45-0.269-0.282 0-0.511 0.229-0.511 0.511 0 0.089 0.023 0.173 0.063 0.245 0.24 0.441 0.448 0.821 0.448 1.627s-0.208 1.187-0.448 1.628c-0.268 0.492-0.573 1.050-0.573 2.117s0.304 1.624 0.573 2.117c0.093 0.17 0.268 0.266 0.449 0.266 0.083 0 0.166-0.020 0.244-0.062 0.248-0.135 0.339-0.445 0.204-0.693-0.24-0.441-0.448-0.822-0.448-1.628z"></path>
<path d="M17.702 9.089c0-0.806 0.208-1.187 0.448-1.628 0.268-0.492 0.573-1.050 0.573-2.117 0-1.064-0.303-1.622-0.572-2.114-0.086-0.16-0.255-0.269-0.45-0.269-0.282 0-0.511 0.229-0.511 0.511 0 0.089 0.023 0.173 0.063 0.245 0.24 0.441 0.448 0.821 0.448 1.627s-0.208 1.187-0.448 1.628c-0.268 0.492-0.573 1.050-0.573 2.117s0.304 1.624 0.573 2.117c0.093 0.17 0.268 0.266 0.449 0.266 0.083 0 0.166-0.020 0.244-0.062 0.248-0.135 0.339-0.445 0.204-0.693-0.24-0.441-0.448-0.822-0.448-1.628z"></path>
</symbol>
<symbol id="icon-Especial" viewBox="0 0 32 32">
<path d="M27.090 18.707c-0.469-0.258-1.002-0.15-1.518-0.045-0.266 0.055-0.539 0.108-0.791 0.108 0.546-1.153 1.521-2.135 2.798-2.812-0.009 0.057 0.002 0.119 0.034 0.173 0.074 0.123 0.233 0.164 0.357 0.090 0.309-0.184 0.41-0.569 0.233-0.876l-0.331-0.108c-0.616 0.273-1.176 0.61-1.673 0.998 0.036-0.361 0.049-1.162-0.41-1.853-0.405-0.609-1.059-0.953-1.456-1.119v-10.627c0-1.454-1.183-2.636-2.636-2.636h-18.168c-1.454 0-2.636 1.183-2.636 2.636v20.709l0.077 0.184 5.554 5.555 0.184 0.077h10.596c0.681 0.714 1.514 1.326 2.48 1.783 0.387 0.183 0.962 0.198 1.517 0.213 0.363 0.010 0.706 0.018 0.951 0.072 0.264 0.058 0.591 0.189 0.938 0.328 0.544 0.218 1.107 0.444 1.571 0.444 0.015 0 0.030 0 0.045-0.001 3.152-0.1 5.394-2.139 6.152-5.593 0.651-2.97-0.904-6.064-3.87-7.699zM24.332 18.509v-1.359c0.497-0.084 0.924-0.224 1.224-0.347-0.511 0.509-0.923 1.084-1.224 1.706zM21.811 15.834l-0.486 0.365c-0.335-0.204-0.612-0.419-0.81-0.591l1.296 0.225zM20.541 15.372c0.538-0.219 1.528-0.524 2.567-0.343 1.047 0.181 1.902 0.808 2.349 1.197l-4.916-0.854zM22.134 15.89l0.834 0.145-0.772 0.581c-0.229-0.083-0.445-0.18-0.644-0.288l0.583-0.438zM23.24 16.129c0.014-0.011 0.017-0.028 0.025-0.042l0.909 0.158-0.801 0.602c-0.17-0.006-0.343-0.019-0.519-0.049-0.131-0.023-0.258-0.055-0.383-0.090l0.769-0.579zM24.49 16.304c0.002-0.001 0.001-0.003 0.003-0.005l0.918 0.16c-0.374 0.152-0.962 0.341-1.635 0.383l0.714-0.538zM24.099 13.569c0.337 0.131 1 0.448 1.38 1.018 0.344 0.517 0.375 1.125 0.358 1.477-0.269-0.251-0.762-0.654-1.403-0.974-0.349-0.548-0.359-1.193-0.335-1.521zM6.447 28.271l-4.665-4.665h2.55c1.167 0 2.116 0.949 2.116 2.115v2.55zM6.969 28.639v-2.918c0-1.454-1.183-2.636-2.636-2.636h-2.918v-20.449c0-1.167 0.949-2.116 2.115-2.116h18.166c1.167 0 2.116 0.949 2.116 2.116v10.451l-0.013-0.004-0.039 0.198c-0.008 0.038-0.146 0.808 0.154 1.587-0.236-0.086-0.48-0.162-0.743-0.207-1.674-0.289-3.17 0.545-3.233 0.58l-0.201 0.114 0.154 0.172c0.041 0.045 0.859 0.931 2.085 1.402 0.024 0.031 0.059 0.047 0.096 0.047 0.004 0 0.008-0.004 0.013-0.004 0.224 0.080 0.457 0.149 0.706 0.192 0.247 0.043 0.49 0.060 0.725 0.060 0.101 0 0.198-0.009 0.296-0.016v1.303c-0.188-0.080-0.375-0.168-0.558-0.256-0.655-0.314-1.328-0.638-2.075-0.497-2.913 0.559-5.167 2.616-5.743 5.241-0.436 1.986 0.122 4.022 1.411 5.64h-9.879zM30.45 26.294c-0.413 1.882-1.697 5.058-5.66 5.184-0.388 0.017-0.895-0.201-1.406-0.405-0.367-0.146-0.713-0.286-1.019-0.353-0.294-0.065-0.661-0.075-1.049-0.085-0.478-0.012-1.020-0.027-1.308-0.163-3.028-1.432-4.698-4.458-4.062-7.361 0.54-2.458 2.583-4.313 5.333-4.841 0.089-0.017 0.177-0.025 0.267-0.025 0.485 0 0.973 0.234 1.485 0.48 0.429 0.206 0.872 0.419 1.365 0.527 0.429 0.095 0.863 0.006 1.282-0.080 0.443-0.090 0.861-0.176 1.162-0.009 2.762 1.523 4.213 4.389 3.611 7.131z"></path>
<path d="M26.563 19.862c-0.37-0.198-0.808-0.116-1.23-0.037-0.326 0.061-0.663 0.125-0.962 0.059-0.385-0.085-0.751-0.256-1.104-0.421-0.576-0.27-1.119-0.525-1.72-0.418-2.499 0.441-4.346 2.058-4.821 4.22-0.559 2.55 0.979 5.221 3.741 6.496 0.313 0.144 0.796 0.161 1.262 0.177 0.317 0.011 0.617 0.020 0.839 0.069 0.237 0.052 0.523 0.164 0.826 0.283 0.465 0.183 0.944 0.371 1.324 0.371 0.009 0 0.017 0 0.025-0.001 2.659-0.058 4.537-1.701 5.152-4.506 0.53-2.411-0.809-4.94-3.332-6.293zM29.664 26.104c-0.59 2.689-2.385 4.264-4.925 4.32-0.341 0.004-0.804-0.176-1.257-0.354-0.312-0.123-0.607-0.239-0.863-0.295-0.243-0.054-0.553-0.064-0.882-0.075-0.443-0.015-0.901-0.030-1.171-0.155-2.659-1.228-4.143-3.789-3.608-6.229 0.454-2.067 2.227-3.613 4.628-4.036 0.080-0.014 0.159-0.020 0.238-0.020 0.445 0 0.881 0.205 1.34 0.419 0.365 0.171 0.742 0.348 1.153 0.438 0.348 0.076 0.708 0.008 1.057-0.057 0.399-0.075 0.777-0.146 1.074 0.013 2.428 1.302 3.72 3.726 3.214 6.032z"></path>
<path d="M22.475 23.498l-0.109 0.011c-0.017 0.022-0.407 0.552-0.348 1.164s0.543 1.057 0.564 1.076l0.109-0.011c0.017-0.022 0.407-0.552 0.348-1.164s-0.543-1.058-0.564-1.077zM22.619 25.577c-0.128-0.137-0.413-0.487-0.455-0.918-0.041-0.43 0.172-0.829 0.271-0.988 0.128 0.137 0.413 0.487 0.455 0.919 0.041 0.43-0.172 0.829-0.271 0.988z"></path>
<path d="M24.428 23.911c-0.026 0.011-0.638 0.249-0.917 0.798v0.001c-0.277 0.549-0.105 1.184-0.098 1.211l0.099 0.050c0.026-0.011 0.638-0.249 0.916-0.798s0.105-1.184 0.099-1.211l-0.099-0.050zM24.295 25.105c-0.195 0.385-0.588 0.608-0.756 0.689-0.035-0.184-0.089-0.631 0.107-1.018 0.195-0.386 0.588-0.609 0.756-0.69 0.035 0.184 0.089 0.632-0.107 1.019z"></path>
<path d="M8.892 7.589c0.198-0.212 0.345-0.447 0.443-0.706s0.144-0.529 0.14-0.811c-0.005-0.278-0.058-0.541-0.161-0.79s-0.252-0.476-0.45-0.681c-0.197-0.205-0.458-0.368-0.782-0.488s-0.693-0.181-1.108-0.181h-1.965v4.352h1.965c0.419 0 0.795-0.063 1.126-0.19 0.33-0.126 0.594-0.295 0.792-0.506zM6.973 7.496h-1.028v-2.785h1.029c0.505 0 0.89 0.132 1.154 0.395s0.401 0.583 0.411 0.961c0.010 0.394-0.117 0.731-0.379 1.010s-0.657 0.42-1.186 0.42z"></path>
<path d="M10.182 3.933h0.936v4.352h-0.936v-4.352z"></path>
<path d="M15.735 7.477h-2.809v-0.983h2.709v-0.764h-2.709v-1.002h2.809v-0.795h-3.745v4.352h3.745z"></path>
<path d="M18.049 8.285h0.943v-3.606h1.587v-0.746h-4.116v0.746h1.586z"></path>
<path d="M7.841 11.726c0 0.082 0.067 0.149 0.149 0.149h12.829c0.082 0 0.149-0.067 0.149-0.149s-0.067-0.149-0.149-0.149h-12.829c-0.082 0-0.149 0.067-0.149 0.149z"></path>
<path d="M20.819 13.783h-12.83c-0.082 0-0.149 0.067-0.149 0.149s0.067 0.149 0.149 0.149h12.829c0.082 0 0.149-0.067 0.149-0.149s-0.066-0.149-0.148-0.149z"></path>
<path d="M18.913 15.989h-10.923c-0.082 0-0.149 0.067-0.149 0.149s0.067 0.149 0.149 0.149h10.923c0.082 0 0.149-0.067 0.149-0.149s-0.067-0.149-0.149-0.149z"></path>
<path d="M14.841 18.195h-6.988c-0.082 0-0.149 0.067-0.149 0.149s0.067 0.149 0.149 0.149h6.988c0.082 0 0.149-0.067 0.149-0.149s-0.067-0.149-0.149-0.149z"></path>
<path d="M14.841 20.401h-6.988c-0.082 0-0.149 0.067-0.149 0.149s0.067 0.149 0.149 0.149h6.988c0.082 0 0.149-0.067 0.149-0.149s-0.067-0.149-0.149-0.149z"></path>
<path d="M5.069 10.744l-0.149 0.149v1.227l0.149 0.149h1.228l0.149-0.149v-1.227l-0.149-0.149h-1.228zM6.149 11.972h-0.93v-0.93h0.93v0.93z"></path>
<path d="M5.069 13.028l-0.149 0.149v1.228l0.149 0.149h1.228l0.149-0.149v-1.228l-0.149-0.149h-1.228zM6.149 14.256h-0.93v-0.93h0.93v0.93z"></path>
<path d="M5.069 15.311l-0.149 0.149v1.228l0.149 0.149h1.228l0.149-0.149v-1.228l-0.149-0.149h-1.228zM6.149 16.539h-0.93v-0.93h0.93v0.93z"></path>
<path d="M5.069 17.549l-0.149 0.149v1.227l0.149 0.149h1.228l0.149-0.149v-1.227l-0.149-0.149h-1.228zM6.149 18.776h-0.93v-0.93h0.93v0.93z"></path>
<path d="M5.069 19.833l-0.149 0.149v1.227l0.149 0.149h1.228l0.149-0.149v-1.227l-0.149-0.149h-1.228zM6.149 21.060h-0.93v-0.93h0.93v0.93z"></path>
</symbol>
<symbol id="icon-house" viewBox="0 0 24 24">
<path d="M22.262 10.468c-3.39-2.854-9.546-8.171-9.607-8.225l-0.655-0.563-0.652 0.563c-0.062 0.053-6.221 5.368-9.66 8.248-0.438 0.394-0.688 0.945-0.688 1.509 0 1.104 0.896 2 2 2h1v6c0 1.104 0.896 2 2 2h12c1.104 0 2-0.896 2-2v-6h1c1.104 0 2-0.896 2-2 0-0.598-0.275-1.161-0.738-1.532zM14 20h-4v-5h4v5zM18 12l0.002 8c-0.002 0-3.002 0-3.002 0v-6h-6v6h-3v-8h-3.001c2.765-2.312 7.315-6.227 9.001-7.68 1.686 1.453 6.234 5.367 9 7.681 0 0-3 0-3-0.001z"></path>
</symbol>
<symbol id="icon-order" viewBox="0 0 32 32">
<path d="M24.471 1.883v1.656l-1.882 1.882v-1.656h-20.706v24.471h20.706v-7.304l1.882-1.882v11.068h-24.471v-28.235h24.471zM7.021 19.389c1.6-0.151 2.579 1.807 3.181 3.294 0.471 1.148 0.64 1.544 1.205 1.6s1.487-0.979 1.882-1.694c0.275-0.442 0.857-0.577 1.299-0.301s0.577 0.857 0.301 1.299c-0.151 0.282-1.544 2.673-3.426 2.673h-0.151c-1.167-0.075-2.033-0.809-2.824-2.767s-1.299-2.127-1.299-2.127c-0.822 1.046-1.396 2.323-1.613 3.719l-0.006 0.045c-0.109 0.52-0.619 0.853-1.139 0.744s-0.853-0.619-0.744-1.139c0.339-1.581 1.318-5.176 3.332-5.346zM11.294 11.295v1.882h-5.647v-1.882h5.647zM15.059 7.53v1.882h-9.412v-1.882h9.412z"></path>
<path d="M31.718 7.813l-3.765-3.765c-0.171-0.172-0.407-0.278-0.668-0.278s-0.498 0.106-0.668 0.278l-11.294 11.294c-0.163 0.169-0.264 0.399-0.264 0.653 0 0.002 0 0.004 0 0.006v-0 4.706h4.706c0.258-0.004 0.491-0.111 0.659-0.282l11.294-11.294c0.359-0.366 0.359-0.952 0-1.318zM19.369 18.825h-2.428v-2.428l7.529-7.529 2.428 2.428-7.529 7.529zM28.235 9.959l-2.428-2.428 1.487-1.487 2.428 2.428-1.487 1.487z"></path>
</symbol>
<symbol id="icon-create-recipe" viewBox="0 0 32 32">
<path d="M6.667 2.667c-0.667 0-1.467 0.267-1.867 0.8s-0.8 1.2-0.8 1.867v20c0 0.667 0.267 1.467 0.8 1.867s1.2 0.8 1.867 0.8h9.333v-2.667h-9.333v-20h16v13.333h2.667v-13.333c0-0.667-0.267-1.467-0.8-1.867s-1.2-0.8-1.867-0.8h-16zM22.667 21.333v4h-4v2.667h4v4h2.667v-4h4v-2.667h-4v-4h-2.667z"></path>
</symbol>
<symbol id="icon-edit-menu" viewBox="0 0 32 32">
<path d="M8 2.667c-2.267 0-4 1.733-4 4v18.667c0 2.267 1.733 4 4 4h5.333v-2.667h-5.333c-0.8 0-1.333-0.533-1.333-1.333v-18.667c0-0.8 0.533-1.333 1.333-1.333h13.333c0.8 0 1.333 0.533 1.333 1.333v10.133l2.667-2.667v-7.467c0-2.267-1.733-4-4-4h-13.333zM26.933 16c-0.133 0-0.4 0.133-0.533 0.267l-1.067 1.067 2.667 2.667 1.067-1.067c0.267-0.267 0.267-0.8 0-0.933l-1.733-1.733c0-0.267-0.267-0.267-0.4-0.267zM24.667 18l-8.667 8.667v2.667h2.667l8.667-8.667-2.667-2.667z"></path>
</symbol>
<symbol id="icon-warning" viewBox="0 0 32 32">
<path d="M16 2.909l-14.545 26.182h29.091zM16 5.818l11.636 21.818h-23.273z"></path>
<path d="M14.545 23.273h2.909v2.909h-2.909z"></path>
<path d="M14.545 21.818h2.909v-8.727h-2.909z"></path>
</symbol>
<symbol id="icon-delivery-moto" viewBox="0 0 32 32">
<path d="M5.185 20.765c-0.048 0.203-0.073 0.414-0.073 0.631 0 1.515 1.228 2.743 2.742 2.743 1.456 0 2.648-1.136 2.737-2.569l-0.926-0.137c-0.019 0.983-0.824 1.776-1.811 1.776-0.999 0-1.812-0.813-1.812-1.812 0-0.171 0.024-0.336 0.068-0.493l-0.926-0.138z"></path>
<path d="M24.138 20.689c-0.136-0.087-0.297-0.138-0.471-0.138-0.247 0-0.47 0.103-0.629 0.268-0.098 0.102-0.172 0.228-0.211 0.369-0.021 0.075-0.032 0.154-0.032 0.236 0 0.482 0.39 0.872 0.872 0.872s0.872-0.39 0.872-0.872c0-0.082-0.011-0.161-0.032-0.236-0.058-0.208-0.192-0.384-0.369-0.498z"></path>
<path d="M8.723 21.423c0-0.045-0.004-0.090-0.010-0.133l-1.647-0.245c-0.022 0.045-0.040 0.093-0.054 0.142-0.021 0.075-0.032 0.154-0.032 0.236 0 0.482 0.39 0.872 0.872 0.872s0.872-0.39 0.872-0.872z"></path>
<path d="M25.41 16.811c0.013-1.104-0.22-2.040-1.017-2.141-2.047-0.261-5.882-0.447-5.696 0.893s1.824 2.867 1.415 3.598c-0.41 0.731-6.254 0.683-7.148 0.162s-1.973-4.244-1.154-6.553c0.285-0.804 0.371-1.508 0.363-2.084h0.885c0.089 0.102 0.219 0.168 0.366 0.168h1.663c0.267 0 0.484-0.217 0.484-0.484s-0.217-0.484-0.484-0.484h-1.663c-0.146 0-0.277 0.065-0.366 0.168h-0.956c-0.078-0.265-0.227-0.499-0.424-0.681-0.066-0.060-0.136-0.115-0.212-0.163-0.143-0.785-0.639-1.349-1.244-1.349-0.721 0-1.286 0.8-1.286 1.82 0 0.873 0.414 1.585 0.985 1.772-0.295 0.387-0.686 0.821-1.2 1.307-1.811 1.706-2.103 3.803-2.084 5.067-0.824 0.342-1.48 1.039-1.751 1.927-0.071 0.232 0.082 0.473 0.322 0.508l5.512 0.82c0.238 0.035 0.456-0.148 0.456-0.389 0-0.002 0-0.003 0-0.005h9.878c-0.065 0.233-0.1 0.48-0.1 0.734 0 1.5 1.216 2.716 2.716 2.716s2.715-1.216 2.715-2.716c0-0.254-0.035-0.5-0.1-0.734h0.036c0.305 0 0.577-0.193 0.674-0.483 0.092-0.272 0.141-0.563 0.141-0.866 0-1.15-0.715-2.133-1.724-2.529zM10.429 10.672c-0.067 0.060-0.139 0.093-0.208 0.093-0.26 0-0.55-0.464-0.55-1.084s0.291-1.084 0.55-1.084c0.256 0 0.542 0.451 0.55 1.058 0 0.009 0 0.017 0 0.026 0 0.455-0.156 0.825-0.342 0.991zM23.667 23.214c-0.988 0-1.792-0.804-1.792-1.792 0-0.261 0.056-0.51 0.157-0.734h0.028c-0.005-0.009-0.010-0.018-0.015-0.027 0.287-0.608 0.906-1.031 1.622-1.031 0.483 0 0.921 0.192 1.244 0.503 0.163 0.157 0.296 0.345 0.39 0.554 0.101 0.224 0.157 0.473 0.157 0.734 0 0.988-0.804 1.792-1.791 1.792z"></path>
<path d="M14.42 19.12c0.539 0.054 1.24 0.093 2.074 0.093 1.785 0 2.892-0.184 3.182-0.329-0.001-0.046-0.017-0.145-0.095-0.327-0.102-0.237-0.269-0.518-0.447-0.816-1.046 0.775-2.669 0.601-3.564 0.661-0.656 0.044-0.984 0.387-1.149 0.718z"></path>
<path d="M24.645 14.21l-0.37-0.504c-0.237-0.323-0.604-0.525-1.003-0.555-0.669-0.049-1.741-0.089-2.599 0.060-0.781 0.136-1.151 0.634-1.324 1.032 0.554-0.173 1.314-0.258 2.289-0.258 1.158 0 2.262 0.119 2.818 0.189 0.062 0.008 0.126 0.020 0.189 0.036z"></path>
</symbol>
<symbol id="icon-arrow-down" viewBox="0 0 16 28">
<path d="M16 11c0 0.266-0.109 0.516-0.297 0.703l-7 7c-0.187 0.187-0.438 0.297-0.703 0.297s-0.516-0.109-0.703-0.297l-7-7c-0.187-0.187-0.297-0.438-0.297-0.703 0-0.547 0.453-1 1-1h14c0.547 0 1 0.453 1 1z"></path>   
</symbol>
<symbol id="icon-whatsapp" viewBox="0 0 24 28">
<path d="M15.391 15.219c0.266 0 2.812 1.328 2.922 1.516 0.031 0.078 0.031 0.172 0.031 0.234 0 0.391-0.125 0.828-0.266 1.188-0.359 0.875-1.813 1.437-2.703 1.437-0.75 0-2.297-0.656-2.969-0.969-2.234-1.016-3.625-2.75-4.969-4.734-0.594-0.875-1.125-1.953-1.109-3.031v-0.125c0.031-1.031 0.406-1.766 1.156-2.469 0.234-0.219 0.484-0.344 0.812-0.344 0.187 0 0.375 0.047 0.578 0.047 0.422 0 0.5 0.125 0.656 0.531 0.109 0.266 0.906 2.391 0.906 2.547 0 0.594-1.078 1.266-1.078 1.625 0 0.078 0.031 0.156 0.078 0.234 0.344 0.734 1 1.578 1.594 2.141 0.719 0.688 1.484 1.141 2.359 1.578 0.109 0.063 0.219 0.109 0.344 0.109 0.469 0 1.25-1.516 1.656-1.516zM12.219 23.5c5.406 0 9.812-4.406 9.812-9.812s-4.406-9.812-9.812-9.812-9.812 4.406-9.812 9.812c0 2.063 0.656 4.078 1.875 5.75l-1.234 3.641 3.781-1.203c1.594 1.047 3.484 1.625 5.391 1.625zM12.219 1.906c6.5 0 11.781 5.281 11.781 11.781s-5.281 11.781-11.781 11.781c-1.984 0-3.953-0.5-5.703-1.469l-6.516 2.094 2.125-6.328c-1.109-1.828-1.687-3.938-1.687-6.078 0-6.5 5.281-11.781 11.781-11.781z"></path>
</symbol>
</defs>
</svg>