<svg width="49" height="41" viewBox="0 0 49 41" fill="none" xmlns="http://www.w3.org/2000/svg">
<rect x="16.2559" y="6.79395" width="13.9558" height="12.4606" fill="#050702"/>
<path d="M15.259 1.80979C15.0447 1.88954 14.6933 1.96929 14.5114 2.059C14.307 2.16118 14.0254 2.42036 13.7637 2.55743C13.4323 2.72938 13.0809 2.849 12.7669 3.05585C12.3956 3.30008 11.8872 3.71377 11.5208 4.05269C11.1669 4.90251 10.0854 5.40591 9.52714 6.04639C7.76771 7.84818 8.38824 11.0954 10.7732 12.0275C10.3844 12.9545 9.74146 13.7894 9.52714 14.7688C4.44572 15.0952 -3.13778 22.5915 3.54607 26.2325C3.74045 26.3397 4.16411 26.6935 4.2937 26.7309C5.30301 27.0125 5.95594 26.2076 6.78582 25.9833C7.54591 27.8848 5.30301 29.6268 6.0955 31.1594C6.88799 32.6921 8.07175 33.8035 9.77635 33.958C10.1676 33.9929 10.6311 33.9929 11.0224 33.958C12.6946 33.5693 13.993 32.6871 15.3213 34.145C16.6496 35.6028 17.6813 35.6826 19.2414 36.4551C20.799 37.2277 22.7677 37.3548 24.4798 37.447C25.2723 37.4121 26.4311 37.3822 27.2211 37.447C27.6872 37.4968 27.9837 37.0433 28.4672 37.1978C28.37 40.1485 31.6272 41.0132 33.9498 40.1883C34.4458 40.0114 35.176 39.4781 35.6943 39.1915C38.0668 37.8831 40.6187 35.7 41.1745 32.9637C41.7302 30.2274 38.8045 31.4659 39.4325 29.4722C39.5322 29.1582 39.8063 28.9514 39.9309 28.7246C40.9228 26.6686 41.3963 24.4656 42.423 22.4943C46.2908 24.7248 48.4938 18.7636 47.9057 15.7656C47.8758 15.6136 47.3749 14.6217 47.158 14.5196C46.5051 14.4299 45.8198 14.5869 45.1643 14.5196C44.4765 12.7128 41.486 12.8474 39.6817 12.5259C39.4474 11.8007 38.8294 11.2649 38.6849 10.5322C37.8126 10.3478 37.05 8.81761 36.442 8.28929C35.4127 7.39213 34.1517 6.68686 32.953 6.04639C32.5268 5.8196 32.0907 5.48068 31.7069 5.29875C29.621 4.31187 26.8598 3.87825 24.4798 4.05269C23.9216 4.09257 23.5004 4.21717 22.9845 4.30191C22.511 4.37916 21.4943 4.55112 21.2401 4.30191C20.9385 4.00285 21.103 3.95799 20.9909 3.55427C20.936 3.35989 20.8189 2.96613 20.7416 2.80664C20.7267 2.77424 20.5074 2.33064 20.4924 2.30822C20.3628 2.10386 19.9267 1.8073 19.7448 1.56058C19.7448 1.56058 19.5903 1.61541 19.4956 1.56058C18.8028 1.16434 17.0533 1.09456 16.2558 1.31137C16.064 1.36371 15.5257 1.71011 15.259 1.80979ZM18.748 3.30506C18.9922 3.48948 19.0894 3.53683 19.2464 3.80348C19.4009 4.06765 19.6252 4.38664 19.4956 4.80033C19.2264 5.65014 17.1181 5.58285 16.4851 6.27566C15.8546 6.97096 14.7357 7.67124 14.0129 8.28929C13.4298 8.87244 12.9712 9.58269 12.2685 10.0338C9.91093 11.5515 10.1252 7.28496 11.77 6.04639C11.8373 5.99654 11.9669 5.86446 12.0193 5.79717C12.5426 5.1243 13.0859 4.77292 13.7637 4.30191C14.0129 4.12746 14.2522 3.94803 14.5114 3.80348C15.1793 3.42967 16.0166 3.2303 16.7543 3.05585C17.6564 2.84153 18.0003 2.73935 18.748 3.30506ZM21.4893 10.283C21.4594 10.2306 21.2401 10.283 21.2401 10.283C20.8663 11.053 20.1685 11.2424 19.994 10.283C19.989 10.2605 19.7448 10.283 19.7448 10.283C19.5081 11.4468 18.4115 12.8175 17.0035 12.5259C15.5929 12.2318 16.0216 9.52039 17.5019 10.283C17.7262 9.22383 17.2951 9.09922 16.5051 9.03692C16.6994 7.32982 19.8669 6.9585 19.7448 9.03692C19.7448 9.0444 19.994 9.03692 19.994 9.03692C20.5772 8.63818 21.0158 8.67307 21.2401 9.28613C21.3547 9.25124 21.4893 9.28613 21.4893 9.28613C21.9179 6.15105 22.5758 8.9472 22.2369 10.283C22.2793 9.37834 23.144 8.67307 22.7353 7.79086C23.6001 7.75597 23.0942 8.99954 23.2338 9.53534C23.6151 8.20206 24.3677 7.93042 24.2306 9.78455C24.8163 9.25373 24.1683 8.16219 24.729 7.54165C25.377 8.77774 26.2368 7.45443 27.2211 7.29244C27.3881 7.93042 27.3158 8.80266 27.7196 9.28613C27.8317 8.06998 28.1183 7.69367 28.9656 7.29244C29.6534 7.49181 29.3394 8.70049 29.9625 7.79086C29.3295 8.97213 29.9201 9.77957 29.2198 11.0356C28.522 12.2941 27.423 10.4051 28.4672 9.53534C27.6971 9.72474 27.109 9.82941 26.7227 9.03692C26.7127 10.1758 25.2898 10.2481 24.9782 9.28613C24.6468 10.4499 23.2587 10.5446 22.4861 10.0338C22.6506 10.7241 21.6189 11.0256 21.4893 10.283ZM34.1991 22.4943C36.2575 22.0158 36.4768 19.1275 36.9229 17.2434C37.3665 15.3594 38.4705 13.2386 40.9278 13.2735C41.7053 13.2835 42.2984 13.6 42.9214 13.7719C43.2604 13.8068 44.1426 13.8417 44.4167 14.0211C45.2591 14.5669 44.7133 15.1351 44.6659 15.7656C44.6958 16.5481 44.8778 17.7568 44.6659 18.5069C45.3637 17.5624 45.4185 15.4716 46.6596 15.5164C48.1026 15.5687 47.2278 17.9612 46.8291 19.424C46.4303 20.8844 45.7924 22.5541 43.9183 21.9959C43.3351 21.8215 42.9663 21.4975 42.423 21.2483C42.899 23.1024 40.4144 23.3317 39.4325 22.9928C38.782 22.766 38.2911 22.29 37.688 21.9959C37.9796 24.2139 34.8644 25.1559 33.4514 24.488C32.7761 24.169 32.148 23.7653 31.4577 23.4912C32.0459 25.8836 29.4067 28.6498 27.2211 27.7278C26.1171 27.2617 25.2773 26.544 24.2306 25.9833C24.3128 27.7078 21.5117 29.0212 20.2432 28.4754C20.171 28.443 19.7797 28.2386 19.7448 28.2262C18.5536 27.8175 17.1829 27.4138 16.5051 26.2325C16.854 29.1906 13.0211 34.606 9.77635 33.2104C9.64676 33.1556 9.37263 33.0011 9.27793 32.9612C8.57515 32.6696 7.91724 32.1338 7.34654 31.6528C6.77585 31.1719 5.97588 29.5894 7.03503 29.9707C7.27925 29.0187 8.24619 30.9551 8.28108 30.9675C8.80443 31.0298 9.33774 30.9924 9.77635 30.7183C7.55089 29.8186 6.73099 26.7658 7.36648 24.5703C8.00197 22.3747 7.5808 19.2097 9.77635 18.2577C12.1488 17.5824 11.6255 21.0913 10.7732 22.4943C12.3133 21.5822 14.5039 17.9886 12.2685 17.0117C9.96824 16.5257 7.90976 19.3593 6.3497 20.5629C4.78963 21.7641 5.87619 22.9454 4.79213 23.9896C5.2108 23.9049 5.38525 23.3591 5.78897 23.242C6.59891 23.0077 7.02257 24.1117 6.55405 25.0039C6.08802 25.8986 5.07872 25.9808 4.2937 25.7341C0.707553 24.6126 0.782316 21.004 3.35916 18.8185C5.93601 16.6329 8.43559 15.1899 12.0193 15.5164C16.211 15.8977 16.9337 20.8146 14.2622 23.4912C14.8927 23.9846 15.573 24.3784 16.0066 24.9864C15.9618 24.7597 16.0066 24.4681 16.0066 24.2388C15.8596 23.5684 15.902 23.1373 16.0066 22.4943C16.0939 20.7573 16.849 19.3269 18.748 19.2546C19.2838 19.1524 19.4607 19.13 19.994 19.2546C24.0512 19.3343 23.6499 26.2948 19.4956 25.4849C19.6426 26.0182 20.2532 26.0979 20.4924 26.4817C22.3067 26.3795 22.9497 23.8625 23.2338 22.4943C23.321 21.5274 23.4057 20.3038 23.483 19.5038C23.483 17.2086 23.3783 12.8474 26.4735 12.7751C30.0646 12.6928 29.5114 16.4908 28.7712 18.811C28.0311 21.1336 25.7508 23.4015 27.7196 25.7341C30.1369 25.0587 29.8254 20.2165 29.9625 18.0085C30.0995 15.8005 29.6709 10.8437 33.2022 11.0306C35.0215 11.1278 35.951 12.4461 35.9435 14.0211C35.9361 15.5962 35.3554 17.5799 34.7548 18.5643C34.1517 19.5487 32.4845 22.1454 34.1991 22.4943ZM21.7385 16.264C21.8257 16.9768 21.6712 17.6073 21.4893 18.2577C20.2856 17.702 18.7903 17.5475 17.5019 18.0085C17.6564 17.1537 18.095 16.3812 18.2495 15.5164C15.6029 14.1806 19.0744 12.5558 20.5473 12.5807C22.0226 12.6056 24.7764 16.1943 21.7385 16.264ZM6.28739 22.2451C6.36465 21.5648 6.99515 21.1012 7.28424 20.5006C7.69544 21.0414 7.37645 22.6563 6.28739 22.2451ZM35.9435 27.4786C36.3198 28.4131 36.123 28.8916 36.9404 27.977C37.1397 29.9806 34.8944 29.2903 33.9498 29.9707C33.1524 29.7364 33.6259 28.9963 33.7006 28.4754C32.9455 28.7196 33.277 29.6317 33.2022 30.2199C32.0509 29.5321 30.3512 31.4485 29.464 30.2199C29.1849 31.0473 29.4615 31.142 29.9625 31.7151C29.15 32.0765 26.3439 33.5294 27.7196 31.2167C26.7701 31.1569 25.2 32.2534 25.4767 30.4691C25.1028 31.8298 24.8661 31.7949 24.4798 30.4691C24.6094 31.613 23.306 32.8565 22.4861 31.7151C22.4811 32.7419 19.9168 33.2129 20.2432 31.7151C19.5105 32.4329 18.0651 32.2958 18.4987 33.7088C17.3873 33.8883 18.1723 32.0989 17.0035 32.4628C16.3356 30.3445 20.5672 27.6455 20.7416 30.7183C21.7011 29.9084 21.9678 31.1768 22.2369 31.7151C22.5036 31.0821 22.379 30.332 22.7353 29.7215C23.9764 30.9949 26.1271 28.3034 26.4735 30.4691C26.6679 29.081 29.0454 28.4804 29.7133 29.4722C29.8952 28.9763 29.8478 28.1913 30.4609 27.977C31.0316 28.2511 29.955 29.1782 30.7101 29.4722C30.8347 27.9994 32.2602 28.0542 32.7038 29.223C32.2776 27.9097 34.3062 27.2667 34.6975 28.4754C34.675 27.8598 35.3404 27.344 35.9435 27.4786ZM34.9467 30.7183C35.465 29.7015 35.9535 30.9276 36.1927 31.4659C34.9716 32.1189 32.4795 31.2765 32.4546 32.2136C32.0234 30.96 31.6023 32.9163 31.7069 30.9675C32.8409 31.1918 33.8352 30.0355 34.4483 31.2167C34.2738 30.6086 35.0813 29.4374 34.9467 30.7183ZM37.4388 30.7183C37.0276 31.9743 35.8065 30.8454 37.4388 30.7183ZM31.2085 31.2167C31.7717 31.4659 31.1761 32.8017 30.5406 32.378C29.9027 31.9544 30.5556 30.9251 31.2085 31.2167ZM34.9467 37.6962C34.8794 37.7236 34.5529 37.8931 34.4483 37.9454C32.9356 38.7205 29.8229 39.5503 29.9625 36.6994C31.4029 36.4551 32.6539 35.5954 33.9498 34.9549C34.209 34.7306 34.4233 34.4241 34.6975 34.2073C35.8887 33.2702 37.075 32.2659 38.1864 31.2167C40.8256 33.6116 37.2893 36.9062 34.9467 37.6962Z" stroke="#050702" stroke-width="0.3"/>
<path d="M16.7543 3.05631C16.9561 3.04883 18.424 3.20085 18.748 3.30552C18.0003 2.73981 17.6564 2.84199 16.7543 3.05631Z" stroke="#7D6B0F" stroke-width="0.3"/>
<path d="M14.5114 3.80356C14.5413 3.80107 19.4931 5.78978 19.2464 3.80356C19.0894 3.53691 18.9922 3.48956 18.7479 3.30514C18.424 3.20047 16.9561 3.04845 16.7543 3.05593C16.0166 3.23038 15.1792 3.42975 14.5114 3.80356Z" stroke="#E4C202" stroke-width="0.3"/>
<path d="M13.7637 4.30116C15.3637 4.16659 17.6464 5.86621 19.4956 4.79958C19.6252 4.38589 19.4009 4.0669 19.2464 3.80274C19.4931 5.78895 14.5413 3.80024 14.5114 3.80274C14.2522 3.94728 14.0129 4.12671 13.7637 4.30116Z" stroke="#957E03" stroke-width="0.3"/>
<path d="M10.524 4.80058C10.1851 5.13453 9.82372 5.6479 9.52716 6.04664C10.0854 5.40617 11.167 4.90276 11.5209 4.05295C11.5209 4.05295 11.3165 3.99314 11.2716 4.05295C11.0424 4.36197 10.7956 4.53393 10.524 4.80058Z" stroke="#594C1C" stroke-width="0.3"/>
<path d="M12.0193 5.79784C12.7569 5.95235 13.4672 7.14358 14.0129 7.54232C13.1058 7.40027 12.5202 6.51806 11.77 6.04705C10.1252 7.28563 9.91092 11.5521 12.2685 10.0344C12.8616 9.58087 13.4348 8.78339 14.0129 8.28995C14.7357 7.67191 15.8546 6.97162 16.4851 6.27632C17.1181 5.58352 19.2264 5.6508 19.4956 4.80099C17.6464 5.86762 15.3637 4.168 13.7637 4.30257C13.0859 4.77358 12.5426 5.12497 12.0193 5.79784Z" stroke="#DCBC03" stroke-width="0.3"/>
<path d="M11.77 6.04609C12.5201 6.5171 13.1058 7.3993 14.0129 7.54135C13.4671 7.14262 12.7569 5.95139 12.0192 5.79688C11.9669 5.86416 11.8373 5.99624 11.77 6.04609Z" stroke="#AC9301" stroke-width="0.3"/>
<path d="M12.2684 10.0335C12.9712 9.58247 13.4298 8.87222 14.0129 8.28906C13.4347 8.7825 12.8616 9.57998 12.2684 10.0335Z" stroke="#716019" stroke-width="0.3"/>
<path d="M27.7196 25.734C26.4561 26.0854 25.4044 22.9952 26.6604 21.9335C27.9189 20.8719 27.9563 18.6066 28.5494 17.0938C29.1426 15.5811 28.3551 12.9968 26.4735 12.775C23.3783 12.8473 23.483 17.2085 23.483 19.5037C23.483 20.5554 23.4157 21.617 23.2338 22.4943C22.9497 23.8624 22.3067 26.3795 20.4924 26.4816C19.6027 26.5315 18.7729 25.9134 18.748 24.9864C22.7503 26.6112 23.3609 19.8078 19.7448 19.2545C19.4133 19.2545 19.0794 19.242 18.748 19.2545C16.849 19.3268 16.0939 20.7572 16.0066 22.4943C15.9792 23.0724 16.0066 23.6606 16.0066 24.2387C16.0066 24.468 15.9618 24.7596 16.0066 24.9864C16.0615 25.2705 16.368 25.9932 16.5051 26.2324C17.1829 27.4137 18.5536 27.8174 19.7448 28.2261C20.1934 28.2735 20.794 28.2934 21.2401 28.2261C22.7428 27.6778 23.3982 25.5396 24.2306 25.9832C25.2773 26.5439 26.1171 27.2617 27.2211 27.7277C30.1394 28.2137 30.274 25.0088 30.7101 22.9927C30.9269 23.2294 31.378 23.1272 31.4577 23.4911C32.148 23.7652 32.7761 24.169 33.4514 24.4879C35.5074 24.9066 36.8133 23.3864 36.9404 21.4974C37.2594 21.4301 37.6182 21.6893 37.688 21.9958C38.2911 22.2899 38.782 22.7659 39.4325 22.9927C40.9053 23.2394 41.947 22.2675 41.6754 20.7498C41.9869 20.8245 42.1015 21.2058 42.423 21.2482C42.9663 21.4974 43.3351 21.8214 43.9183 21.9958C47.1132 22.2151 45.7924 17.049 46.6596 15.5163C45.4185 15.4715 45.3637 17.5624 44.6659 18.5069C44.494 18.7411 44.5363 19.4738 43.9183 19.2545C43.7887 17.5374 44.0653 15.9325 44.1675 14.2703C43.7114 14.0435 42.9862 14.1855 42.6722 13.7719C42.129 13.6821 41.3464 13.3183 40.9278 13.2734C38.4705 13.2385 37.3665 15.3593 36.9229 17.2434C36.4768 19.1274 36.2575 22.0158 34.1991 22.4943C31.6222 23.0949 33.6458 18.781 34.528 17.3406C35.4102 15.9026 35.9111 11.4916 33.2022 11.0305C29.6709 10.8436 30.0995 15.8004 29.9625 18.0084C29.8254 20.2165 30.1369 25.0586 27.7196 25.734ZM33.4514 13.0242C33.8551 13.7719 33.4365 15.5786 33.2022 16.5132C33.0502 17.1213 32.7138 17.6845 32.4546 18.2577C31.7593 17.53 32.472 15.8104 32.4521 15.0154C32.4346 14.2204 32.9804 12.1121 33.4514 13.0242ZM26.9719 15.5163C27.0467 16.1169 26.805 16.5904 26.7227 17.0116C26.7227 17.2484 26.7576 17.525 26.7227 17.7592C26.6106 18.5119 26.2143 19.2769 25.9751 20.0021C25.8804 18.5019 25.4542 15.4216 26.9719 14.5195C26.9719 14.8509 26.9719 15.1849 26.9719 15.5163ZM41.4262 15.5163C41.5383 16.6029 40.9053 18.791 40.4293 19.7529C40.2624 20.0894 40.1726 20.5828 39.6817 20.5006C39.0163 19.4937 39.6692 17.8465 39.8761 16.9568C40.0804 16.0646 41.3215 14.2877 41.4262 15.5163ZM19.7448 21.9958C19.6551 22.7883 19.7872 22.9503 19.2464 23.4911C19.0296 23.7079 18.9374 24.1266 18.4987 23.9895C18.5162 22.8456 18.895 21.8014 19.2464 20.7498C19.9168 20.5828 20.318 21.7167 19.7448 21.9958Z" stroke="#EAC602" stroke-width="0.3"/>
<path d="M34.1991 22.495C32.4845 22.1461 34.1517 19.5493 34.7548 18.5649C35.3554 17.5805 35.9361 15.5968 35.9436 14.0218C35.951 12.4468 35.0215 11.1284 33.2022 11.0312C35.9112 11.4923 35.4103 15.9033 34.528 17.3413C33.6458 18.7817 31.6222 23.0956 34.1991 22.495Z" stroke="#9B4A16" stroke-width="0.3"/>
<path d="M33.2022 16.5134C33.2695 15.9302 33.5984 13.7347 33.4514 13.0244C32.9804 12.1123 32.4346 14.2207 32.4521 15.0156C32.472 15.8106 31.7593 17.5302 32.4546 18.2579C32.7137 17.6847 33.0502 17.1215 33.2022 16.5134Z" stroke="#A25116" stroke-width="0.3"/>
<path d="M27.7196 25.7347C25.7508 23.4021 28.0311 21.1343 28.7712 18.8116C29.5114 16.4915 30.0646 12.6935 26.4735 12.7757C28.355 12.9975 29.1425 15.5818 28.5494 17.0946C27.9563 18.6073 27.9189 20.8726 26.6604 21.9342C25.4044 22.9959 26.4561 26.0861 27.7196 25.7347Z" stroke="#994A16" stroke-width="0.3"/>
<path d="M33.2022 16.5134C33.4365 15.5788 33.8551 13.772 33.4514 13.0244C33.5985 13.7347 33.2695 15.9302 33.2022 16.5134Z" stroke="#151007" stroke-width="0.3"/>
<path d="M42.6722 13.7719C42.7943 13.7918 42.9214 13.7719 42.9214 13.7719C42.2984 13.5999 41.7053 13.2834 40.9277 13.2734C41.3464 13.3183 42.1289 13.6821 42.6722 13.7719Z" stroke="#682712" stroke-width="0.3"/>
<path d="M44.6659 18.5075C44.8778 17.7573 44.6958 16.5487 44.6659 15.7662C44.646 15.2652 44.8354 14.4005 44.4167 14.0217C44.1426 13.8422 43.2604 13.8074 42.9215 13.7725C42.9215 13.7725 42.7944 13.7924 42.6722 13.7725C42.9862 14.1862 43.7115 14.0441 44.1675 14.2709C44.0653 15.9331 43.7887 17.538 43.9183 19.2551C44.5363 19.4744 44.494 18.7417 44.6659 18.5075Z" stroke="#9E4B16" stroke-width="0.3"/>
<path d="M44.6659 15.765C44.7132 15.1345 45.259 14.5663 44.4167 14.0205C44.8354 14.3993 44.646 15.2641 44.6659 15.765Z" stroke="#552B0E" stroke-width="0.3"/>
<path d="M26.7227 17.7593C26.7377 17.4876 26.6654 16.8497 26.7227 16.5132C26.7103 16.1245 26.9545 15.7207 26.9719 15.5164C26.9719 15.1849 26.9719 14.851 26.9719 14.5195C25.4543 15.4217 25.8804 18.5019 25.9751 20.0022C26.2143 19.277 26.6106 18.5119 26.7227 17.7593Z" stroke="#A55016" stroke-width="0.3"/>
<path d="M40.4294 19.7523C40.5191 19.2788 40.3098 18.2122 40.4119 17.492C40.5116 16.7693 41.3041 16.0316 41.4262 15.5157C41.3216 14.2871 40.0805 16.064 39.8761 16.9562C39.6693 17.8459 39.0164 19.4932 39.6817 20.5C40.1727 20.5822 40.2624 20.0888 40.4294 19.7523Z" stroke="#9C4A16" stroke-width="0.3"/>
<path d="M46.6596 15.5166C45.7923 17.0493 47.1132 22.2154 43.9183 21.9961C45.7923 22.5543 46.4303 20.8846 46.8291 19.4242C47.2278 17.9614 48.1025 15.5689 46.6596 15.5166Z" stroke="#994716" stroke-width="0.3"/>
<path d="M4.29372 25.7334C6.5117 25.9153 5.29305 24.1036 5.78898 23.2413C5.38526 23.3584 5.21081 23.9042 4.79214 23.9889C3.65823 24.2182 4.69246 21.5242 5.48245 20.6919C6.27245 19.8595 7.1422 18.6907 8.33842 18.0652C9.53463 17.4397 10.8604 16.3955 12.2685 17.011C14.5039 17.9879 12.3133 21.5815 10.7732 22.4937C10.5489 22.6257 10.4692 23.1989 10.0256 22.9921C9.76391 21.5342 11.9943 18.6558 9.77637 18.2571C7.58081 19.2091 8.00198 22.374 7.36649 24.5696C6.731 26.7651 7.55091 29.818 9.77637 30.7176C9.33775 30.9918 8.80444 31.0291 8.2811 30.9668C7.34905 30.8572 7.60324 30.1744 7.03504 29.97C5.97589 29.5887 6.77586 31.1712 7.34656 31.6522C7.91725 32.1331 8.57517 32.669 9.27794 32.9605C9.72403 33.0278 10.3246 33.0079 10.7732 32.9605C14.621 31.7992 18.0651 26.0798 13.5145 23.4905C16.0615 21.0109 15.6004 16.6397 12.0193 15.5157C8.43561 15.1893 5.93602 16.6322 3.35917 18.8178C0.78233 21.0034 0.707567 24.612 4.29372 25.7334ZM13.5145 24.9858C14.5288 26.0001 12.4429 29.2548 11.2716 29.4716C10.1178 29.6834 9.96577 26.8499 10.0256 25.7334C11.1396 25.5041 12.3781 24.1185 13.5145 24.9858Z" stroke="#E9C602" stroke-width="0.3"/>
<path d="M10.7732 32.9614C10.4692 33.0536 10.2374 33.2704 9.77637 33.2106C13.0211 34.6062 16.854 29.1908 16.5051 26.2327C16.368 25.9934 16.0615 25.2707 16.0066 24.9866C15.573 24.3786 14.8927 23.9848 14.2622 23.4914C16.9337 20.8148 16.211 15.8979 12.0193 15.5166C15.6004 16.6405 16.0615 21.0117 13.5145 23.4914C18.0651 26.0807 14.621 31.8001 10.7732 32.9614Z" stroke="#974816" stroke-width="0.3"/>
<path d="M26.7227 16.5134C26.7277 16.6381 26.7227 16.8873 26.7227 17.0119C26.8049 16.5907 27.0467 16.1172 26.9719 15.5166C26.9545 15.721 26.7102 16.1247 26.7227 16.5134Z" stroke="#342A16" stroke-width="0.3"/>
<path d="M40.4293 19.7532C40.9053 18.7912 41.5383 16.6032 41.4262 15.5166C41.3041 16.0325 40.5116 16.7701 40.4119 17.4928C40.3097 18.2131 40.519 19.2797 40.4293 19.7532Z" stroke="#010101" stroke-width="0.3"/>
<path d="M26.7228 17.7597C26.7577 17.5255 26.7228 17.2488 26.7228 17.0121C26.7228 16.8875 26.7278 16.6383 26.7228 16.5137C26.6655 16.8501 26.7377 17.4881 26.7228 17.7597Z" stroke="#702F13" stroke-width="0.3"/>
<path d="M4.7921 23.9897C5.87617 22.9455 4.78961 21.7642 6.34967 20.563C7.90974 19.3593 9.96822 16.5258 12.2684 17.0117C10.8604 16.3962 9.53459 17.4404 8.33838 18.0659C7.14216 18.6914 6.27242 19.8602 5.48242 20.6926C4.69242 21.525 3.65819 24.2189 4.7921 23.9897Z" stroke="#984916" stroke-width="0.3"/>
<path d="M9.77637 18.2583C11.9943 18.657 9.76391 21.5354 10.0256 22.9933C10.4692 23.2001 10.5489 22.6269 10.7732 22.4948C11.6255 21.0918 12.1489 17.5829 9.77637 18.2583Z" stroke="#9A4B16" stroke-width="0.3"/>
<path d="M18.7479 19.2552C19.0794 19.2427 19.4133 19.2552 19.7448 19.2552C19.8694 19.2552 19.994 19.2552 19.994 19.2552C19.4607 19.1306 19.2837 19.153 18.7479 19.2552Z" stroke="#430D0B" stroke-width="0.3"/>
<path d="M20.4924 26.481C20.2532 26.0972 19.6426 26.0175 19.4956 25.4842C23.6499 26.2941 24.0511 19.3337 19.994 19.2539C19.994 19.2539 19.8694 19.2539 19.7448 19.2539C23.3608 19.8072 22.7503 26.6106 18.7479 24.9858C18.7728 25.9128 19.6027 26.5309 20.4924 26.481Z" stroke="#974716" stroke-width="0.3"/>
<path d="M23.2338 22.4944C23.4157 21.6172 23.483 20.5556 23.483 19.5039C23.4057 20.3039 23.321 21.5275 23.2338 22.4944Z" stroke="#796709" stroke-width="0.3"/>
<path d="M6.28741 22.2445C7.37647 22.6557 7.69546 21.0408 7.28426 20.5C6.99517 21.1006 6.36467 21.5641 6.28741 22.2445Z" stroke="#BDA213" stroke-width="0.3"/>
<path d="M19.2464 23.4904C19.3211 23.3683 20.0164 20.8588 19.7448 21.9952C20.318 21.7161 19.9167 20.5821 19.2464 20.7491C18.895 21.8008 18.5162 22.845 18.4987 23.9889C18.9373 24.1259 19.0295 23.7073 19.2464 23.4904Z" stroke="#9C4F15" stroke-width="0.3"/>
<path d="M39.4325 22.9929C40.4144 23.3318 42.899 23.1026 42.423 21.2484C42.1015 21.2061 41.9869 20.8248 41.6754 20.75C41.947 22.2677 40.9053 23.2396 39.4325 22.9929Z" stroke="#9B4816" stroke-width="0.3"/>
<path d="M19.2464 23.491C19.7872 22.9502 19.6551 22.7882 19.7448 21.9957C20.0165 20.8593 19.3212 23.3689 19.2464 23.491Z" stroke="#080505" stroke-width="0.3"/>
<path d="M33.4514 24.4886C34.8644 25.1565 37.9796 24.2144 37.688 21.9965C37.6182 21.6899 37.2594 21.4307 36.9404 21.498C36.8133 23.3871 35.5074 24.9072 33.4514 24.4886Z" stroke="#984B15" stroke-width="0.3"/>
<path d="M16.0067 24.2386C16.0067 23.6604 15.9793 23.0723 16.0067 22.4941C15.902 23.1371 15.8596 23.5682 16.0067 24.2386Z" stroke="#7B6909" stroke-width="0.3"/>
<path d="M5.78897 23.2418C5.29304 24.1041 6.51168 25.9159 4.2937 25.734C5.07872 25.9807 6.08802 25.8984 6.55405 25.0038C7.02256 24.1116 6.59891 23.0076 5.78897 23.2418Z" stroke="#894014" stroke-width="0.3"/>
<path d="M27.2212 27.7282C29.4068 28.6503 32.0459 25.884 31.4578 23.4916C31.378 23.1277 30.927 23.2299 30.7101 22.9932C30.274 25.0093 30.1395 28.2141 27.2212 27.7282Z" stroke="#964815" stroke-width="0.3"/>
<path d="M11.2716 29.4723C11.5109 28.8966 10.3346 26.8182 10.7732 26.2326C11.2118 25.6469 12.8292 24.5504 13.5145 24.9865C12.3781 24.1193 11.1395 25.5049 10.0256 25.7342C9.96575 26.8506 10.1178 29.6842 11.2716 29.4723Z" stroke="#9A4916" stroke-width="0.3"/>
<path d="M11.2717 29.4715C12.443 29.2547 14.5289 26 13.5146 24.9857C12.8292 24.5496 11.2119 25.6462 10.7732 26.2318C10.3346 26.8174 11.5109 28.8959 11.2717 29.4715Z" stroke="#050601" stroke-width="0.3"/>
<path d="M21.2401 28.2259C20.9286 28.3405 20.7093 28.5349 20.2432 28.4751C21.5117 29.0209 24.3128 27.7075 24.2306 25.983C23.3982 25.5394 22.7428 27.6776 21.2401 28.2259Z" stroke="#934515" stroke-width="0.3"/>
<path d="M35.9435 27.4786C35.3405 27.344 34.6751 27.8599 34.6975 28.4754C34.3062 27.2667 32.2776 27.9097 32.7038 29.223C32.2602 28.0542 30.8347 27.9994 30.7101 29.4723C29.955 29.1782 31.0316 28.2511 30.4609 27.977C29.8478 28.1913 29.8952 28.9763 29.7133 29.4723C29.0454 28.4804 26.6679 29.081 26.4735 30.4691C26.1271 28.3035 23.9764 30.9949 22.7354 29.7215C22.379 30.332 22.5036 31.0822 22.2369 31.7152C21.9678 31.1769 21.7011 29.9084 20.7417 30.7183C20.5672 27.6455 16.3356 30.3445 17.0035 32.4628C18.1723 32.0989 17.3873 33.8883 18.4988 33.7088C18.0651 32.2958 19.5106 32.4329 20.2432 31.7152C19.9168 33.2129 22.4812 32.7419 22.4861 31.7152C23.306 32.8565 24.6094 31.613 24.4798 30.4691C24.8661 31.7949 25.1029 31.8298 25.4767 30.4691C25.2 32.2535 26.7701 31.1569 27.7196 31.2167C26.3439 33.5294 29.15 32.0765 29.9625 31.7152C29.4616 31.142 29.1849 31.0473 29.4641 30.2199C30.3512 31.4485 32.0509 29.5321 33.2022 30.2199C33.277 29.6318 32.9455 28.7196 33.7006 28.4754C33.6259 28.9963 33.1524 29.7364 33.9499 29.9707C34.8944 29.2903 37.1398 29.9806 36.9404 27.977C36.123 28.8916 36.3199 28.4131 35.9435 27.4786ZM35.6943 27.977C35.6819 29.3078 34.6626 28.5676 35.6943 27.977ZM31.707 28.7246C31.9412 30.3869 30.603 29.6318 31.707 28.7246ZM29.2148 29.223C28.8983 31.0373 27.9663 29.8286 29.2148 29.223ZM18.4988 32.2136C18.6732 31.3588 19.1941 30.3694 19.2464 29.7215C20.804 29.9607 19.5679 32.0915 18.4988 32.2136ZM27.9688 29.9707C27.595 31.4834 26.7452 30.3221 27.9688 29.9707ZM21.4893 30.9675C21.4768 32.2983 20.4576 31.5582 21.4893 30.9675ZM28.4672 31.7152C28.0635 32.7718 27.266 31.4934 28.4672 31.7152Z" stroke="#854114" stroke-width="0.3"/>
<path d="M35.6944 27.9775C35.6819 29.3083 34.6626 28.5682 35.6944 27.9775Z" stroke="black" stroke-width="0.3"/>
<path d="M20.2432 28.4748C20.7093 28.5346 20.9286 28.3402 21.2401 28.2256C20.794 28.2929 20.1934 28.2729 19.7448 28.2256C19.7797 28.238 20.171 28.4424 20.2432 28.4748Z" stroke="#BD7E12" stroke-width="0.3"/>
<path d="M31.7069 28.7246C31.9412 30.3868 30.6029 29.6317 31.7069 28.7246Z" stroke="#040401" stroke-width="0.3"/>
<path d="M29.2148 29.2236C28.8983 31.0379 27.9662 29.8292 29.2148 29.2236Z" stroke="#030502" stroke-width="0.3"/>
<path d="M7.03503 29.9711C7.60324 30.1755 7.34904 30.8583 8.28109 30.968C8.2462 30.9555 7.27926 29.0192 7.03503 29.9711Z" stroke="#974616" stroke-width="0.3"/>
<path d="M18.4987 32.2128C19.5678 32.0907 20.8039 29.9599 19.2464 29.7207C19.194 30.3687 18.6732 31.358 18.4987 32.2128Z" stroke="#030400" stroke-width="0.3"/>
<path d="M27.9688 29.9707C27.5949 31.4834 26.7451 30.3221 27.9688 29.9707Z" stroke="#2A190C" stroke-width="0.3"/>
<path d="M34.9467 30.719C35.0812 29.438 34.2738 30.6093 34.4482 31.2174C33.8352 30.0361 32.8408 31.1925 31.7069 30.9682C31.6022 32.917 32.0234 30.9607 32.4545 32.2142C32.4795 31.2772 34.9716 32.1195 36.1927 31.4666C35.9535 30.9283 35.465 29.7022 34.9467 30.719Z" stroke="#773B13" stroke-width="0.3"/>
<path d="M37.4388 30.7188C37.0276 31.9748 35.8065 30.8458 37.4388 30.7188Z" stroke="#733813" stroke-width="0.3"/>
<path d="M21.4893 30.9668C21.4768 32.2976 20.4575 31.5574 21.4893 30.9668Z" stroke="black" stroke-width="0.3"/>
<path d="M31.2085 31.2173C30.5556 30.9257 29.9026 31.9549 30.5406 32.3786C31.1761 32.8022 31.7717 31.4665 31.2085 31.2173Z" stroke="#6C3612" stroke-width="0.3"/>
<path d="M34.6975 34.2073C33.9349 35.4808 35.1386 36.7468 34.9467 37.6963C37.2893 36.9063 40.8256 33.6117 38.1864 31.2168C37.0749 32.266 35.8887 33.2703 34.6975 34.2073Z" stroke="#DDBD02" stroke-width="0.3"/>
<path d="M28.4672 31.7149C28.0635 32.7715 27.266 31.4931 28.4672 31.7149Z" stroke="black" stroke-width="0.3"/>
<path d="M9.77638 33.2101C10.2374 33.27 10.4692 33.0531 10.7732 32.9609C10.3246 33.0083 9.72404 33.0282 9.27795 32.9609C9.37265 33.0008 9.64679 33.1553 9.77638 33.2101Z" stroke="#B36E14" stroke-width="0.3"/>
<path d="M11.0224 33.958C10.6312 33.9929 10.1676 33.9929 9.77637 33.958C10.3172 34.0851 10.4692 34.0876 11.0224 33.958Z" stroke="#74641B" stroke-width="0.3"/>
<path d="M33.9499 34.9547C33.7978 35.4307 33.9673 37.6935 34.4483 37.9452C34.553 37.8929 34.8794 37.7234 34.9467 37.696C35.1386 36.7465 33.9349 35.4805 34.6975 34.207C34.4234 34.4238 34.209 34.7304 33.9499 34.9547Z" stroke="#8A7505" stroke-width="0.3"/>
<path d="M34.4483 37.9456C33.9673 37.6939 33.7978 35.4311 33.9499 34.9551C32.654 35.5956 31.4029 36.4553 29.9625 36.6996C29.8229 39.5505 32.9356 38.7207 34.4483 37.9456Z" stroke="#E3C105" stroke-width="0.3"/>
<path d="M24.4798 37.4464C25.3819 37.4962 26.319 37.4713 27.2211 37.4464C26.4311 37.3816 25.2723 37.4115 24.4798 37.4464Z" stroke="#000016" stroke-width="0.3"/>
<path d="M15.259 1.80979C15.0447 1.88954 14.6933 1.96929 14.5114 2.059C14.307 2.16118 14.0254 2.42036 13.7637 2.55743C13.4323 2.72938 13.0809 2.849 12.7669 3.05585C12.3956 3.30008 11.8872 3.71377 11.5208 4.05269C11.1669 4.90251 10.0854 5.40591 9.52714 6.04639C7.76771 7.84818 8.38824 11.0954 10.7732 12.0275C10.3844 12.9545 9.74146 13.7894 9.52714 14.7688C4.44572 15.0952 -3.13778 22.5915 3.54607 26.2325C3.74045 26.3397 4.16411 26.6935 4.2937 26.7309C5.30301 27.0125 5.95594 26.2076 6.78582 25.9833C7.54591 27.8848 5.30301 29.6268 6.0955 31.1594C6.88799 32.6921 8.07175 33.8035 9.77635 33.958C10.1676 33.9929 10.6311 33.9929 11.0224 33.958C12.6946 33.5693 13.993 32.6871 15.3213 34.145C16.6496 35.6028 17.6813 35.6826 19.2414 36.4551C20.799 37.2277 22.7677 37.3548 24.4798 37.447C25.2723 37.4121 26.4311 37.3822 27.2211 37.447C27.6872 37.4968 27.9837 37.0433 28.4672 37.1978C28.37 40.1485 31.6272 41.0132 33.9498 40.1883C34.4458 40.0114 35.176 39.4781 35.6943 39.1915C38.0668 37.8831 40.6187 35.7 41.1745 32.9637C41.7302 30.2274 38.8045 31.4659 39.4325 29.4722C39.5322 29.1582 39.8063 28.9514 39.9309 28.7246C40.9228 26.6686 41.3963 24.4656 42.423 22.4943C46.2908 24.7248 48.4938 18.7636 47.9057 15.7656C47.8758 15.6136 47.3749 14.6217 47.158 14.5196C46.5051 14.4299 45.8198 14.5869 45.1643 14.5196C44.4765 12.7128 41.486 12.8474 39.6817 12.5259C39.4474 11.8007 38.8294 11.2649 38.6849 10.5322C37.8126 10.3478 37.05 8.81761 36.442 8.28929C35.4127 7.39213 34.1517 6.68686 32.953 6.04639C32.5268 5.8196 32.0907 5.48068 31.7069 5.29875C29.621 4.31187 26.8598 3.87825 24.4798 4.05269C23.9216 4.09257 23.5004 4.21717 22.9845 4.30191C22.511 4.37916 21.4943 4.55112 21.2401 4.30191C20.9385 4.00285 21.103 3.95799 20.9909 3.55427C20.936 3.35989 20.8189 2.96613 20.7416 2.80664C20.7267 2.77424 20.5074 2.33064 20.4924 2.30822C20.3628 2.10386 19.9267 1.8073 19.7448 1.56058C19.7448 1.56058 19.5903 1.61541 19.4956 1.56058C18.8028 1.16434 17.0533 1.09456 16.2558 1.31137C16.064 1.36371 15.5257 1.71011 15.259 1.80979ZM18.748 3.30506C18.9922 3.48948 19.0894 3.53683 19.2464 3.80348C19.4009 4.06765 19.6252 4.38664 19.4956 4.80033C19.2264 5.65014 17.1181 5.58285 16.4851 6.27566C15.8546 6.97096 14.7357 7.67124 14.0129 8.28929C13.4298 8.87244 12.9712 9.58269 12.2685 10.0338C9.91093 11.5515 10.1252 7.28496 11.77 6.04639C11.8373 5.99654 11.9669 5.86446 12.0193 5.79717C12.5426 5.1243 13.0859 4.77292 13.7637 4.30191C14.0129 4.12746 14.2522 3.94803 14.5114 3.80348C15.1793 3.42967 16.0166 3.2303 16.7543 3.05585C17.6564 2.84153 18.0003 2.73935 18.748 3.30506ZM21.4893 10.283C21.4594 10.2306 21.2401 10.283 21.2401 10.283C20.8663 11.053 20.1685 11.2424 19.994 10.283C19.989 10.2605 19.7448 10.283 19.7448 10.283C19.5081 11.4468 18.4115 12.8175 17.0035 12.5259C15.5929 12.2318 16.0216 9.52039 17.5019 10.283C17.7262 9.22383 17.2951 9.09922 16.5051 9.03692C16.6994 7.32982 19.8669 6.9585 19.7448 9.03692C19.7448 9.0444 19.994 9.03692 19.994 9.03692C20.5772 8.63818 21.0158 8.67307 21.2401 9.28613C21.3547 9.25124 21.4893 9.28613 21.4893 9.28613C21.9179 6.15105 22.5758 8.9472 22.2369 10.283C22.2793 9.37834 23.144 8.67307 22.7353 7.79086C23.6001 7.75597 23.0942 8.99954 23.2338 9.53534C23.6151 8.20206 24.3677 7.93042 24.2306 9.78455C24.8163 9.25373 24.1683 8.16219 24.729 7.54165C25.377 8.77774 26.2368 7.45443 27.2211 7.29244C27.3881 7.93042 27.3158 8.80266 27.7196 9.28613C27.8317 8.06998 28.1183 7.69367 28.9656 7.29244C29.6534 7.49181 29.3394 8.70049 29.9625 7.79086C29.3295 8.97213 29.9201 9.77957 29.2198 11.0356C28.522 12.2941 27.423 10.4051 28.4672 9.53534C27.6971 9.72474 27.109 9.82941 26.7227 9.03692C26.7127 10.1758 25.2898 10.2481 24.9782 9.28613C24.6468 10.4499 23.2587 10.5446 22.4861 10.0338C22.6506 10.7241 21.6189 11.0256 21.4893 10.283ZM34.1991 22.4943C36.2575 22.0158 36.4768 19.1275 36.9229 17.2434C37.3665 15.3594 38.4705 13.2386 40.9278 13.2735C41.7053 13.2835 42.2984 13.6 42.9214 13.7719C43.2604 13.8068 44.1426 13.8417 44.4167 14.0211C45.2591 14.5669 44.7133 15.1351 44.6659 15.7656C44.6958 16.5481 44.8778 17.7568 44.6659 18.5069C45.3637 17.5624 45.4185 15.4716 46.6596 15.5164C48.1026 15.5687 47.2278 17.9612 46.8291 19.424C46.4303 20.8844 45.7924 22.5541 43.9183 21.9959C43.3351 21.8215 42.9663 21.4975 42.423 21.2483C42.899 23.1024 40.4144 23.3317 39.4325 22.9928C38.782 22.766 38.2911 22.29 37.688 21.9959C37.9796 24.2139 34.8644 25.1559 33.4514 24.488C32.7761 24.169 32.148 23.7653 31.4577 23.4912C32.0459 25.8836 29.4067 28.6498 27.2211 27.7278C26.1171 27.2617 25.2773 26.544 24.2306 25.9833C24.3128 27.7078 21.5117 29.0212 20.2432 28.4754C20.171 28.443 19.7797 28.2386 19.7448 28.2262C18.5536 27.8175 17.1829 27.4138 16.5051 26.2325C16.854 29.1906 13.0211 34.606 9.77635 33.2104C9.64676 33.1556 9.37263 33.0011 9.27793 32.9612C8.57515 32.6696 7.91724 32.1338 7.34654 31.6528C6.77585 31.1719 5.97588 29.5894 7.03503 29.9707C7.27925 29.0187 8.24619 30.9551 8.28108 30.9675C8.80443 31.0298 9.33774 30.9924 9.77635 30.7183C7.55089 29.8186 6.73099 26.7658 7.36648 24.5703C8.00197 22.3747 7.5808 19.2097 9.77635 18.2577C12.1488 17.5824 11.6255 21.0913 10.7732 22.4943C12.3133 21.5822 14.5039 17.9886 12.2685 17.0117C9.96824 16.5257 7.90976 19.3593 6.3497 20.5629C4.78963 21.7641 5.87619 22.9454 4.79213 23.9896C5.2108 23.9049 5.38525 23.3591 5.78897 23.242C6.59891 23.0077 7.02257 24.1117 6.55405 25.0039C6.08802 25.8986 5.07872 25.9808 4.2937 25.7341C0.707553 24.6126 0.782316 21.004 3.35916 18.8185C5.93601 16.6329 8.43559 15.1899 12.0193 15.5164C16.211 15.8977 16.9337 20.8146 14.2622 23.4912C14.8927 23.9846 15.573 24.3784 16.0066 24.9864C15.9618 24.7597 16.0066 24.4681 16.0066 24.2388C15.8596 23.5684 15.902 23.1373 16.0066 22.4943C16.0939 20.7573 16.849 19.3269 18.748 19.2546C19.2838 19.1524 19.4607 19.13 19.994 19.2546C24.0512 19.3343 23.6499 26.2948 19.4956 25.4849C19.6426 26.0182 20.2532 26.0979 20.4924 26.4817C22.3067 26.3795 22.9497 23.8625 23.2338 22.4943C23.321 21.5274 23.4057 20.3038 23.483 19.5038C23.483 17.2086 23.3783 12.8474 26.4735 12.7751C30.0646 12.6928 29.5114 16.4908 28.7712 18.811C28.0311 21.1336 25.7508 23.4015 27.7196 25.7341C30.1369 25.0587 29.8254 20.2165 29.9625 18.0085C30.0995 15.8005 29.6709 10.8437 33.2022 11.0306C35.0215 11.1278 35.951 12.4461 35.9435 14.0211C35.9361 15.5962 35.3554 17.5799 34.7548 18.5643C34.1517 19.5487 32.4845 22.1454 34.1991 22.4943ZM21.7385 16.264C21.8257 16.9768 21.6712 17.6073 21.4893 18.2577C20.2856 17.702 18.7903 17.5475 17.5019 18.0085C17.6564 17.1537 18.095 16.3812 18.2495 15.5164C15.6029 14.1806 19.0744 12.5558 20.5473 12.5807C22.0226 12.6056 24.7764 16.1943 21.7385 16.264ZM6.28739 22.2451C6.36465 21.5648 6.99515 21.1012 7.28424 20.5006C7.69544 21.0414 7.37645 22.6563 6.28739 22.2451ZM35.9435 27.4786C36.3198 28.4131 36.123 28.8916 36.9404 27.977C37.1397 29.9806 34.8944 29.2903 33.9498 29.9707C33.1524 29.7364 33.6259 28.9963 33.7006 28.4754C32.9455 28.7196 33.277 29.6317 33.2022 30.2199C32.0509 29.5321 30.3512 31.4485 29.464 30.2199C29.1849 31.0473 29.4615 31.142 29.9625 31.7151C29.15 32.0765 26.3439 33.5294 27.7196 31.2167C26.7701 31.1569 25.2 32.2534 25.4767 30.4691C25.1028 31.8298 24.8661 31.7949 24.4798 30.4691C24.6094 31.613 23.306 32.8565 22.4861 31.7151C22.4811 32.7419 19.9168 33.2129 20.2432 31.7151C19.5105 32.4329 18.0651 32.2958 18.4987 33.7088C17.3873 33.8883 18.1723 32.0989 17.0035 32.4628C16.3356 30.3445 20.5672 27.6455 20.7416 30.7183C21.7011 29.9084 21.9678 31.1768 22.2369 31.7151C22.5036 31.0821 22.379 30.332 22.7353 29.7215C23.9764 30.9949 26.1271 28.3034 26.4735 30.4691C26.6679 29.081 29.0454 28.4804 29.7133 29.4722C29.8952 28.9763 29.8478 28.1913 30.4609 27.977C31.0316 28.2511 29.955 29.1782 30.7101 29.4722C30.8347 27.9994 32.2602 28.0542 32.7038 29.223C32.2776 27.9097 34.3062 27.2667 34.6975 28.4754C34.675 27.8598 35.3404 27.344 35.9435 27.4786ZM34.9467 30.7183C35.465 29.7015 35.9535 30.9276 36.1927 31.4659C34.9716 32.1189 32.4795 31.2765 32.4546 32.2136C32.0234 30.96 31.6023 32.9163 31.7069 30.9675C32.8409 31.1918 33.8352 30.0355 34.4483 31.2167C34.2738 30.6086 35.0813 29.4374 34.9467 30.7183ZM37.4388 30.7183C37.0276 31.9743 35.8065 30.8454 37.4388 30.7183ZM31.2085 31.2167C31.7717 31.4659 31.1761 32.8017 30.5406 32.378C29.9027 31.9544 30.5556 30.9251 31.2085 31.2167ZM34.9467 37.6962C34.8794 37.7236 34.5529 37.8931 34.4483 37.9454C32.9356 38.7205 29.8229 39.5503 29.9625 36.6994C31.4029 36.4551 32.6539 35.5954 33.9498 34.9549C34.209 34.7306 34.4233 34.4241 34.6975 34.2073C35.8887 33.2702 37.075 32.2659 38.1864 31.2167C40.8256 33.6116 37.2893 36.9062 34.9467 37.6962Z" fill="#050702" stroke="black"/>
<path d="M16.7543 3.05631C16.9561 3.04883 18.424 3.20085 18.748 3.30552C18.0003 2.73981 17.6564 2.84199 16.7543 3.05631Z" fill="#7D6B0F" stroke="black"/>
<path d="M14.5114 3.80356C14.5413 3.80107 19.4931 5.78978 19.2464 3.80356C19.0894 3.53691 18.9922 3.48956 18.7479 3.30514C18.424 3.20047 16.9561 3.04845 16.7543 3.05593C16.0166 3.23038 15.1792 3.42975 14.5114 3.80356Z" fill="#E4C202" stroke="black"/>
<path d="M10.524 4.80058C10.1851 5.13453 9.82372 5.6479 9.52716 6.04664C10.0854 5.40617 11.167 4.90276 11.5209 4.05295C11.5209 4.05295 11.3165 3.99314 11.2716 4.05295C11.0424 4.36197 10.7956 4.53393 10.524 4.80058Z" fill="#594C1C" stroke="black"/>
<path d="M12.0193 5.79784C12.7569 5.95235 13.4672 7.14358 14.0129 7.54232C13.1058 7.40027 12.5202 6.51806 11.77 6.04705C10.1252 7.28563 9.91092 11.5521 12.2685 10.0344C12.8616 9.58087 13.4348 8.78339 14.0129 8.28995C14.7357 7.67191 15.8546 6.97162 16.4851 6.27632C17.1181 5.58352 19.2264 5.6508 19.4956 4.80099C17.6464 5.86762 15.3637 4.168 13.7637 4.30257C13.0859 4.77358 12.5426 5.12497 12.0193 5.79784Z" fill="#DCBC03" stroke="black"/>
<path d="M12.2684 10.0335C12.9712 9.58247 13.4298 8.87222 14.0129 8.28906C13.4347 8.7825 12.8616 9.57998 12.2684 10.0335Z" fill="#716019" stroke="black"/>
<path d="M27.7196 25.734C26.4561 26.0854 25.4044 22.9952 26.6604 21.9335C27.9189 20.8719 27.9563 18.6066 28.5494 17.0938C29.1426 15.5811 28.3551 12.9968 26.4735 12.775C23.3783 12.8473 23.483 17.2085 23.483 19.5037C23.483 20.5554 23.4157 21.617 23.2338 22.4943C22.9497 23.8624 22.3067 26.3795 20.4924 26.4816C19.6027 26.5315 18.7729 25.9134 18.748 24.9864C22.7503 26.6112 23.3609 19.8078 19.7448 19.2545C19.4133 19.2545 19.0794 19.242 18.748 19.2545C16.849 19.3268 16.0939 20.7572 16.0066 22.4943C15.9792 23.0724 16.0066 23.6606 16.0066 24.2387C16.0066 24.468 15.9618 24.7596 16.0066 24.9864C16.0615 25.2705 16.368 25.9932 16.5051 26.2324C17.1829 27.4137 18.5536 27.8174 19.7448 28.2261C20.1934 28.2735 20.794 28.2934 21.2401 28.2261C22.7428 27.6778 23.3982 25.5396 24.2306 25.9832C25.2773 26.5439 26.1171 27.2617 27.2211 27.7277C30.1394 28.2137 30.274 25.0088 30.7101 22.9927C30.9269 23.2294 31.378 23.1272 31.4577 23.4911C32.148 23.7652 32.7761 24.169 33.4514 24.4879C35.5074 24.9066 36.8133 23.3864 36.9404 21.4974C37.2594 21.4301 37.6182 21.6893 37.688 21.9958C38.2911 22.2899 38.782 22.7659 39.4325 22.9927C40.9053 23.2394 41.947 22.2675 41.6754 20.7498C41.9869 20.8245 42.1015 21.2058 42.423 21.2482C42.9663 21.4974 43.3351 21.8214 43.9183 21.9958C47.1132 22.2151 45.7924 17.049 46.6596 15.5163C45.4185 15.4715 45.3637 17.5624 44.6659 18.5069C44.494 18.7411 44.5363 19.4738 43.9183 19.2545C43.7887 17.5374 44.0653 15.9325 44.1675 14.2703C43.7114 14.0435 42.9862 14.1855 42.6722 13.7719C42.129 13.6821 41.3464 13.3183 40.9278 13.2734C38.4705 13.2385 37.3665 15.3593 36.9229 17.2434C36.4768 19.1274 36.2575 22.0158 34.1991 22.4943C31.6222 23.0949 33.6458 18.781 34.528 17.3406C35.4102 15.9026 35.9111 11.4916 33.2022 11.0305C29.6709 10.8436 30.0995 15.8004 29.9625 18.0084C29.8254 20.2165 30.1369 25.0586 27.7196 25.734ZM33.4514 13.0242C33.8551 13.7719 33.4365 15.5786 33.2022 16.5132C33.0502 17.1213 32.7138 17.6845 32.4546 18.2577C31.7593 17.53 32.472 15.8104 32.4521 15.0154C32.4346 14.2204 32.9804 12.1121 33.4514 13.0242ZM26.9719 15.5163C27.0467 16.1169 26.805 16.5904 26.7227 17.0116C26.7227 17.2484 26.7576 17.525 26.7227 17.7592C26.6106 18.5119 26.2143 19.2769 25.9751 20.0021C25.8804 18.5019 25.4542 15.4216 26.9719 14.5195C26.9719 14.8509 26.9719 15.1849 26.9719 15.5163ZM41.4262 15.5163C41.5383 16.6029 40.9053 18.791 40.4293 19.7529C40.2624 20.0894 40.1726 20.5828 39.6817 20.5006C39.0163 19.4937 39.6692 17.8465 39.8761 16.9568C40.0804 16.0646 41.3215 14.2877 41.4262 15.5163ZM19.7448 21.9958C19.6551 22.7883 19.7872 22.9503 19.2464 23.4911C19.0296 23.7079 18.9374 24.1266 18.4987 23.9895C18.5162 22.8456 18.895 21.8014 19.2464 20.7498C19.9168 20.5828 20.318 21.7167 19.7448 21.9958Z" fill="#EAC602" stroke="black"/>
<path d="M34.1991 22.495C32.4845 22.1461 34.1517 19.5493 34.7548 18.5649C35.3554 17.5805 35.9361 15.5968 35.9436 14.0218C35.951 12.4468 35.0215 11.1284 33.2022 11.0312C35.9112 11.4923 35.4103 15.9033 34.528 17.3413C33.6458 18.7817 31.6222 23.0956 34.1991 22.495Z" fill="#9B4A16" stroke="black"/>
<path d="M33.2022 16.5134C33.2695 15.9302 33.5984 13.7347 33.4514 13.0244C32.9804 12.1123 32.4346 14.2207 32.4521 15.0156C32.472 15.8106 31.7593 17.5302 32.4546 18.2579C32.7137 17.6847 33.0502 17.1215 33.2022 16.5134Z" fill="#A25116" stroke="black"/>
<path d="M27.7196 25.7347C25.7508 23.4021 28.0311 21.1343 28.7712 18.8116C29.5114 16.4915 30.0646 12.6935 26.4735 12.7757C28.355 12.9975 29.1425 15.5818 28.5494 17.0946C27.9563 18.6073 27.9189 20.8726 26.6604 21.9342C25.4044 22.9959 26.4561 26.0861 27.7196 25.7347Z" fill="#994A16" stroke="black"/>
<path d="M33.2022 16.5134C33.4365 15.5788 33.8551 13.772 33.4514 13.0244C33.5985 13.7347 33.2695 15.9302 33.2022 16.5134Z" fill="#151007" stroke="black"/>
<path d="M42.6722 13.7719C42.7943 13.7918 42.9214 13.7719 42.9214 13.7719C42.2984 13.5999 41.7053 13.2834 40.9277 13.2734C41.3464 13.3183 42.1289 13.6821 42.6722 13.7719Z" fill="#682712" stroke="black"/>
<path d="M44.6659 18.5075C44.8778 17.7573 44.6958 16.5487 44.6659 15.7662C44.646 15.2652 44.8354 14.4005 44.4167 14.0217C44.1426 13.8422 43.2604 13.8074 42.9215 13.7725C42.9215 13.7725 42.7944 13.7924 42.6722 13.7725C42.9862 14.1862 43.7115 14.0441 44.1675 14.2709C44.0653 15.9331 43.7887 17.538 43.9183 19.2551C44.5363 19.4744 44.494 18.7417 44.6659 18.5075Z" fill="#9E4B16" stroke="black"/>
<path d="M44.6659 15.765C44.7132 15.1345 45.259 14.5663 44.4167 14.0205C44.8354 14.3993 44.646 15.2641 44.6659 15.765Z" fill="#552B0E" stroke="black"/>
<path d="M26.7227 17.7593C26.7377 17.4876 26.6654 16.8497 26.7227 16.5132C26.7103 16.1245 26.9545 15.7207 26.9719 15.5164C26.9719 15.1849 26.9719 14.851 26.9719 14.5195C25.4543 15.4217 25.8804 18.5019 25.9751 20.0022C26.2143 19.277 26.6106 18.5119 26.7227 17.7593Z" fill="#A55016" stroke="black"/>
<path d="M40.4294 19.7523C40.5191 19.2788 40.3098 18.2122 40.4119 17.492C40.5116 16.7693 41.3041 16.0316 41.4262 15.5157C41.3216 14.2871 40.0805 16.064 39.8761 16.9562C39.6693 17.8459 39.0164 19.4932 39.6817 20.5C40.1727 20.5822 40.2624 20.0888 40.4294 19.7523Z" fill="#9C4A16" stroke="black"/>
<path d="M46.6596 15.5166C45.7923 17.0493 47.1132 22.2154 43.9183 21.9961C45.7923 22.5543 46.4303 20.8846 46.8291 19.4242C47.2278 17.9614 48.1025 15.5689 46.6596 15.5166Z" fill="#994716" stroke="black"/>
<path d="M4.29372 25.7334C6.5117 25.9153 5.29305 24.1036 5.78898 23.2413C5.38526 23.3584 5.21081 23.9042 4.79214 23.9889C3.65823 24.2182 4.69246 21.5242 5.48245 20.6919C6.27245 19.8595 7.1422 18.6907 8.33842 18.0652C9.53463 17.4397 10.8604 16.3955 12.2685 17.011C14.5039 17.9879 12.3133 21.5815 10.7732 22.4937C10.5489 22.6257 10.4692 23.1989 10.0256 22.9921C9.76391 21.5342 11.9943 18.6558 9.77637 18.2571C7.58081 19.2091 8.00198 22.374 7.36649 24.5696C6.731 26.7651 7.55091 29.818 9.77637 30.7176C9.33775 30.9918 8.80444 31.0291 8.2811 30.9668C7.34905 30.8572 7.60324 30.1744 7.03504 29.97C5.97589 29.5887 6.77586 31.1712 7.34656 31.6522C7.91725 32.1331 8.57517 32.669 9.27794 32.9605C9.72403 33.0278 10.3246 33.0079 10.7732 32.9605C14.621 31.7992 18.0651 26.0798 13.5145 23.4905C16.0615 21.0109 15.6004 16.6397 12.0193 15.5157C8.43561 15.1893 5.93602 16.6322 3.35917 18.8178C0.78233 21.0034 0.707567 24.612 4.29372 25.7334ZM13.5145 24.9858C14.5288 26.0001 12.4429 29.2548 11.2716 29.4716C10.1178 29.6834 9.96577 26.8499 10.0256 25.7334C11.1396 25.5041 12.3781 24.1185 13.5145 24.9858Z" fill="#E9C602" stroke="black"/>
<path d="M10.7732 32.9614C10.4692 33.0536 10.2374 33.2704 9.77637 33.2106C13.0211 34.6062 16.854 29.1908 16.5051 26.2327C16.368 25.9934 16.0615 25.2707 16.0066 24.9866C15.573 24.3786 14.8927 23.9848 14.2622 23.4914C16.9337 20.8148 16.211 15.8979 12.0193 15.5166C15.6004 16.6405 16.0615 21.0117 13.5145 23.4914C18.0651 26.0807 14.621 31.8001 10.7732 32.9614Z" fill="#974816" stroke="black"/>
<path d="M26.7227 16.5134C26.7277 16.6381 26.7227 16.8873 26.7227 17.0119C26.8049 16.5907 27.0467 16.1172 26.9719 15.5166C26.9545 15.721 26.7102 16.1247 26.7227 16.5134Z" fill="#342A16" stroke="black"/>
<path d="M40.4293 19.7532C40.9053 18.7912 41.5383 16.6032 41.4262 15.5166C41.3041 16.0325 40.5116 16.7701 40.4119 17.4928C40.3097 18.2131 40.519 19.2797 40.4293 19.7532Z" fill="#010101" stroke="black"/>
<path d="M26.7228 17.7597C26.7577 17.5255 26.7228 17.2488 26.7228 17.0121C26.7228 16.8875 26.7278 16.6383 26.7228 16.5137C26.6655 16.8501 26.7377 17.4881 26.7228 17.7597Z" fill="#702F13" stroke="black"/>
<path d="M4.7921 23.9897C5.87617 22.9455 4.78961 21.7642 6.34967 20.563C7.90974 19.3593 9.96822 16.5258 12.2684 17.0117C10.8604 16.3962 9.53459 17.4404 8.33838 18.0659C7.14216 18.6914 6.27242 19.8602 5.48242 20.6926C4.69242 21.525 3.65819 24.2189 4.7921 23.9897Z" fill="#984916" stroke="black"/>
<path d="M9.77637 18.2583C11.9943 18.657 9.76391 21.5354 10.0256 22.9933C10.4692 23.2001 10.5489 22.6269 10.7732 22.4948C11.6255 21.0918 12.1489 17.5829 9.77637 18.2583Z" fill="#9A4B16" stroke="black"/>
<path d="M18.7479 19.2552C19.0794 19.2427 19.4133 19.2552 19.7448 19.2552C19.8694 19.2552 19.994 19.2552 19.994 19.2552C19.4607 19.1306 19.2837 19.153 18.7479 19.2552Z" fill="#430D0B" stroke="black"/>
<path d="M20.4924 26.481C20.2532 26.0972 19.6426 26.0175 19.4956 25.4842C23.6499 26.2941 24.0511 19.3337 19.994 19.2539C19.994 19.2539 19.8694 19.2539 19.7448 19.2539C23.3608 19.8072 22.7503 26.6106 18.7479 24.9858C18.7728 25.9128 19.6027 26.5309 20.4924 26.481Z" fill="#974716" stroke="black"/>
<path d="M23.2338 22.4944C23.4157 21.6172 23.483 20.5556 23.483 19.5039C23.4057 20.3039 23.321 21.5275 23.2338 22.4944Z" fill="#796709" stroke="black"/>
<path d="M6.28741 22.2445C7.37647 22.6557 7.69546 21.0408 7.28426 20.5C6.99517 21.1006 6.36467 21.5641 6.28741 22.2445Z" fill="#BDA213" stroke="black"/>
<path d="M19.2464 23.4904C19.3211 23.3683 20.0164 20.8588 19.7448 21.9952C20.318 21.7161 19.9167 20.5821 19.2464 20.7491C18.895 21.8008 18.5162 22.845 18.4987 23.9889C18.9373 24.1259 19.0295 23.7073 19.2464 23.4904Z" fill="#9C4F15" stroke="black"/>
<path d="M39.4325 22.9929C40.4144 23.3318 42.899 23.1026 42.423 21.2484C42.1015 21.2061 41.9869 20.8248 41.6754 20.75C41.947 22.2677 40.9053 23.2396 39.4325 22.9929Z" fill="#9B4816" stroke="black"/>
<path d="M19.2464 23.491C19.7872 22.9502 19.6551 22.7882 19.7448 21.9957C20.0165 20.8593 19.3212 23.3689 19.2464 23.491Z" fill="#080505" stroke="black"/>
<path d="M33.4514 24.4886C34.8644 25.1565 37.9796 24.2144 37.688 21.9965C37.6182 21.6899 37.2594 21.4307 36.9404 21.498C36.8133 23.3871 35.5074 24.9072 33.4514 24.4886Z" fill="#984B15" stroke="black"/>
<path d="M16.0067 24.2386C16.0067 23.6604 15.9793 23.0723 16.0067 22.4941C15.902 23.1371 15.8596 23.5682 16.0067 24.2386Z" fill="#7B6909" stroke="black"/>
<path d="M5.78897 23.2418C5.29304 24.1041 6.51168 25.9159 4.2937 25.734C5.07872 25.9807 6.08802 25.8984 6.55405 25.0038C7.02256 24.1116 6.59891 23.0076 5.78897 23.2418Z" fill="#894014" stroke="black"/>
<path d="M27.2212 27.7282C29.4068 28.6503 32.0459 25.884 31.4578 23.4916C31.378 23.1277 30.927 23.2299 30.7101 22.9932C30.274 25.0093 30.1395 28.2141 27.2212 27.7282Z" fill="#964815" stroke="black"/>
<path d="M11.2716 29.4723C11.5109 28.8966 10.3346 26.8182 10.7732 26.2326C11.2118 25.6469 12.8292 24.5504 13.5145 24.9865C12.3781 24.1193 11.1395 25.5049 10.0256 25.7342C9.96575 26.8506 10.1178 29.6842 11.2716 29.4723Z" fill="#9A4916" stroke="black"/>
<path d="M11.2717 29.4715C12.443 29.2547 14.5289 26 13.5146 24.9857C12.8292 24.5496 11.2119 25.6462 10.7732 26.2318C10.3346 26.8174 11.5109 28.8959 11.2717 29.4715Z" fill="#050601" stroke="black"/>
<path d="M21.2401 28.2259C20.9286 28.3405 20.7093 28.5349 20.2432 28.4751C21.5117 29.0209 24.3128 27.7075 24.2306 25.983C23.3982 25.5394 22.7428 27.6776 21.2401 28.2259Z" fill="#934515" stroke="black"/>
<path d="M35.9435 27.4786C35.3405 27.344 34.6751 27.8599 34.6975 28.4754C34.3062 27.2667 32.2776 27.9097 32.7038 29.223C32.2602 28.0542 30.8347 27.9994 30.7101 29.4723C29.955 29.1782 31.0316 28.2511 30.4609 27.977C29.8478 28.1913 29.8952 28.9763 29.7133 29.4723C29.0454 28.4804 26.6679 29.081 26.4735 30.4691C26.1271 28.3035 23.9764 30.9949 22.7354 29.7215C22.379 30.332 22.5036 31.0822 22.2369 31.7152C21.9678 31.1769 21.7011 29.9084 20.7417 30.7183C20.5672 27.6455 16.3356 30.3445 17.0035 32.4628C18.1723 32.0989 17.3873 33.8883 18.4988 33.7088C18.0651 32.2958 19.5106 32.4329 20.2432 31.7152C19.9168 33.2129 22.4812 32.7419 22.4861 31.7152C23.306 32.8565 24.6094 31.613 24.4798 30.4691C24.8661 31.7949 25.1029 31.8298 25.4767 30.4691C25.2 32.2535 26.7701 31.1569 27.7196 31.2167C26.3439 33.5294 29.15 32.0765 29.9625 31.7152C29.4616 31.142 29.1849 31.0473 29.4641 30.2199C30.3512 31.4485 32.0509 29.5321 33.2022 30.2199C33.277 29.6318 32.9455 28.7196 33.7006 28.4754C33.6259 28.9963 33.1524 29.7364 33.9499 29.9707C34.8944 29.2903 37.1398 29.9806 36.9404 27.977C36.123 28.8916 36.3199 28.4131 35.9435 27.4786ZM35.6943 27.977C35.6819 29.3078 34.6626 28.5676 35.6943 27.977ZM31.707 28.7246C31.9412 30.3869 30.603 29.6318 31.707 28.7246ZM29.2148 29.223C28.8983 31.0373 27.9663 29.8286 29.2148 29.223ZM18.4988 32.2136C18.6732 31.3588 19.1941 30.3694 19.2464 29.7215C20.804 29.9607 19.5679 32.0915 18.4988 32.2136ZM27.9688 29.9707C27.595 31.4834 26.7452 30.3221 27.9688 29.9707ZM21.4893 30.9675C21.4768 32.2983 20.4576 31.5582 21.4893 30.9675ZM28.4672 31.7152C28.0635 32.7718 27.266 31.4934 28.4672 31.7152Z" fill="#854114" stroke="black"/>
<path d="M35.6944 27.9775C35.6819 29.3083 34.6626 28.5682 35.6944 27.9775Z" fill="black" stroke="black"/>
<path d="M20.2432 28.4748C20.7093 28.5346 20.9286 28.3402 21.2401 28.2256C20.794 28.2929 20.1934 28.2729 19.7448 28.2256C19.7797 28.238 20.171 28.4424 20.2432 28.4748Z" fill="#BD7E12" stroke="black"/>
<path d="M31.7069 28.7246C31.9412 30.3868 30.6029 29.6317 31.7069 28.7246Z" fill="#040401" stroke="black"/>
<path d="M29.2148 29.2236C28.8983 31.0379 27.9662 29.8292 29.2148 29.2236Z" fill="#030502" stroke="black"/>
<path d="M7.03503 29.9711C7.60324 30.1755 7.34904 30.8583 8.28109 30.968C8.2462 30.9555 7.27926 29.0192 7.03503 29.9711Z" fill="#974616" stroke="black"/>
<path d="M18.4987 32.2128C19.5678 32.0907 20.8039 29.9599 19.2464 29.7207C19.194 30.3687 18.6732 31.358 18.4987 32.2128Z" fill="#030400" stroke="black"/>
<path d="M27.9688 29.9707C27.5949 31.4834 26.7451 30.3221 27.9688 29.9707Z" fill="#2A190C" stroke="black"/>
<path d="M34.9467 30.719C35.0812 29.438 34.2738 30.6093 34.4482 31.2174C33.8352 30.0361 32.8408 31.1925 31.7069 30.9682C31.6022 32.917 32.0234 30.9607 32.4545 32.2142C32.4795 31.2772 34.9716 32.1195 36.1927 31.4666C35.9535 30.9283 35.465 29.7022 34.9467 30.719Z" fill="#773B13" stroke="black"/>
<path d="M37.4388 30.7188C37.0276 31.9748 35.8065 30.8458 37.4388 30.7188Z" fill="#733813" stroke="black"/>
<path d="M21.4893 30.9668C21.4768 32.2976 20.4575 31.5574 21.4893 30.9668Z" fill="black" stroke="black"/>
<path d="M31.2085 31.2173C30.5556 30.9257 29.9026 31.9549 30.5406 32.3786C31.1761 32.8022 31.7717 31.4665 31.2085 31.2173Z" fill="#6C3612" stroke="black"/>
<path d="M34.6975 34.2073C33.9349 35.4808 35.1386 36.7468 34.9467 37.6963C37.2893 36.9063 40.8256 33.6117 38.1864 31.2168C37.0749 32.266 35.8887 33.2703 34.6975 34.2073Z" fill="#DDBD02" stroke="black"/>
<path d="M28.4672 31.7149C28.0635 32.7715 27.266 31.4931 28.4672 31.7149Z" fill="black" stroke="black"/>
<path d="M9.77638 33.2101C10.2374 33.27 10.4692 33.0531 10.7732 32.9609C10.3246 33.0083 9.72404 33.0282 9.27795 32.9609C9.37265 33.0008 9.64679 33.1553 9.77638 33.2101Z" fill="#B36E14" stroke="black"/>
<path d="M11.0224 33.958C10.6312 33.9929 10.1676 33.9929 9.77637 33.958C10.3172 34.0851 10.4692 34.0876 11.0224 33.958Z" fill="#74641B" stroke="black"/>
<path d="M33.9499 34.9547C33.7978 35.4307 33.9673 37.6935 34.4483 37.9452C34.553 37.8929 34.8794 37.7234 34.9467 37.696C35.1386 36.7465 33.9349 35.4805 34.6975 34.207C34.4234 34.4238 34.209 34.7304 33.9499 34.9547Z" fill="#8A7505" stroke="black"/>
<path d="M34.4483 37.9456C33.9673 37.6939 33.7978 35.4311 33.9499 34.9551C32.654 35.5956 31.4029 36.4553 29.9625 36.6996C29.8229 39.5505 32.9356 38.7207 34.4483 37.9456Z" fill="#E3C105" stroke="black"/>
<path d="M24.4798 37.4464C25.3819 37.4962 26.319 37.4713 27.2211 37.4464C26.4311 37.3816 25.2723 37.4115 24.4798 37.4464Z" fill="#000016" stroke="black"/>
</svg>
