<svg width="191" height="160" viewBox="0 0 191 160" fill="none" xmlns="http://www.w3.org/2000/svg">
<rect x="62.5408" y="23.4854" width="56" height="50" fill="#050702"/>
<path d="M58.5408 3.4853C57.6808 3.8053 56.2708 4.1253 55.5408 4.4853C54.7208 4.8953 53.5908 5.9353 52.5408 6.4853C51.2108 7.1753 49.8008 7.6553 48.5408 8.4853C47.0508 9.4653 45.0108 11.1253 43.5408 12.4853C42.1208 15.8953 37.7808 17.9153 35.5408 20.4853C28.4808 27.7153 30.9708 40.7453 40.5408 44.4853C38.9808 48.2053 36.4008 51.5553 35.5408 55.4853C15.1508 56.7953 -15.2792 86.8753 11.5408 101.485C12.3208 101.915 14.0208 103.335 14.5408 103.485C18.5908 104.615 21.2108 101.385 24.5408 100.485C27.5908 108.115 18.5908 115.105 21.7708 121.255C24.9508 127.405 29.7008 131.865 36.5408 132.485C38.1108 132.625 39.9708 132.625 41.5408 132.485C48.2508 130.925 53.4608 127.385 58.7908 133.235C64.1208 139.085 68.2608 139.405 74.5208 142.505C80.7708 145.605 88.6708 146.115 95.5408 146.485C98.7208 146.345 103.371 146.225 106.541 146.485C108.411 146.685 109.601 144.865 111.541 145.485C111.151 157.325 124.221 160.795 133.541 157.485C135.531 156.775 138.461 154.635 140.541 153.485C150.061 148.235 160.301 139.475 162.531 128.495C164.761 117.515 153.021 122.485 155.541 114.485C155.941 113.225 157.041 112.395 157.541 111.485C161.521 103.235 163.421 94.3953 167.541 86.4853C183.061 95.4353 191.901 71.5153 189.541 59.4853C189.421 58.8753 187.411 54.8953 186.541 54.4853C183.921 54.1253 181.171 54.7553 178.541 54.4853C175.781 47.2353 163.781 47.7753 156.541 46.4853C155.601 43.5753 153.121 41.4253 152.541 38.4853C149.041 37.7453 145.981 31.6053 143.541 29.4853C139.411 25.8853 134.351 23.0553 129.541 20.4853C127.831 19.5753 126.081 18.2153 124.541 17.4853C116.171 13.5253 105.091 11.7853 95.5408 12.4853C93.3008 12.6453 91.6108 13.1453 89.5408 13.4853C87.6408 13.7953 83.5608 14.4853 82.5408 13.4853C81.3308 12.2853 81.9908 12.1053 81.5408 10.4853C81.3208 9.7053 80.8508 8.1253 80.5408 7.4853C80.4808 7.3553 79.6008 5.5753 79.5408 5.4853C79.0208 4.6653 77.2708 3.4753 76.5408 2.4853C76.5408 2.4853 75.9208 2.7053 75.5408 2.4853C72.7608 0.895296 65.7408 0.615296 62.5408 1.4853C61.7708 1.6953 59.6108 3.0853 58.5408 3.4853ZM72.5408 9.4853C73.5208 10.2253 73.9108 10.4153 74.5408 11.4853C75.1608 12.5453 76.0608 13.8253 75.5408 15.4853C74.4608 18.8953 66.0008 18.6253 63.4608 21.4053C60.9308 24.1953 56.4408 27.0053 53.5408 29.4853C51.2008 31.8253 49.3608 34.6753 46.5408 36.4853C37.0808 42.5753 37.9408 25.4553 44.5408 20.4853C44.8108 20.2853 45.3308 19.7553 45.5408 19.4853C47.6408 16.7853 49.8208 15.3753 52.5408 13.4853C53.5408 12.7853 54.5008 12.0653 55.5408 11.4853C58.2208 9.9853 61.5808 9.1853 64.5408 8.4853C68.1608 7.6253 69.5408 7.2153 72.5408 9.4853ZM83.5408 37.4853C83.4208 37.2753 82.5408 37.4853 82.5408 37.4853C81.0408 40.5753 78.2408 41.3353 77.5408 37.4853C77.5208 37.3953 76.5408 37.4853 76.5408 37.4853C75.5908 42.1553 71.1908 47.6553 65.5408 46.4853C59.8808 45.3053 61.6008 34.4253 67.5408 37.4853C68.4408 33.2353 66.7108 32.7353 63.5408 32.4853C64.3208 25.6353 77.0308 24.1453 76.5408 32.4853C76.5408 32.5153 77.5408 32.4853 77.5408 32.4853C79.8808 30.8853 81.6408 31.0253 82.5408 33.4853C83.0008 33.3453 83.5408 33.4853 83.5408 33.4853C85.2608 20.9053 87.9008 32.1253 86.5408 37.4853C86.7108 33.8553 90.1808 31.0253 88.5408 27.4853C92.0108 27.3453 89.9808 32.3353 90.5408 34.4853C92.0708 29.1353 95.0908 28.0453 94.5408 35.4853C96.8908 33.3553 94.2908 28.9753 96.5408 26.4853C99.1408 31.4453 102.591 26.1353 106.541 25.4853C107.211 28.0453 106.921 31.5453 108.541 33.4853C108.991 28.6053 110.141 27.0953 113.541 25.4853C116.301 26.2853 115.041 31.1353 117.541 27.4853C115.001 32.2253 117.371 35.4653 114.561 40.5053C111.761 45.5553 107.351 37.9753 111.541 34.4853C108.451 35.2453 106.091 35.6653 104.541 32.4853C104.501 37.0553 98.7908 37.3453 97.5408 33.4853C96.2108 38.1553 90.6408 38.5353 87.5408 36.4853C88.2008 39.2553 84.0608 40.4653 83.5408 37.4853ZM134.541 86.4853C142.801 84.5653 143.681 72.9753 145.471 65.4153C147.251 57.8553 151.681 49.3453 161.541 49.4853C164.661 49.5253 167.041 50.7953 169.541 51.4853C170.901 51.6253 174.441 51.7653 175.541 52.4853C178.921 54.6753 176.731 56.9553 176.541 59.4853C176.661 62.6253 177.391 67.4753 176.541 70.4853C179.341 66.6953 179.561 58.3053 184.541 58.4853C190.331 58.6953 186.821 68.2953 185.221 74.1653C183.621 80.0253 181.061 86.7253 173.541 84.4853C171.201 83.7853 169.721 82.4853 167.541 81.4853C169.451 88.9253 159.481 89.8453 155.541 88.4853C152.931 87.5753 150.961 85.6653 148.541 84.4853C149.711 93.3853 137.211 97.1653 131.541 94.4853C128.831 93.2053 126.311 91.5853 123.541 90.4853C125.901 100.085 115.311 111.185 106.541 107.485C102.111 105.615 98.7408 102.735 94.5408 100.485C94.8708 107.405 83.6308 112.675 78.5408 110.485C78.2508 110.355 76.6808 109.535 76.5408 109.485C71.7608 107.845 66.2608 106.225 63.5408 101.485C64.9408 113.355 49.5608 135.085 36.5408 129.485C36.0208 129.265 34.9208 128.645 34.5408 128.485C31.7208 127.315 29.0808 125.165 26.7908 123.235C24.5008 121.305 21.2908 114.955 25.5408 116.485C26.5208 112.665 30.4008 120.435 30.5408 120.485C32.6408 120.735 34.7808 120.585 36.5408 119.485C27.6108 115.875 24.3208 103.625 26.8708 94.8153C29.4208 86.0053 27.7308 73.3053 36.5408 69.4853C46.0608 66.7753 43.9608 80.8553 40.5408 86.4853C46.7208 82.8253 55.5108 68.4053 46.5408 64.4853C37.3108 62.5353 29.0508 73.9053 22.7908 78.7353C16.5308 83.5553 20.8908 88.2953 16.5408 92.4853C18.2208 92.1453 18.9208 89.9553 20.5408 89.4853C23.7908 88.5453 25.4908 92.9753 23.6108 96.5553C21.7408 100.145 17.6908 100.475 14.5408 99.4853C0.150774 94.9853 0.450774 80.5053 10.7908 71.7353C21.1308 62.9653 31.1608 57.1753 45.5408 58.4853C62.3608 60.0153 65.2608 79.7453 54.5408 90.4853C57.0708 92.4653 59.8008 94.0453 61.5408 96.4853C61.3608 95.5753 61.5408 94.4053 61.5408 93.4853C60.9508 90.7953 61.1208 89.0653 61.5408 86.4853C61.8908 79.5153 64.9208 73.7753 72.5408 73.4853C74.6908 73.0753 75.4008 72.9853 77.5408 73.4853C93.8208 73.8053 92.2108 101.735 75.5408 98.4853C76.1308 100.625 78.5808 100.945 79.5408 102.485C86.8208 102.075 89.4008 91.9753 90.5408 86.4853C90.8908 82.6053 91.2308 77.6953 91.5408 74.4853C91.5408 65.2753 91.1208 47.7753 103.541 47.4853C117.951 47.1553 115.731 62.3953 112.761 71.7053C109.791 81.0253 100.641 90.1253 108.541 99.4853C118.241 96.7753 116.991 77.3453 117.541 68.4853C118.091 59.6253 116.371 39.7353 130.541 40.4853C137.841 40.8753 141.571 46.1653 141.541 52.4853C141.511 58.8053 139.181 66.7653 136.771 70.7153C134.351 74.6653 127.661 85.0853 134.541 86.4853ZM84.5408 61.4853C84.8908 64.3453 84.2708 66.8753 83.5408 69.4853C78.7108 67.2553 72.7108 66.6353 67.5408 68.4853C68.1608 65.0553 69.9208 61.9553 70.5408 58.4853C59.9208 53.1253 73.8508 46.6053 79.7608 46.7053C85.6808 46.8053 96.7308 61.2053 84.5408 61.4853ZM22.5408 85.4853C22.8508 82.7553 25.3808 80.8953 26.5408 78.4853C28.1908 80.6553 26.9108 87.1353 22.5408 85.4853ZM141.541 106.485C143.051 110.235 142.261 112.155 145.541 108.485C146.341 116.525 137.331 113.755 133.541 116.485C130.341 115.545 132.241 112.575 132.541 110.485C129.511 111.465 130.841 115.125 130.541 117.485C125.921 114.725 119.101 122.415 115.541 117.485C114.421 120.805 115.531 121.185 117.541 123.485C114.281 124.935 103.021 130.765 108.541 121.485C104.731 121.245 98.4308 125.645 99.5408 118.485C98.0408 123.945 97.0908 123.805 95.5408 118.485C96.0608 123.075 90.8308 128.065 87.5408 123.485C87.5208 127.605 77.2308 129.495 78.5408 123.485C75.6008 126.365 69.8008 125.815 71.5408 131.485C67.0808 132.205 70.2308 125.025 65.5408 126.485C62.8608 117.985 79.8408 107.155 80.5408 119.485C84.3908 116.235 85.4608 121.325 86.5408 123.485C87.6108 120.945 87.1108 117.935 88.5408 115.485C93.5208 120.595 102.151 109.795 103.541 118.485C104.321 112.915 113.861 110.505 116.541 114.485C117.271 112.495 117.081 109.345 119.541 108.485C121.831 109.585 117.511 113.305 120.541 114.485C121.041 108.575 126.761 108.795 128.541 113.485C126.831 108.215 134.971 105.635 136.541 110.485C136.451 108.015 139.121 105.945 141.541 106.485ZM137.541 119.485C139.621 115.405 141.581 120.325 142.541 122.485C137.641 125.105 127.641 121.725 127.541 125.485C125.811 120.455 124.121 128.305 124.541 120.485C129.091 121.385 133.081 116.745 135.541 121.485C134.841 119.045 138.081 114.345 137.541 119.485ZM147.541 119.485C145.891 124.525 140.991 119.995 147.541 119.485ZM122.541 121.485C124.801 122.485 122.411 127.845 119.861 126.145C117.301 124.445 119.921 120.315 122.541 121.485ZM137.541 147.485C137.271 147.595 135.961 148.275 135.541 148.485C129.471 151.595 116.981 154.925 117.541 143.485C123.321 142.505 128.341 139.055 133.541 136.485C134.581 135.585 135.441 134.355 136.541 133.485C141.321 129.725 146.081 125.695 150.541 121.485C161.131 131.095 146.941 144.315 137.541 147.485Z" stroke="#050702" stroke-width="0.3"/>
<path d="M64.5408 8.4852C65.3508 8.4552 71.2408 9.0652 72.5408 9.4852C69.5408 7.2152 68.1608 7.6252 64.5408 8.4852Z" stroke="#7D6B0F" stroke-width="0.3"/>
<path d="M55.5408 11.4854C55.6608 11.4754 75.5308 19.4554 74.5408 11.4854C73.9108 10.4154 73.5208 10.2254 72.5408 9.48544C71.2408 9.06544 65.3508 8.45544 64.5408 8.48544C61.5808 9.18544 58.2208 9.98544 55.5408 11.4854Z" stroke="#E4C202" stroke-width="0.3"/>
<path d="M52.5408 13.4854C58.9608 12.9454 68.1208 19.7654 75.5408 15.4854C76.0608 13.8254 75.1608 12.5454 74.5408 11.4854C75.5308 19.4554 55.6608 11.4754 55.5408 11.4854C54.5008 12.0654 53.5408 12.7854 52.5408 13.4854Z" stroke="#957E03" stroke-width="0.3"/>
<path d="M39.5408 15.4856C38.1808 16.8256 36.7308 18.8856 35.5408 20.4856C37.7808 17.9156 42.1208 15.8956 43.5408 12.4856C43.5408 12.4856 42.7208 12.2456 42.5408 12.4856C41.6208 13.7256 40.6308 14.4156 39.5408 15.4856Z" stroke="#594C1C" stroke-width="0.3"/>
<path d="M45.5408 19.4858C48.5008 20.1058 51.3508 24.8858 53.5408 26.4858C49.9008 25.9158 47.5508 22.3758 44.5408 20.4858C37.9408 25.4558 37.0808 42.5758 46.5408 36.4858C48.9208 34.6658 51.2208 31.4658 53.5408 29.4858C56.4408 27.0058 60.9308 24.1958 63.4608 21.4058C66.0008 18.6258 74.4608 18.8958 75.5408 15.4858C68.1208 19.7658 58.9608 12.9458 52.5408 13.4858C49.8208 15.3758 47.6408 16.7858 45.5408 19.4858Z" stroke="#DCBC03" stroke-width="0.3"/>
<path d="M44.5408 20.4854C47.5508 22.3754 49.9008 25.9154 53.5408 26.4854C51.3508 24.8854 48.5008 20.1054 45.5408 19.4854C45.3308 19.7554 44.8108 20.2854 44.5408 20.4854Z" stroke="#AC9301" stroke-width="0.3"/>
<path d="M46.5408 36.4854C49.3608 34.6754 51.2008 31.8254 53.5408 29.4854C51.2208 31.4654 48.9208 34.6654 46.5408 36.4854Z" stroke="#716019" stroke-width="0.3"/>
<path d="M108.541 99.4855C103.471 100.895 99.2508 88.4955 104.291 84.2355C109.341 79.9755 109.491 70.8855 111.871 64.8155C114.251 58.7455 111.091 48.3755 103.541 47.4855C91.1208 47.7755 91.5408 65.2755 91.5408 74.4855C91.5408 78.7055 91.2708 82.9655 90.5408 86.4855C89.4008 91.9755 86.8208 102.075 79.5408 102.485C75.9708 102.685 72.6408 100.205 72.5408 96.4855C88.6008 103.005 91.0508 75.7055 76.5408 73.4855C75.2108 73.4855 73.8708 73.4355 72.5408 73.4855C64.9208 73.7755 61.8908 79.5155 61.5408 86.4855C61.4308 88.8055 61.5408 91.1655 61.5408 93.4855C61.5408 94.4055 61.3608 95.5755 61.5408 96.4855C61.7608 97.6255 62.9908 100.525 63.5408 101.485C66.2608 106.225 71.7608 107.845 76.5408 109.485C78.3408 109.675 80.7508 109.755 82.5408 109.485C88.5708 107.285 91.2008 98.7055 94.5408 100.485C98.7408 102.735 102.111 105.615 106.541 107.485C118.251 109.435 118.791 96.5755 120.541 88.4855C121.411 89.4355 123.221 89.0255 123.541 90.4855C126.311 91.5855 128.831 93.2055 131.541 94.4855C139.791 96.1655 145.031 90.0655 145.541 82.4855C146.821 82.2155 148.261 83.2555 148.541 84.4855C150.961 85.6655 152.931 87.5755 155.541 88.4855C161.451 89.4755 165.631 85.5755 164.541 79.4855C165.791 79.7855 166.251 81.3155 167.541 81.4855C169.721 82.4855 171.201 83.7855 173.541 84.4855C186.361 85.3655 181.061 64.6355 184.541 58.4855C179.561 58.3055 179.341 66.6955 176.541 70.4855C175.851 71.4255 176.021 74.3655 173.541 73.4855C173.021 66.5955 174.131 60.1555 174.541 53.4855C172.711 52.5755 169.801 53.1455 168.541 51.4855C166.361 51.1255 163.221 49.6655 161.541 49.4855C151.681 49.3455 147.251 57.8555 145.471 65.4155C143.681 72.9755 142.801 84.5655 134.541 86.4855C124.201 88.8955 132.321 71.5855 135.861 65.8055C139.401 60.0355 141.411 42.3355 130.541 40.4855C116.371 39.7355 118.091 59.6255 117.541 68.4855C116.991 77.3455 118.241 96.7755 108.541 99.4855ZM131.541 48.4855C133.161 51.4855 131.481 58.7355 130.541 62.4855C129.931 64.9255 128.581 67.1855 127.541 69.4855C124.751 66.5655 127.611 59.6655 127.531 56.4755C127.461 53.2855 129.651 44.8255 131.541 48.4855ZM105.541 58.4855C105.841 60.8955 104.871 62.7955 104.541 64.4855C104.541 65.4355 104.681 66.5455 104.541 67.4855C104.091 70.5055 102.501 73.5755 101.541 76.4855C101.161 70.4655 99.4508 58.1055 105.541 54.4855C105.541 55.8155 105.541 57.1555 105.541 58.4855ZM163.541 58.4855C163.991 62.8455 161.451 71.6255 159.541 75.4855C158.871 76.8355 158.511 78.8155 156.541 78.4855C153.871 74.4455 156.491 67.8355 157.321 64.2655C158.141 60.6855 163.121 53.5555 163.541 58.4855ZM76.5408 84.4855C76.1808 87.6655 76.7108 88.3155 74.5408 90.4855C73.6708 91.3555 73.3008 93.0355 71.5408 92.4855C71.6108 87.8955 73.1308 83.7055 74.5408 79.4855C77.2308 78.8155 78.8408 83.3655 76.5408 84.4855Z" stroke="#EAC602" stroke-width="0.3"/>
<path d="M134.541 86.4854C127.661 85.0854 134.351 74.6654 136.771 70.7154C139.181 66.7654 141.511 58.8054 141.541 52.4854C141.571 46.1654 137.841 40.8754 130.541 40.4854C141.411 42.3354 139.401 60.0354 135.861 65.8054C132.321 71.5854 124.201 88.8954 134.541 86.4854Z" stroke="#9B4A16" stroke-width="0.3"/>
<path d="M130.541 62.4854C130.811 60.1454 132.131 51.3354 131.541 48.4854C129.651 44.8254 127.461 53.2854 127.531 56.4754C127.611 59.6654 124.751 66.5654 127.541 69.4854C128.581 67.1854 129.931 64.9254 130.541 62.4854Z" stroke="#A25116" stroke-width="0.3"/>
<path d="M108.541 99.4857C100.641 90.1257 109.791 81.0257 112.761 71.7057C115.731 62.3957 117.951 47.1557 103.541 47.4857C111.091 48.3757 114.251 58.7457 111.871 64.8157C109.491 70.8857 109.341 79.9757 104.291 84.2357C99.2507 88.4957 103.471 100.896 108.541 99.4857Z" stroke="#994A16" stroke-width="0.3"/>
<path d="M130.541 62.4854C131.481 58.7354 133.161 51.4854 131.541 48.4854C132.131 51.3354 130.811 60.1454 130.541 62.4854Z" stroke="#151007" stroke-width="0.3"/>
<path d="M168.541 51.4854C169.031 51.5654 169.541 51.4854 169.541 51.4854C167.041 50.7954 164.661 49.5254 161.541 49.4854C163.221 49.6654 166.361 51.1254 168.541 51.4854Z" stroke="#682712" stroke-width="0.3"/>
<path d="M176.541 70.4854C177.391 67.4754 176.661 62.6254 176.541 59.4854C176.461 57.4754 177.221 54.0054 175.541 52.4854C174.441 51.7654 170.901 51.6254 169.541 51.4854C169.541 51.4854 169.031 51.5654 168.541 51.4854C169.801 53.1454 172.711 52.5754 174.541 53.4854C174.131 60.1554 173.021 66.5954 173.541 73.4854C176.021 74.3654 175.851 71.4254 176.541 70.4854Z" stroke="#9E4B16" stroke-width="0.3"/>
<path d="M176.541 59.4854C176.731 56.9554 178.921 54.6754 175.541 52.4854C177.221 54.0054 176.461 57.4754 176.541 59.4854Z" stroke="#552B0E" stroke-width="0.3"/>
<path d="M104.541 67.4854C104.601 66.3954 104.311 63.8354 104.541 62.4854C104.491 60.9254 105.471 59.3054 105.541 58.4854C105.541 57.1554 105.541 55.8154 105.541 54.4854C99.4508 58.1054 101.161 70.4654 101.541 76.4854C102.501 73.5754 104.091 70.5054 104.541 67.4854Z" stroke="#A55016" stroke-width="0.3"/>
<path d="M159.541 75.4853C159.901 73.5853 159.061 69.3053 159.471 66.4153C159.871 63.5153 163.051 60.5553 163.541 58.4853C163.121 53.5553 158.141 60.6853 157.321 64.2653C156.491 67.8353 153.871 74.4453 156.541 78.4853C158.511 78.8153 158.871 76.8353 159.541 75.4853Z" stroke="#9C4A16" stroke-width="0.3"/>
<path d="M184.541 58.4854C181.061 64.6354 186.361 85.3654 173.541 84.4854C181.061 86.7254 183.621 80.0254 185.221 74.1654C186.821 68.2954 190.331 58.6954 184.541 58.4854Z" stroke="#994716" stroke-width="0.3"/>
<path d="M14.5408 99.4854C23.4408 100.215 18.5508 92.9454 20.5408 89.4854C18.9208 89.9554 18.2208 92.1454 16.5408 92.4854C11.9908 93.4054 16.1408 82.5954 19.3108 79.2554C22.4808 75.9154 25.9707 71.2254 30.7708 68.7154C35.5708 66.2054 40.8908 62.0154 46.5408 64.4854C55.5108 68.4054 46.7208 82.8254 40.5408 86.4854C39.6408 87.0154 39.3208 89.3154 37.5408 88.4854C36.4908 82.6354 45.4408 71.0854 36.5408 69.4854C27.7308 73.3054 29.4208 86.0054 26.8708 94.8154C24.3208 103.625 27.6108 115.875 36.5408 119.485C34.7808 120.585 32.6408 120.735 30.5408 120.485C26.8008 120.045 27.8208 117.305 25.5408 116.485C21.2908 114.955 24.5008 121.305 26.7908 123.235C29.0808 125.165 31.7208 127.315 34.5408 128.485C36.3308 128.755 38.7408 128.675 40.5408 128.485C55.9808 123.825 69.8008 100.875 51.5408 90.4854C61.7608 80.5354 59.9108 62.9954 45.5408 58.4854C31.1608 57.1754 21.1308 62.9654 10.7908 71.7354C0.450751 80.5054 0.15075 94.9854 14.5408 99.4854ZM51.5408 96.4854C55.6108 100.555 47.2408 113.615 42.5408 114.485C37.9108 115.335 37.3008 103.965 37.5408 99.4854C42.0108 98.5654 46.9808 93.0054 51.5408 96.4854Z" stroke="#E9C602" stroke-width="0.3"/>
<path d="M40.5408 128.485C39.3208 128.855 38.3908 129.725 36.5408 129.485C49.5608 135.085 64.9408 113.355 63.5408 101.485C62.9908 100.525 61.7608 97.6254 61.5408 96.4854C59.8008 94.0454 57.0708 92.4654 54.5408 90.4854C65.2608 79.7454 62.3608 60.0154 45.5408 58.4854C59.9108 62.9954 61.7608 80.5354 51.5408 90.4854C69.8008 100.875 55.9808 123.825 40.5408 128.485Z" stroke="#974816" stroke-width="0.3"/>
<path d="M104.541 62.4854C104.561 62.9854 104.541 63.9854 104.541 64.4854C104.871 62.7954 105.841 60.8954 105.541 58.4854C105.471 59.3054 104.491 60.9254 104.541 62.4854Z" stroke="#342A16" stroke-width="0.3"/>
<path d="M159.541 75.4854C161.451 71.6254 163.991 62.8454 163.541 58.4854C163.051 60.5554 159.871 63.5154 159.471 66.4154C159.061 69.3054 159.901 73.5854 159.541 75.4854Z" stroke="#010101" stroke-width="0.3"/>
<path d="M104.541 67.4854C104.681 66.5454 104.541 65.4354 104.541 64.4854C104.541 63.9854 104.561 62.9854 104.541 62.4854C104.311 63.8354 104.601 66.3954 104.541 67.4854Z" stroke="#702F13" stroke-width="0.3"/>
<path d="M16.5408 92.4849C20.8908 88.2949 16.5308 83.5549 22.7908 78.7349C29.0508 73.9049 37.3108 62.5349 46.5408 64.4849C40.8908 62.0149 35.5708 66.2049 30.7708 68.7149C25.9708 71.2249 22.4808 75.9149 19.3108 79.2549C16.1408 82.5949 11.9908 93.4049 16.5408 92.4849Z" stroke="#984916" stroke-width="0.3"/>
<path d="M36.5408 69.4853C45.4408 71.0853 36.4908 82.6353 37.5408 88.4853C39.3208 89.3153 39.6408 87.0153 40.5408 86.4853C43.9608 80.8553 46.0608 66.7753 36.5408 69.4853Z" stroke="#9A4B16" stroke-width="0.3"/>
<path d="M72.5408 73.4856C73.8708 73.4356 75.2108 73.4856 76.5408 73.4856C77.0408 73.4856 77.5408 73.4856 77.5408 73.4856C75.4008 72.9856 74.6908 73.0756 72.5408 73.4856Z" stroke="#430D0B" stroke-width="0.3"/>
<path d="M79.5408 102.485C78.5808 100.945 76.1308 100.625 75.5408 98.4854C92.2108 101.735 93.8208 73.8054 77.5408 73.4854C77.5408 73.4854 77.0408 73.4854 76.5408 73.4854C91.0508 75.7054 88.6008 103.005 72.5408 96.4854C72.6408 100.205 75.9708 102.685 79.5408 102.485Z" stroke="#974716" stroke-width="0.3"/>
<path d="M90.5408 86.4854C91.2708 82.9654 91.5408 78.7054 91.5408 74.4854C91.2308 77.6954 90.8908 82.6054 90.5408 86.4854Z" stroke="#796709" stroke-width="0.3"/>
<path d="M22.5408 85.4854C26.9108 87.1354 28.1908 80.6554 26.5408 78.4854C25.3808 80.8954 22.8508 82.7554 22.5408 85.4854Z" stroke="#BDA213" stroke-width="0.3"/>
<path d="M74.5408 90.485C74.8408 89.995 77.6308 79.925 76.5408 84.485C78.8408 83.365 77.2308 78.815 74.5408 79.485C73.1308 83.705 71.6108 87.895 71.5408 92.485C73.3008 93.035 73.6708 91.355 74.5408 90.485Z" stroke="#9C4F15" stroke-width="0.3"/>
<path d="M155.541 88.4854C159.481 89.8454 169.451 88.9254 167.541 81.4854C166.251 81.3154 165.791 79.7854 164.541 79.4854C165.631 85.5754 161.451 89.4754 155.541 88.4854Z" stroke="#9B4816" stroke-width="0.3"/>
<path d="M74.5408 90.4857C76.7108 88.3157 76.1808 87.6657 76.5408 84.4857C77.6308 79.9257 74.8408 89.9957 74.5408 90.4857Z" stroke="#080505" stroke-width="0.3"/>
<path d="M131.541 94.4854C137.211 97.1654 149.711 93.3854 148.541 84.4854C148.261 83.2554 146.821 82.2154 145.541 82.4854C145.031 90.0654 139.791 96.1654 131.541 94.4854Z" stroke="#984B15" stroke-width="0.3"/>
<path d="M61.5408 93.4854C61.5408 91.1654 61.4308 88.8054 61.5408 86.4854C61.1208 89.0654 60.9508 90.7954 61.5408 93.4854Z" stroke="#7B6909" stroke-width="0.3"/>
<path d="M20.5408 89.4854C18.5508 92.9454 23.4408 100.215 14.5408 99.4854C17.6908 100.475 21.7408 100.145 23.6108 96.5554C25.4908 92.9754 23.7908 88.5454 20.5408 89.4854Z" stroke="#894014" stroke-width="0.3"/>
<path d="M106.541 107.485C115.311 111.185 125.901 100.085 123.541 90.4854C123.221 89.0254 121.411 89.4354 120.541 88.4854C118.791 96.5754 118.251 109.435 106.541 107.485Z" stroke="#964815" stroke-width="0.3"/>
<path d="M42.5408 114.486C43.5008 112.176 38.7808 103.836 40.5408 101.486C42.3008 99.1358 48.7908 94.7358 51.5408 96.4858C46.9808 93.0058 42.0108 98.5658 37.5408 99.4858C37.3008 103.966 37.9108 115.336 42.5408 114.486Z" stroke="#9A4916" stroke-width="0.3"/>
<path d="M42.5407 114.485C47.2407 113.615 55.6107 100.555 51.5407 96.4853C48.7907 94.7353 42.3007 99.1353 40.5407 101.485C38.7807 103.835 43.5007 112.175 42.5407 114.485Z" stroke="#050601" stroke-width="0.3"/>
<path d="M82.5408 109.485C81.2908 109.945 80.4108 110.725 78.5408 110.485C83.6308 112.675 94.8708 107.405 94.5408 100.485C91.2008 98.7054 88.5708 107.285 82.5408 109.485Z" stroke="#934515" stroke-width="0.3"/>
<path d="M141.541 106.486C139.121 105.946 136.451 108.016 136.541 110.486C134.971 105.636 126.831 108.216 128.541 113.486C126.761 108.796 121.041 108.576 120.541 114.486C117.511 113.306 121.831 109.586 119.541 108.486C117.081 109.346 117.271 112.496 116.541 114.486C113.861 110.506 104.321 112.916 103.541 118.486C102.151 109.796 93.5207 120.596 88.5407 115.486C87.1107 117.936 87.6107 120.946 86.5407 123.486C85.4607 121.326 84.3907 116.236 80.5407 119.486C79.8407 107.156 62.8607 117.986 65.5407 126.486C70.2307 125.026 67.0807 132.206 71.5407 131.486C69.8007 125.816 75.6007 126.366 78.5407 123.486C77.2307 129.496 87.5207 127.606 87.5407 123.486C90.8307 128.066 96.0607 123.076 95.5407 118.486C97.0907 123.806 98.0407 123.946 99.5407 118.486C98.4307 125.646 104.731 121.246 108.541 121.486C103.021 130.766 114.281 124.936 117.541 123.486C115.531 121.186 114.421 120.806 115.541 117.486C119.101 122.416 125.921 114.726 130.541 117.486C130.841 115.126 129.511 111.466 132.541 110.486C132.241 112.576 130.341 115.546 133.541 116.486C137.331 113.756 146.341 116.526 145.541 108.486C142.261 112.156 143.051 110.236 141.541 106.486ZM140.541 108.486C140.491 113.826 136.401 110.856 140.541 108.486ZM124.541 111.486C125.481 118.156 120.111 115.126 124.541 111.486ZM114.541 113.486C113.271 120.766 109.531 115.916 114.541 113.486ZM71.5407 125.486C72.2407 122.056 74.3307 118.086 74.5407 115.486C80.7907 116.446 75.8307 124.996 71.5407 125.486ZM109.541 116.486C108.041 122.556 104.631 117.896 109.541 116.486ZM83.5407 120.486C83.4907 125.826 79.4007 122.856 83.5407 120.486ZM111.541 123.486C109.921 127.726 106.721 122.596 111.541 123.486Z" stroke="#854114" stroke-width="0.3"/>
<path d="M140.541 108.485C140.491 113.825 136.401 110.855 140.541 108.485Z" stroke="black" stroke-width="0.3"/>
<path d="M78.5408 110.485C80.4108 110.725 81.2908 109.945 82.5408 109.485C80.7508 109.755 78.3408 109.675 76.5408 109.485C76.6808 109.535 78.2508 110.355 78.5408 110.485Z" stroke="#BD7E12" stroke-width="0.3"/>
<path d="M124.541 111.485C125.481 118.155 120.111 115.125 124.541 111.485Z" stroke="#040401" stroke-width="0.3"/>
<path d="M114.541 113.485C113.271 120.765 109.531 115.915 114.541 113.485Z" stroke="#030502" stroke-width="0.3"/>
<path d="M25.5408 116.486C27.8208 117.306 26.8008 120.046 30.5408 120.486C30.4008 120.436 26.5208 112.666 25.5408 116.486Z" stroke="#974616" stroke-width="0.3"/>
<path d="M71.5408 125.485C75.8308 124.995 80.7908 116.445 74.5408 115.485C74.3308 118.085 72.2408 122.055 71.5408 125.485Z" stroke="#030400" stroke-width="0.3"/>
<path d="M109.541 116.485C108.041 122.555 104.631 117.895 109.541 116.485Z" stroke="#2A190C" stroke-width="0.3"/>
<path d="M137.541 119.486C138.081 114.346 134.841 119.046 135.541 121.486C133.081 116.746 129.091 121.386 124.541 120.486C124.121 128.306 125.811 120.456 127.541 125.486C127.641 121.726 137.641 125.106 142.541 122.486C141.581 120.326 139.621 115.406 137.541 119.486Z" stroke="#773B13" stroke-width="0.3"/>
<path d="M147.541 119.485C145.891 124.525 140.991 119.995 147.541 119.485Z" stroke="#733813" stroke-width="0.3"/>
<path d="M83.5407 120.485C83.4907 125.825 79.4007 122.855 83.5407 120.485Z" stroke="black" stroke-width="0.3"/>
<path d="M122.541 121.485C119.921 120.315 117.301 124.445 119.861 126.145C122.411 127.845 124.801 122.485 122.541 121.485Z" stroke="#6C3612" stroke-width="0.3"/>
<path d="M136.541 133.485C133.481 138.595 138.311 143.675 137.541 147.485C146.941 144.315 161.131 131.095 150.541 121.485C146.081 125.695 141.321 129.725 136.541 133.485Z" stroke="#DDBD02" stroke-width="0.3"/>
<path d="M111.541 123.485C109.921 127.725 106.721 122.595 111.541 123.485Z" stroke="black" stroke-width="0.3"/>
<path d="M36.5408 129.485C38.3908 129.725 39.3208 128.855 40.5408 128.485C38.7408 128.675 36.3308 128.755 34.5408 128.485C34.9208 128.645 36.0208 129.265 36.5408 129.485Z" stroke="#B36E14" stroke-width="0.3"/>
<path d="M41.5408 132.485C39.9708 132.625 38.1108 132.625 36.5408 132.485C38.7108 132.995 39.3208 133.005 41.5408 132.485Z" stroke="#74641B" stroke-width="0.3"/>
<path d="M133.541 136.485C132.931 138.395 133.611 147.475 135.541 148.485C135.961 148.275 137.271 147.595 137.541 147.485C138.311 143.675 133.481 138.595 136.541 133.485C135.441 134.355 134.581 135.585 133.541 136.485Z" stroke="#8A7505" stroke-width="0.3"/>
<path d="M135.541 148.485C133.611 147.475 132.931 138.395 133.541 136.485C128.341 139.055 123.321 142.505 117.541 143.485C116.981 154.925 129.471 151.595 135.541 148.485Z" stroke="#E3C105" stroke-width="0.3"/>
<path d="M95.5408 146.485C99.1608 146.685 102.921 146.585 106.541 146.485C103.371 146.225 98.7208 146.345 95.5408 146.485Z" stroke="#000016" stroke-width="0.3"/>
<path d="M58.5408 3.4853C57.6808 3.8053 56.2708 4.1253 55.5408 4.4853C54.7208 4.8953 53.5908 5.9353 52.5408 6.4853C51.2108 7.1753 49.8008 7.6553 48.5408 8.4853C47.0508 9.4653 45.0108 11.1253 43.5408 12.4853C42.1208 15.8953 37.7808 17.9153 35.5408 20.4853C28.4808 27.7153 30.9708 40.7453 40.5408 44.4853C38.9808 48.2053 36.4008 51.5553 35.5408 55.4853C15.1508 56.7953 -15.2792 86.8753 11.5408 101.485C12.3208 101.915 14.0208 103.335 14.5408 103.485C18.5908 104.615 21.2108 101.385 24.5408 100.485C27.5908 108.115 18.5908 115.105 21.7708 121.255C24.9508 127.405 29.7008 131.865 36.5408 132.485C38.1108 132.625 39.9708 132.625 41.5408 132.485C48.2508 130.925 53.4608 127.385 58.7908 133.235C64.1208 139.085 68.2608 139.405 74.5208 142.505C80.7708 145.605 88.6708 146.115 95.5408 146.485C98.7208 146.345 103.371 146.225 106.541 146.485C108.411 146.685 109.601 144.865 111.541 145.485C111.151 157.325 124.221 160.795 133.541 157.485C135.531 156.775 138.461 154.635 140.541 153.485C150.061 148.235 160.301 139.475 162.531 128.495C164.761 117.515 153.021 122.485 155.541 114.485C155.941 113.225 157.041 112.395 157.541 111.485C161.521 103.235 163.421 94.3953 167.541 86.4853C183.061 95.4353 191.901 71.5153 189.541 59.4853C189.421 58.8753 187.411 54.8953 186.541 54.4853C183.921 54.1253 181.171 54.7553 178.541 54.4853C175.781 47.2353 163.781 47.7753 156.541 46.4853C155.601 43.5753 153.121 41.4253 152.541 38.4853C149.041 37.7453 145.981 31.6053 143.541 29.4853C139.411 25.8853 134.351 23.0553 129.541 20.4853C127.831 19.5753 126.081 18.2153 124.541 17.4853C116.171 13.5253 105.091 11.7853 95.5408 12.4853C93.3008 12.6453 91.6108 13.1453 89.5408 13.4853C87.6408 13.7953 83.5608 14.4853 82.5408 13.4853C81.3308 12.2853 81.9908 12.1053 81.5408 10.4853C81.3208 9.7053 80.8508 8.1253 80.5408 7.4853C80.4808 7.3553 79.6008 5.5753 79.5408 5.4853C79.0208 4.6653 77.2708 3.4753 76.5408 2.4853C76.5408 2.4853 75.9208 2.7053 75.5408 2.4853C72.7608 0.895296 65.7408 0.615296 62.5408 1.4853C61.7708 1.6953 59.6108 3.0853 58.5408 3.4853ZM72.5408 9.4853C73.5208 10.2253 73.9108 10.4153 74.5408 11.4853C75.1608 12.5453 76.0608 13.8253 75.5408 15.4853C74.4608 18.8953 66.0008 18.6253 63.4608 21.4053C60.9308 24.1953 56.4408 27.0053 53.5408 29.4853C51.2008 31.8253 49.3608 34.6753 46.5408 36.4853C37.0808 42.5753 37.9408 25.4553 44.5408 20.4853C44.8108 20.2853 45.3308 19.7553 45.5408 19.4853C47.6408 16.7853 49.8208 15.3753 52.5408 13.4853C53.5408 12.7853 54.5008 12.0653 55.5408 11.4853C58.2208 9.9853 61.5808 9.1853 64.5408 8.4853C68.1608 7.6253 69.5408 7.2153 72.5408 9.4853ZM83.5408 37.4853C83.4208 37.2753 82.5408 37.4853 82.5408 37.4853C81.0408 40.5753 78.2408 41.3353 77.5408 37.4853C77.5208 37.3953 76.5408 37.4853 76.5408 37.4853C75.5908 42.1553 71.1908 47.6553 65.5408 46.4853C59.8808 45.3053 61.6008 34.4253 67.5408 37.4853C68.4408 33.2353 66.7108 32.7353 63.5408 32.4853C64.3208 25.6353 77.0308 24.1453 76.5408 32.4853C76.5408 32.5153 77.5408 32.4853 77.5408 32.4853C79.8808 30.8853 81.6408 31.0253 82.5408 33.4853C83.0008 33.3453 83.5408 33.4853 83.5408 33.4853C85.2608 20.9053 87.9008 32.1253 86.5408 37.4853C86.7108 33.8553 90.1808 31.0253 88.5408 27.4853C92.0108 27.3453 89.9808 32.3353 90.5408 34.4853C92.0708 29.1353 95.0908 28.0453 94.5408 35.4853C96.8908 33.3553 94.2908 28.9753 96.5408 26.4853C99.1408 31.4453 102.591 26.1353 106.541 25.4853C107.211 28.0453 106.921 31.5453 108.541 33.4853C108.991 28.6053 110.141 27.0953 113.541 25.4853C116.301 26.2853 115.041 31.1353 117.541 27.4853C115.001 32.2253 117.371 35.4653 114.561 40.5053C111.761 45.5553 107.351 37.9753 111.541 34.4853C108.451 35.2453 106.091 35.6653 104.541 32.4853C104.501 37.0553 98.7908 37.3453 97.5408 33.4853C96.2108 38.1553 90.6408 38.5353 87.5408 36.4853C88.2008 39.2553 84.0608 40.4653 83.5408 37.4853ZM134.541 86.4853C142.801 84.5653 143.681 72.9753 145.471 65.4153C147.251 57.8553 151.681 49.3453 161.541 49.4853C164.661 49.5253 167.041 50.7953 169.541 51.4853C170.901 51.6253 174.441 51.7653 175.541 52.4853C178.921 54.6753 176.731 56.9553 176.541 59.4853C176.661 62.6253 177.391 67.4753 176.541 70.4853C179.341 66.6953 179.561 58.3053 184.541 58.4853C190.331 58.6953 186.821 68.2953 185.221 74.1653C183.621 80.0253 181.061 86.7253 173.541 84.4853C171.201 83.7853 169.721 82.4853 167.541 81.4853C169.451 88.9253 159.481 89.8453 155.541 88.4853C152.931 87.5753 150.961 85.6653 148.541 84.4853C149.711 93.3853 137.211 97.1653 131.541 94.4853C128.831 93.2053 126.311 91.5853 123.541 90.4853C125.901 100.085 115.311 111.185 106.541 107.485C102.111 105.615 98.7408 102.735 94.5408 100.485C94.8708 107.405 83.6308 112.675 78.5408 110.485C78.2508 110.355 76.6808 109.535 76.5408 109.485C71.7608 107.845 66.2608 106.225 63.5408 101.485C64.9408 113.355 49.5608 135.085 36.5408 129.485C36.0208 129.265 34.9208 128.645 34.5408 128.485C31.7208 127.315 29.0808 125.165 26.7908 123.235C24.5008 121.305 21.2908 114.955 25.5408 116.485C26.5208 112.665 30.4008 120.435 30.5408 120.485C32.6408 120.735 34.7808 120.585 36.5408 119.485C27.6108 115.875 24.3208 103.625 26.8708 94.8153C29.4208 86.0053 27.7308 73.3053 36.5408 69.4853C46.0608 66.7753 43.9608 80.8553 40.5408 86.4853C46.7208 82.8253 55.5108 68.4053 46.5408 64.4853C37.3108 62.5353 29.0508 73.9053 22.7908 78.7353C16.5308 83.5553 20.8908 88.2953 16.5408 92.4853C18.2208 92.1453 18.9208 89.9553 20.5408 89.4853C23.7908 88.5453 25.4908 92.9753 23.6108 96.5553C21.7408 100.145 17.6908 100.475 14.5408 99.4853C0.150774 94.9853 0.450774 80.5053 10.7908 71.7353C21.1308 62.9653 31.1608 57.1753 45.5408 58.4853C62.3608 60.0153 65.2608 79.7453 54.5408 90.4853C57.0708 92.4653 59.8008 94.0453 61.5408 96.4853C61.3608 95.5753 61.5408 94.4053 61.5408 93.4853C60.9508 90.7953 61.1208 89.0653 61.5408 86.4853C61.8908 79.5153 64.9208 73.7753 72.5408 73.4853C74.6908 73.0753 75.4008 72.9853 77.5408 73.4853C93.8208 73.8053 92.2108 101.735 75.5408 98.4853C76.1308 100.625 78.5808 100.945 79.5408 102.485C86.8208 102.075 89.4008 91.9753 90.5408 86.4853C90.8908 82.6053 91.2308 77.6953 91.5408 74.4853C91.5408 65.2753 91.1208 47.7753 103.541 47.4853C117.951 47.1553 115.731 62.3953 112.761 71.7053C109.791 81.0253 100.641 90.1253 108.541 99.4853C118.241 96.7753 116.991 77.3453 117.541 68.4853C118.091 59.6253 116.371 39.7353 130.541 40.4853C137.841 40.8753 141.571 46.1653 141.541 52.4853C141.511 58.8053 139.181 66.7653 136.771 70.7153C134.351 74.6653 127.661 85.0853 134.541 86.4853ZM84.5408 61.4853C84.8908 64.3453 84.2708 66.8753 83.5408 69.4853C78.7108 67.2553 72.7108 66.6353 67.5408 68.4853C68.1608 65.0553 69.9208 61.9553 70.5408 58.4853C59.9208 53.1253 73.8508 46.6053 79.7608 46.7053C85.6808 46.8053 96.7308 61.2053 84.5408 61.4853ZM22.5408 85.4853C22.8508 82.7553 25.3808 80.8953 26.5408 78.4853C28.1908 80.6553 26.9108 87.1353 22.5408 85.4853ZM141.541 106.485C143.051 110.235 142.261 112.155 145.541 108.485C146.341 116.525 137.331 113.755 133.541 116.485C130.341 115.545 132.241 112.575 132.541 110.485C129.511 111.465 130.841 115.125 130.541 117.485C125.921 114.725 119.101 122.415 115.541 117.485C114.421 120.805 115.531 121.185 117.541 123.485C114.281 124.935 103.021 130.765 108.541 121.485C104.731 121.245 98.4308 125.645 99.5408 118.485C98.0408 123.945 97.0908 123.805 95.5408 118.485C96.0608 123.075 90.8308 128.065 87.5408 123.485C87.5208 127.605 77.2308 129.495 78.5408 123.485C75.6008 126.365 69.8008 125.815 71.5408 131.485C67.0808 132.205 70.2308 125.025 65.5408 126.485C62.8608 117.985 79.8408 107.155 80.5408 119.485C84.3908 116.235 85.4608 121.325 86.5408 123.485C87.6108 120.945 87.1108 117.935 88.5408 115.485C93.5208 120.595 102.151 109.795 103.541 118.485C104.321 112.915 113.861 110.505 116.541 114.485C117.271 112.495 117.081 109.345 119.541 108.485C121.831 109.585 117.511 113.305 120.541 114.485C121.041 108.575 126.761 108.795 128.541 113.485C126.831 108.215 134.971 105.635 136.541 110.485C136.451 108.015 139.121 105.945 141.541 106.485ZM137.541 119.485C139.621 115.405 141.581 120.325 142.541 122.485C137.641 125.105 127.641 121.725 127.541 125.485C125.811 120.455 124.121 128.305 124.541 120.485C129.091 121.385 133.081 116.745 135.541 121.485C134.841 119.045 138.081 114.345 137.541 119.485ZM147.541 119.485C140.991 119.995 145.891 124.525 147.541 119.485V119.485ZM122.541 121.485C124.801 122.485 122.411 127.845 119.861 126.145C117.301 124.445 119.921 120.315 122.541 121.485ZM137.541 147.485C137.271 147.595 135.961 148.275 135.541 148.485C129.471 151.595 116.981 154.925 117.541 143.485C123.321 142.505 128.341 139.055 133.541 136.485C134.581 135.585 135.441 134.355 136.541 133.485C141.321 129.725 146.081 125.695 150.541 121.485C161.131 131.095 146.941 144.315 137.541 147.485Z" fill="#050702" stroke="black"/>
<path d="M64.5408 8.4852C65.3508 8.4552 71.2408 9.0652 72.5408 9.4852C69.5408 7.2152 68.1608 7.6252 64.5408 8.4852Z" fill="#7D6B0F" stroke="black"/>
<path d="M55.5408 11.4854C55.6608 11.4754 75.5308 19.4554 74.5408 11.4854C73.9108 10.4154 73.5208 10.2254 72.5408 9.48544C71.2408 9.06544 65.3508 8.45544 64.5408 8.48544C61.5808 9.18544 58.2208 9.98544 55.5408 11.4854Z" fill="#E4C202" stroke="black"/>
<path d="M39.5408 15.4856C38.1808 16.8256 36.7308 18.8856 35.5408 20.4856C37.7808 17.9156 42.1208 15.8956 43.5408 12.4856C43.5408 12.4856 42.7208 12.2456 42.5408 12.4856C41.6208 13.7256 40.6308 14.4156 39.5408 15.4856Z" fill="#594C1C" stroke="black"/>
<path d="M45.5408 19.4858C48.5008 20.1058 51.3508 24.8858 53.5408 26.4858C49.9008 25.9158 47.5508 22.3758 44.5408 20.4858C37.9408 25.4558 37.0808 42.5758 46.5408 36.4858C48.9208 34.6658 51.2208 31.4658 53.5408 29.4858C56.4408 27.0058 60.9308 24.1958 63.4608 21.4058C66.0008 18.6258 74.4608 18.8958 75.5408 15.4858C68.1208 19.7658 58.9608 12.9458 52.5408 13.4858C49.8208 15.3758 47.6408 16.7858 45.5408 19.4858Z" fill="#DCBC03" stroke="black"/>
<path d="M46.5408 36.4854C49.3608 34.6754 51.2008 31.8254 53.5408 29.4854C51.2208 31.4654 48.9208 34.6654 46.5408 36.4854Z" fill="#716019" stroke="black"/>
<path d="M108.541 99.4855C103.471 100.895 99.2508 88.4955 104.291 84.2355C109.341 79.9755 109.491 70.8855 111.871 64.8155C114.251 58.7455 111.091 48.3755 103.541 47.4855C91.1208 47.7755 91.5408 65.2755 91.5408 74.4855C91.5408 78.7055 91.2708 82.9655 90.5408 86.4855C89.4008 91.9755 86.8208 102.075 79.5408 102.485C75.9708 102.685 72.6408 100.205 72.5408 96.4855C88.6008 103.005 91.0508 75.7055 76.5408 73.4855C75.2108 73.4855 73.8708 73.4355 72.5408 73.4855C64.9208 73.7755 61.8908 79.5155 61.5408 86.4855C61.4308 88.8055 61.5408 91.1655 61.5408 93.4855C61.5408 94.4055 61.3608 95.5755 61.5408 96.4855C61.7608 97.6255 62.9908 100.525 63.5408 101.485C66.2608 106.225 71.7608 107.845 76.5408 109.485C78.3408 109.675 80.7508 109.755 82.5408 109.485C88.5708 107.285 91.2008 98.7055 94.5408 100.485C98.7408 102.735 102.111 105.615 106.541 107.485C118.251 109.435 118.791 96.5755 120.541 88.4855C121.411 89.4355 123.221 89.0255 123.541 90.4855C126.311 91.5855 128.831 93.2055 131.541 94.4855C139.791 96.1655 145.031 90.0655 145.541 82.4855C146.821 82.2155 148.261 83.2555 148.541 84.4855C150.961 85.6655 152.931 87.5755 155.541 88.4855C161.451 89.4755 165.631 85.5755 164.541 79.4855C165.791 79.7855 166.251 81.3155 167.541 81.4855C169.721 82.4855 171.201 83.7855 173.541 84.4855C186.361 85.3655 181.061 64.6355 184.541 58.4855C179.561 58.3055 179.341 66.6955 176.541 70.4855C175.851 71.4255 176.021 74.3655 173.541 73.4855C173.021 66.5955 174.131 60.1555 174.541 53.4855C172.711 52.5755 169.801 53.1455 168.541 51.4855C166.361 51.1255 163.221 49.6655 161.541 49.4855C151.681 49.3455 147.251 57.8555 145.471 65.4155C143.681 72.9755 142.801 84.5655 134.541 86.4855C124.201 88.8955 132.321 71.5855 135.861 65.8055C139.401 60.0355 141.411 42.3355 130.541 40.4855C116.371 39.7355 118.091 59.6255 117.541 68.4855C116.991 77.3455 118.241 96.7755 108.541 99.4855ZM131.541 48.4855C133.161 51.4855 131.481 58.7355 130.541 62.4855C129.931 64.9255 128.581 67.1855 127.541 69.4855C124.751 66.5655 127.611 59.6655 127.531 56.4755C127.461 53.2855 129.651 44.8255 131.541 48.4855ZM105.541 58.4855C105.841 60.8955 104.871 62.7955 104.541 64.4855C104.541 65.4355 104.681 66.5455 104.541 67.4855C104.091 70.5055 102.501 73.5755 101.541 76.4855C101.161 70.4655 99.4508 58.1055 105.541 54.4855C105.541 55.8155 105.541 57.1555 105.541 58.4855ZM163.541 58.4855C163.991 62.8455 161.451 71.6255 159.541 75.4855C158.871 76.8355 158.511 78.8155 156.541 78.4855C153.871 74.4455 156.491 67.8355 157.321 64.2655C158.141 60.6855 163.121 53.5555 163.541 58.4855ZM76.5408 84.4855C76.1808 87.6655 76.7108 88.3155 74.5408 90.4855C73.6708 91.3555 73.3008 93.0355 71.5408 92.4855C71.6108 87.8955 73.1308 83.7055 74.5408 79.4855C77.2308 78.8155 78.8408 83.3655 76.5408 84.4855Z" fill="#EAC602" stroke="black"/>
<path d="M134.541 86.4854C127.661 85.0854 134.351 74.6654 136.771 70.7154C139.181 66.7654 141.511 58.8054 141.541 52.4854C141.571 46.1654 137.841 40.8754 130.541 40.4854C141.411 42.3354 139.401 60.0354 135.861 65.8054C132.321 71.5854 124.201 88.8954 134.541 86.4854Z" fill="#9B4A16" stroke="black"/>
<path d="M130.541 62.4854C130.811 60.1454 132.131 51.3354 131.541 48.4854C129.651 44.8254 127.461 53.2854 127.531 56.4754C127.611 59.6654 124.751 66.5654 127.541 69.4854C128.581 67.1854 129.931 64.9254 130.541 62.4854Z" fill="#A25116" stroke="black"/>
<path d="M108.541 99.4857C100.641 90.1257 109.791 81.0257 112.761 71.7057C115.731 62.3957 117.951 47.1557 103.541 47.4857C111.091 48.3757 114.251 58.7457 111.871 64.8157C109.491 70.8857 109.341 79.9757 104.291 84.2357C99.2507 88.4957 103.471 100.896 108.541 99.4857Z" fill="#994A16" stroke="black"/>
<path d="M130.541 62.4854C131.481 58.7354 133.161 51.4854 131.541 48.4854C132.131 51.3354 130.811 60.1454 130.541 62.4854Z" fill="#151007" stroke="black"/>
<path d="M168.541 51.4854C169.031 51.5654 169.541 51.4854 169.541 51.4854C167.041 50.7954 164.661 49.5254 161.541 49.4854C163.221 49.6654 166.361 51.1254 168.541 51.4854Z" fill="#682712" stroke="black"/>
<path d="M176.541 70.4854C177.391 67.4754 176.661 62.6254 176.541 59.4854C176.461 57.4754 177.221 54.0054 175.541 52.4854C174.441 51.7654 170.901 51.6254 169.541 51.4854C169.541 51.4854 169.031 51.5654 168.541 51.4854C169.801 53.1454 172.711 52.5754 174.541 53.4854C174.131 60.1554 173.021 66.5954 173.541 73.4854C176.021 74.3654 175.851 71.4254 176.541 70.4854Z" fill="#9E4B16" stroke="black"/>
<path d="M176.541 59.4854C176.731 56.9554 178.921 54.6754 175.541 52.4854C177.221 54.0054 176.461 57.4754 176.541 59.4854Z" fill="#552B0E" stroke="black"/>
<path d="M104.541 67.4854C104.601 66.3954 104.311 63.8354 104.541 62.4854C104.491 60.9254 105.471 59.3054 105.541 58.4854C105.541 57.1554 105.541 55.8154 105.541 54.4854C99.4508 58.1054 101.161 70.4654 101.541 76.4854C102.501 73.5754 104.091 70.5054 104.541 67.4854Z" fill="#A55016" stroke="black"/>
<path d="M159.541 75.4853C159.901 73.5853 159.061 69.3053 159.471 66.4153C159.871 63.5153 163.051 60.5553 163.541 58.4853C163.121 53.5553 158.141 60.6853 157.321 64.2653C156.491 67.8353 153.871 74.4453 156.541 78.4853C158.511 78.8153 158.871 76.8353 159.541 75.4853Z" fill="#9C4A16" stroke="black"/>
<path d="M184.541 58.4854C181.061 64.6354 186.361 85.3654 173.541 84.4854C181.061 86.7254 183.621 80.0254 185.221 74.1654C186.821 68.2954 190.331 58.6954 184.541 58.4854Z" fill="#994716" stroke="black"/>
<path d="M14.5408 99.4854C23.4408 100.215 18.5508 92.9454 20.5408 89.4854C18.9208 89.9554 18.2208 92.1454 16.5408 92.4854C11.9908 93.4054 16.1408 82.5954 19.3108 79.2554C22.4808 75.9154 25.9707 71.2254 30.7708 68.7154C35.5708 66.2054 40.8908 62.0154 46.5408 64.4854C55.5108 68.4054 46.7208 82.8254 40.5408 86.4854C39.6408 87.0154 39.3208 89.3154 37.5408 88.4854C36.4908 82.6354 45.4408 71.0854 36.5408 69.4854C27.7308 73.3054 29.4208 86.0054 26.8708 94.8154C24.3208 103.625 27.6108 115.875 36.5408 119.485C34.7808 120.585 32.6408 120.735 30.5408 120.485C26.8008 120.045 27.8208 117.305 25.5408 116.485C21.2908 114.955 24.5008 121.305 26.7908 123.235C29.0807 125.165 31.7208 127.315 34.5408 128.485C36.3307 128.755 38.7408 128.675 40.5408 128.485C55.9808 123.825 69.8008 100.875 51.5408 90.4854C61.7608 80.5354 59.9108 62.9954 45.5408 58.4854C31.1608 57.1754 21.1308 62.9654 10.7908 71.7354C0.450751 80.5054 0.15075 94.9854 14.5408 99.4854ZM51.5408 96.4854C55.6108 100.555 47.2408 113.615 42.5408 114.485C37.9108 115.335 37.3008 103.965 37.5408 99.4854C42.0108 98.5654 46.9808 93.0054 51.5408 96.4854Z" fill="#E9C602" stroke="black"/>
<path d="M40.5408 128.485C39.3208 128.855 38.3908 129.725 36.5408 129.485C49.5608 135.085 64.9408 113.355 63.5408 101.485C62.9908 100.525 61.7608 97.6254 61.5408 96.4854C59.8008 94.0454 57.0708 92.4654 54.5408 90.4854C65.2608 79.7454 62.3608 60.0154 45.5408 58.4854C59.9108 62.9954 61.7608 80.5354 51.5408 90.4854C69.8008 100.875 55.9808 123.825 40.5408 128.485Z" fill="#974816" stroke="black"/>
<path d="M104.541 62.4854C104.561 62.9854 104.541 63.9854 104.541 64.4854C104.871 62.7954 105.841 60.8954 105.541 58.4854C105.471 59.3054 104.491 60.9254 104.541 62.4854Z" fill="#342A16" stroke="black"/>
<path d="M159.541 75.4854C161.451 71.6254 163.991 62.8454 163.541 58.4854C163.051 60.5554 159.871 63.5154 159.471 66.4154C159.061 69.3054 159.901 73.5854 159.541 75.4854Z" fill="#010101" stroke="black"/>
<path d="M104.541 67.4854C104.681 66.5454 104.541 65.4354 104.541 64.4854C104.541 63.9854 104.561 62.9854 104.541 62.4854C104.311 63.8354 104.601 66.3954 104.541 67.4854Z" fill="#702F13" stroke="black"/>
<path d="M16.5408 92.4849C20.8908 88.2949 16.5308 83.5549 22.7908 78.7349C29.0508 73.9049 37.3108 62.5349 46.5408 64.4849C40.8908 62.0149 35.5708 66.2049 30.7708 68.7149C25.9708 71.2249 22.4808 75.9149 19.3108 79.2549C16.1408 82.5949 11.9908 93.4049 16.5408 92.4849Z" fill="#984916" stroke="black"/>
<path d="M36.5408 69.4853C45.4408 71.0853 36.4908 82.6353 37.5408 88.4853C39.3208 89.3153 39.6408 87.0153 40.5408 86.4853C43.9608 80.8553 46.0608 66.7753 36.5408 69.4853Z" fill="#9A4B16" stroke="black"/>
<path d="M72.5408 73.4856C73.8708 73.4356 75.2108 73.4856 76.5408 73.4856C77.0408 73.4856 77.5408 73.4856 77.5408 73.4856C75.4008 72.9856 74.6908 73.0756 72.5408 73.4856Z" fill="#430D0B" stroke="black"/>
<path d="M79.5408 102.485C78.5808 100.945 76.1308 100.625 75.5408 98.4854C92.2108 101.735 93.8208 73.8054 77.5408 73.4854C77.5408 73.4854 77.0408 73.4854 76.5408 73.4854C91.0508 75.7054 88.6008 103.005 72.5408 96.4854C72.6408 100.205 75.9708 102.685 79.5408 102.485Z" fill="#974716" stroke="black"/>
<path d="M90.5408 86.4854C91.2708 82.9654 91.5408 78.7054 91.5408 74.4854C91.2308 77.6954 90.8908 82.6054 90.5408 86.4854Z" fill="#796709" stroke="black"/>
<path d="M22.5408 85.4854C26.9108 87.1354 28.1908 80.6554 26.5408 78.4854C25.3808 80.8954 22.8508 82.7554 22.5408 85.4854Z" fill="#BDA213" stroke="black"/>
<path d="M74.5408 90.485C74.8408 89.995 77.6308 79.925 76.5408 84.485C78.8408 83.365 77.2308 78.815 74.5408 79.485C73.1308 83.705 71.6108 87.895 71.5408 92.485C73.3008 93.035 73.6708 91.355 74.5408 90.485Z" fill="#9C4F15" stroke="black"/>
<path d="M155.541 88.4854C159.481 89.8454 169.451 88.9254 167.541 81.4854C166.251 81.3154 165.791 79.7854 164.541 79.4854C165.631 85.5754 161.451 89.4754 155.541 88.4854Z" fill="#9B4816" stroke="black"/>
<path d="M74.5408 90.4857C76.7108 88.3157 76.1808 87.6657 76.5408 84.4857C77.6308 79.9257 74.8408 89.9957 74.5408 90.4857Z" fill="#080505" stroke="black"/>
<path d="M131.541 94.4854C137.211 97.1654 149.711 93.3854 148.541 84.4854C148.261 83.2554 146.821 82.2154 145.541 82.4854C145.031 90.0654 139.791 96.1654 131.541 94.4854Z" fill="#984B15" stroke="black"/>
<path d="M61.5408 93.4854C61.5408 91.1654 61.4308 88.8054 61.5408 86.4854C61.1208 89.0654 60.9508 90.7954 61.5408 93.4854Z" fill="#7B6909" stroke="black"/>
<path d="M20.5408 89.4854C18.5508 92.9454 23.4408 100.215 14.5408 99.4854C17.6908 100.475 21.7408 100.145 23.6108 96.5554C25.4908 92.9754 23.7908 88.5454 20.5408 89.4854Z" fill="#894014" stroke="black"/>
<path d="M106.541 107.485C115.311 111.185 125.901 100.085 123.541 90.4854C123.221 89.0254 121.411 89.4354 120.541 88.4854C118.791 96.5754 118.251 109.435 106.541 107.485Z" fill="#964815" stroke="black"/>
<path d="M42.5408 114.486C43.5008 112.176 38.7808 103.836 40.5408 101.486C42.3008 99.1358 48.7908 94.7358 51.5408 96.4858C46.9808 93.0058 42.0108 98.5658 37.5408 99.4858C37.3008 103.966 37.9108 115.336 42.5408 114.486Z" fill="#9A4916" stroke="black"/>
<path d="M42.5407 114.485C47.2407 113.615 55.6107 100.555 51.5407 96.4853C48.7907 94.7353 42.3007 99.1353 40.5407 101.485C38.7807 103.835 43.5007 112.175 42.5407 114.485Z" fill="#050601" stroke="black"/>
<path d="M82.5408 109.485C81.2908 109.945 80.4108 110.725 78.5408 110.485C83.6308 112.675 94.8708 107.405 94.5408 100.485C91.2008 98.7054 88.5708 107.285 82.5408 109.485Z" fill="#934515" stroke="black"/>
<path d="M141.541 106.486C139.121 105.946 136.451 108.016 136.541 110.486C134.971 105.636 126.831 108.216 128.541 113.486C126.761 108.796 121.041 108.576 120.541 114.486C117.511 113.306 121.831 109.586 119.541 108.486C117.081 109.346 117.271 112.496 116.541 114.486C113.861 110.506 104.321 112.916 103.541 118.486C102.151 109.796 93.5207 120.596 88.5407 115.486C87.1107 117.936 87.6107 120.946 86.5407 123.486C85.4607 121.326 84.3907 116.236 80.5407 119.486C79.8407 107.156 62.8607 117.986 65.5407 126.486C70.2307 125.026 67.0807 132.206 71.5407 131.486C69.8007 125.816 75.6007 126.366 78.5407 123.486C77.2307 129.496 87.5207 127.606 87.5407 123.486C90.8307 128.066 96.0607 123.076 95.5407 118.486C97.0907 123.806 98.0407 123.946 99.5407 118.486C98.4307 125.646 104.731 121.246 108.541 121.486C103.021 130.766 114.281 124.936 117.541 123.486C115.531 121.186 114.421 120.806 115.541 117.486C119.101 122.416 125.921 114.726 130.541 117.486C130.841 115.126 129.511 111.466 132.541 110.486C132.241 112.576 130.341 115.546 133.541 116.486C137.331 113.756 146.341 116.526 145.541 108.486C142.261 112.156 143.051 110.236 141.541 106.486ZM140.541 108.486C136.401 110.856 140.491 113.826 140.541 108.486V108.486ZM124.541 111.486C120.111 115.126 125.481 118.156 124.541 111.486V111.486ZM114.541 113.486C109.531 115.916 113.271 120.766 114.541 113.486V113.486ZM71.5407 125.486C72.2407 122.056 74.3307 118.086 74.5407 115.486C80.7907 116.446 75.8307 124.996 71.5407 125.486ZM109.541 116.486C104.631 117.896 108.041 122.556 109.541 116.486V116.486ZM83.5407 120.486C79.4007 122.856 83.4907 125.826 83.5407 120.486V120.486ZM111.541 123.486C106.721 122.596 109.921 127.726 111.541 123.486V123.486Z" fill="#854114" stroke="black"/>
<path d="M140.541 108.485C136.401 110.855 140.491 113.825 140.541 108.485V108.485Z" fill="black" stroke="black"/>
<path d="M78.5408 110.485C80.4108 110.725 81.2908 109.945 82.5408 109.485C80.7508 109.755 78.3408 109.675 76.5408 109.485C76.6808 109.535 78.2508 110.355 78.5408 110.485Z" fill="#BD7E12" stroke="black"/>
<path d="M124.541 111.485C120.111 115.125 125.481 118.155 124.541 111.485V111.485Z" fill="#040401" stroke="black"/>
<path d="M114.541 113.485C109.531 115.915 113.271 120.765 114.541 113.485V113.485Z" fill="#030502" stroke="black"/>
<path d="M25.5408 116.486C27.8208 117.306 26.8008 120.046 30.5408 120.486C30.4008 120.436 26.5208 112.666 25.5408 116.486Z" fill="#974616" stroke="black"/>
<path d="M71.5408 125.485C75.8308 124.995 80.7908 116.445 74.5408 115.485C74.3308 118.085 72.2408 122.055 71.5408 125.485Z" fill="#030400" stroke="black"/>
<path d="M109.541 116.485C104.631 117.895 108.041 122.555 109.541 116.485V116.485Z" fill="#2A190C" stroke="black"/>
<path d="M137.541 119.486C138.081 114.346 134.841 119.046 135.541 121.486C133.081 116.746 129.091 121.386 124.541 120.486C124.121 128.306 125.811 120.456 127.541 125.486C127.641 121.726 137.641 125.106 142.541 122.486C141.581 120.326 139.621 115.406 137.541 119.486Z" fill="#773B13" stroke="black"/>
<path d="M147.541 119.485C140.991 119.995 145.891 124.525 147.541 119.485V119.485Z" fill="#733813" stroke="black"/>
<path d="M83.5407 120.485C79.4007 122.855 83.4907 125.825 83.5407 120.485V120.485Z" fill="black" stroke="black"/>
<path d="M122.541 121.485C119.921 120.315 117.301 124.445 119.861 126.145C122.411 127.845 124.801 122.485 122.541 121.485Z" fill="#6C3612" stroke="black"/>
<path d="M136.541 133.485C133.481 138.595 138.311 143.675 137.541 147.485C146.941 144.315 161.131 131.095 150.541 121.485C146.081 125.695 141.321 129.725 136.541 133.485Z" fill="#DDBD02" stroke="black"/>
<path d="M111.541 123.485C106.721 122.595 109.921 127.725 111.541 123.485V123.485Z" fill="black" stroke="black"/>
<path d="M36.5408 129.485C38.3908 129.725 39.3208 128.855 40.5408 128.485C38.7408 128.675 36.3308 128.755 34.5408 128.485C34.9208 128.645 36.0208 129.265 36.5408 129.485Z" fill="#B36E14" stroke="black"/>
<path d="M41.5408 132.485C39.9708 132.625 38.1108 132.625 36.5408 132.485C38.7108 132.995 39.3208 133.005 41.5408 132.485Z" fill="#74641B" stroke="black"/>
<path d="M133.541 136.485C132.931 138.395 133.611 147.475 135.541 148.485C135.961 148.275 137.271 147.595 137.541 147.485C138.311 143.675 133.481 138.595 136.541 133.485C135.441 134.355 134.581 135.585 133.541 136.485Z" fill="#8A7505" stroke="black"/>
<path d="M135.541 148.485C133.611 147.475 132.931 138.395 133.541 136.485C128.341 139.055 123.321 142.505 117.541 143.485C116.981 154.925 129.471 151.595 135.541 148.485Z" fill="#E3C105" stroke="black"/>
<path d="M95.5408 146.485C99.1608 146.685 102.921 146.585 106.541 146.485C103.371 146.225 98.7208 146.345 95.5408 146.485Z" fill="#000016" stroke="black"/>
</svg>
